<?xml version="1.0" standalone="no"?>
<!DOCTYPE svg PUBLIC "-//W3C//DTD SVG 1.1//EN" "http://www.w3.org/Graphics/SVG/1.1/DTD/svg11.dtd" >
<svg xmlns="http://www.w3.org/2000/svg" xmlns:xlink="http://www.w3.org/1999/xlink" version="1.1">
<metadata>
Created by FontForge 20170731 at Thu Jan 20 04:13:54 2022
 By Aleksey,,,
Copyright (c) 2022 Sunn.
</metadata>
<defs>
<font id="SUIT-Bold" horiz-adv-x="874" >
  <font-face 
    font-family="SUIT"
    font-weight="700"
    font-stretch="normal"
    units-per-em="1000"
    panose-1="0 0 0 0 0 0 0 0 0 0"
    ascent="800"
    descent="-200"
    x-height="517"
    cap-height="733"
    bbox="-95 -260 1292 881"
    underline-thickness="50"
    underline-position="-175"
    unicode-range="U+0020-FFE6"
  />
<missing-glyph horiz-adv-x="1000" 
 />
    <glyph glyph-name=".notdef" horiz-adv-x="1000" 
 />
    <glyph glyph-name=".null" horiz-adv-x="0" 
 />
    <glyph glyph-name="nonmarkingreturn" horiz-adv-x="333" 
 />
    <glyph glyph-name="space" unicode=" " horiz-adv-x="230" 
 />
    <glyph glyph-name="space" unicode="&#xa0;" horiz-adv-x="230" 
 />
    <glyph glyph-name="exclam" unicode="!" horiz-adv-x="355" 
d="M237 200h-116l-21 569h155zM117 99h123v-119h-123v119z" />
    <glyph glyph-name="quotedbl" unicode="&#x22;" horiz-adv-x="451" 
d="M179 543h-88l-16 240h120zM376 781l-15 -240h-89l-15 240h119z" />
    <glyph glyph-name="numbersign" unicode="#" horiz-adv-x="811" 
d="M631 565h126v-112h-135l-17 -185h127v-113h-134l-16 -166h-115l17 166h-188l-15 -166h-116l15 166h-126v113h134l16 185h-124v112h134l15 168h116l-15 -168h187l14 168h116zM489 268l18 185h-186l-19 -185h187z" />
    <glyph glyph-name="dollar" unicode="$" horiz-adv-x="700" 
d="M470 578q-26 16 -48 23v-195q123 -37 169 -89q22 -24 35 -56t13 -67q0 -44 -21 -83q-34 -61 -106 -95q-48 -22 -90 -29v-67h-122v70q-58 11 -120 50q-49 31 -78 71t-39 68l116 46q18 -49 67 -79q30 -20 54 -28v193h-1q-48 15 -95 45q-35 21 -64 53q-20 23 -33 55.5
t-13 68.5q0 43 20 86q30 55 81.5 81.5t104.5 33.5v73h122v-79q61 -11 116 -46q58 -39 90 -92l-106 -64q-18 29 -52 52zM217 530q0 -20 17 -39q13 -15 36 -29q21 -13 30 -17v163q-54 -9 -76 -46q-7 -17 -7 -32zM458 128q20 9 31 18t19 23q8 15 8 28q0 17 -17 36
q-20 22 -77 42v-161q27 10 36 14z" />
    <glyph glyph-name="percent" unicode="%" horiz-adv-x="1066" 
d="M710 733h120l-467 -742h-117zM101.5 654.5q26.5 46.5 71.5 73.5t99 27t99 -27t71 -73.5t26 -101.5q0 -54 -26 -100.5t-71 -74t-99 -27.5t-99 27.5t-71.5 74t-26.5 100.5q0 55 26.5 101.5zM211.5 489q25.5 -27 60.5 -27t60.5 27t25.5 64q0 38 -25.5 64.5t-60.5 26.5
t-60.5 -26.5t-25.5 -64.5q0 -37 25.5 -64zM625.5 278.5q26.5 46.5 71.5 73.5t99 27t98.5 -27t70.5 -73.5t26 -101.5q0 -54 -26 -100.5t-70.5 -74t-98.5 -27.5t-99 27.5t-71.5 74t-26.5 100.5q0 55 26.5 101.5zM735 113q26 -27 61 -27t60 26.5t25 64.5t-25 64.5t-60 26.5
q-36 0 -61.5 -26.5t-25.5 -64.5q0 -37 26 -64z" />
    <glyph glyph-name="ampersand" unicode="&#x26;" horiz-adv-x="795" 
d="M594 -10l-57 61q-95 -81 -213 -81q-105 0 -160.5 45t-72 95.5t-16.5 83.5q0 22 9 58t36 79.5t77 77.5q-34 34 -52 66t-18 78q0 42 23.5 86t69.5 73.5t110 29.5q61 0 106.5 -29t69.5 -73t24 -87q0 -54 -30.5 -96t-96.5 -81l128 -137q20 33 42 74l12 22l110 -60l-12 -22
q-35 -65 -64 -107l145 -156h-170zM223.5 127.5q24.5 -33.5 100.5 -33.5q70 0 128 48l-165 176q-52 -26 -70 -62t-18 -62q0 -33 24.5 -66.5zM260.5 524.5q9.5 -12.5 33.5 -34.5l21 -21q51 24 71 43t20 41q0 28 -18 46.5t-58 18.5q-42 0 -60.5 -18.5t-18.5 -46.5
q0 -16 9.5 -28.5z" />
    <glyph glyph-name="quotesingle" unicode="'" horiz-adv-x="264" 
d="M177 543h-89l-16 240h120z" />
    <glyph glyph-name="parenleft" unicode="(" horiz-adv-x="417" 
d="M135.5 143.5q31.5 -105.5 91.5 -200.5h125q-67 94 -103.5 199.5t-36.5 218.5t36.5 218.5t103.5 199.5h-125q-60 -95 -91.5 -200.5t-31.5 -217.5t31.5 -217.5z" />
    <glyph glyph-name="parenright" unicode=")" horiz-adv-x="417" 
d="M281.5 578.5q-31.5 105.5 -91.5 200.5h-125q67 -94 103.5 -199.5t36.5 -218.5t-36.5 -218.5t-103.5 -199.5h125q60 95 91.5 200.5t31.5 217.5t-31.5 217.5z" />
    <glyph glyph-name="asterisk" unicode="*" horiz-adv-x="556" 
d="M329 441l128 41l31 -98l-127 -39l84 -114l-80 -64l-87 116l-87 -116l-78 65l83 113l-128 39l32 98l126 -41l-1 136h105z" />
    <glyph glyph-name="plus" unicode="+" horiz-adv-x="725" 
d="M422 425h240v-120h-240v-239h-119v239h-240v120h240v240h119v-240z" />
    <glyph glyph-name="comma" unicode="," horiz-adv-x="304" 
d="M120 -150h-88l40 248h123z" />
    <glyph glyph-name="hyphen" unicode="-" horiz-adv-x="602" 
d="M539 428v-120h-476v120h476z" />
    <glyph glyph-name="period" unicode="." horiz-adv-x="283" 
d="M174 99v-119h-123v119h123z" />
    <glyph glyph-name="slash" unicode="/" horiz-adv-x="448" 
d="M167 -60h-121l216 836h120z" />
    <glyph glyph-name="zero" unicode="0" horiz-adv-x="616" 
d="M449.5 247.5q5.5 40.5 5.5 114.5t-5.5 113.5t-24.5 71.5q-36 64 -117 64q-83 0 -116 -63q-20 -32 -25.5 -72t-5.5 -114t5.5 -114t25.5 -72q32 -64 116 -64q82 0 117 63q19 32 24.5 72.5zM51 508q8 56 39 106q26 46 80 80.5t138 34.5t137.5 -34.5t81.5 -80.5
q31 -50 39 -105t8 -147q0 -93 -7.5 -148.5t-39.5 -105.5q-28 -47 -81.5 -81t-137.5 -34t-137.5 34.5t-80.5 80.5q-31 50 -39 107t-8 147t8 146z" />
    <glyph glyph-name="one" unicode="1" horiz-adv-x="380" 
d="M305 0h-117v591l-105 -52l-48 104l153 79h117v-722z" />
    <glyph glyph-name="two" unicode="2" horiz-adv-x="572" 
d="M212.5 590.5q31.5 19.5 67.5 19.5q24 0 51 -11q34 -15 52 -44t18 -64q0 -29 -11 -52q-7 -16 -26 -35l-321 -285v-109h486v115h-308l220 195q31 26 53 72q22 48 22 100q0 69 -38 126.5t-103 82.5q-43 20 -94 20q-68 0 -125.5 -36t-85.5 -99q-12 -22 -14 -35l102 -30
q8 20 7 18q16 32 47.5 51.5z" />
    <glyph glyph-name="three" unicode="3" horiz-adv-x="589" 
d="M514.5 300q32.5 -44 32.5 -96q0 -60 -31.5 -107.5t-89 -74.5t-132.5 -27t-132 27.5t-88 77t-31 113.5h112q0 -43 36.5 -75t102.5 -32q67 0 104.5 31.5t37.5 75.5q0 45 -34.5 76t-105.5 31h-51v106h53q59 0 93 29t34 68q0 37 -33 65t-91 28q-59 0 -91.5 -27.5t-32.5 -66.5
h-112q0 60 30 106.5t83.5 72.5t122.5 26q68 0 121.5 -25.5t83 -70t29.5 -100.5q0 -47 -29 -88t-75 -69q51 -30 83.5 -74z" />
    <glyph glyph-name="four" unicode="4" horiz-adv-x="632" 
d="M501 272h89v-113h-89v-159h-111v159h-347v108l347 455h111v-450zM390 272v279l-212 -279h212z" />
    <glyph glyph-name="five" unicode="5" horiz-adv-x="586" 
d="M429 435q54 -32 84 -86.5t30 -120.5t-32.5 -120t-89.5 -85t-127 -31q-68 0 -133.5 30.5t-101.5 81.5q-2 3 -6.5 9t-9.5 14l104 53l9 -13q21 -25 59.5 -42t78.5 -17q60 0 98 35t38 85q0 53 -38 88t-98 35q-35 0 -69 -10.5t-55 -30.5l-84 47l9 364h406v-114h-298l-5 -166
q27 14 51.5 20t56.5 6q69 0 123 -32z" />
    <glyph glyph-name="six" unicode="6" horiz-adv-x="576" 
d="M356.5 123.5q30.5 15.5 47.5 40.5t17 54t-17 54t-47.5 40t-68.5 15t-68.5 -15t-47.5 -40t-17 -54t17 -54t47.5 -40.5t68.5 -15.5t68.5 15.5zM66 315l271 411l101 -64l-150 -223q26 1 56 -4q82 -12 135.5 -70.5t53.5 -146.5q0 -63 -32.5 -114.5t-88.5 -81t-124 -29.5
t-124 29.5t-88.5 81t-32.5 114.5q0 48 23 97z" />
    <glyph glyph-name="seven" unicode="7" horiz-adv-x="586" 
d="M543 595l-348 -599l-105 54l311 544h-358v117h500v-116z" />
    <glyph glyph-name="eight" unicode="8" horiz-adv-x="591" 
d="M366.5 114.5q31.5 15.5 49 40.5t17.5 53q0 27 -17.5 52t-49 40t-70.5 15t-70 -15t-49 -40t-18 -52q0 -28 17.5 -53t49 -40.5t70.5 -15.5t70.5 15.5zM73 304q30 46 81 74q-42 27 -66.5 67t-24.5 86q0 55 32.5 99.5t86.5 70t114 25.5q61 0 114.5 -25.5t86 -70t32.5 -99.5
q0 -47 -24.5 -86.5t-66.5 -66.5q51 -29 81 -74.5t30 -99.5q0 -60 -35 -108.5t-93.5 -76t-124.5 -27.5t-124.5 27.5t-93.5 76t-35 108.5q0 54 30 100zM215 468.5q32 -26.5 81 -26.5t81 26.5t32 61.5q0 22 -14.5 42.5t-40.5 33t-58 12.5t-58 -12.5t-40.5 -33t-14.5 -42.5
q0 -35 32 -61.5z" />
    <glyph glyph-name="nine" unicode="9" horiz-adv-x="575" 
d="M356.5 406.5q30.5 15.5 47 41t16.5 55.5t-16.5 56t-47 41.5t-68.5 15.5t-68.5 -15.5t-47.5 -41.5t-17 -56t17 -55.5t47.5 -41t68.5 -15.5t68.5 15.5zM75.5 617.5q32.5 51.5 88.5 81t124 29.5t124 -29.5t88.5 -81t32.5 -114.5q0 -54 -23 -96l-270 -409l-102 62l148 221
q-24 -1 -66 11q-86 16 -131.5 76t-45.5 135q0 63 32.5 114.5z" />
    <glyph glyph-name="colon" unicode=":" horiz-adv-x="303" 
d="M213 566v-119h-123v119h123zM90 252h123v-119h-123v119z" />
    <glyph glyph-name="semicolon" unicode=";" horiz-adv-x="314" 
d="M224 567v-119h-123v119h123zM101 252h123l-75 -248h-88z" />
    <glyph glyph-name="less" unicode="&#x3c;" horiz-adv-x="650" 
d="M495 752l85 -86l-301 -301l301 -302l-85 -85l-387 387z" />
    <glyph glyph-name="equal" unicode="=" horiz-adv-x="682" 
d="M579 562v-118h-476v118h476zM103 287h476v-118h-476v118z" />
    <glyph glyph-name="greater" unicode="&#x3e;" horiz-adv-x="650" 
d="M155 -22l-85 85l302 302l-301 301l84 86l387 -387z" />
    <glyph glyph-name="question" unicode="?" horiz-adv-x="567" 
d="M324 99v-119h-123v119h123zM79.5 710.5q27.5 29.5 77.5 51.5t107 22q62 0 120.5 -31t95 -86t36.5 -123q0 -70 -41.5 -128t-94.5 -96q-27 -20 -37.5 -31.5t-15 -31t-4.5 -59.5h-124q0 67 15.5 110t36.5 65t55 47q86 64 86 124q0 53 -36.5 84.5t-91.5 31.5q-30 0 -52 -9.5
t-35 -21t-38 -37.5l-90 86q3 3 30.5 32.5z" />
    <glyph glyph-name="at" unicode="@" horiz-adv-x="1064" 
d="M574 218.5q27 17.5 43.5 48t16.5 67.5t-16.5 67.5t-43.5 47.5t-59 17q-31 0 -59 -17.5t-45 -47.5t-17 -67q0 -36 17 -67t45 -48.5t59 -17.5q32 0 59 17.5zM128 585q63 107 170 170t234 63q126 0 233.5 -63t170.5 -170t63 -234q0 -55 -19 -97.5t-49 -69.5
q-22 -21 -54.5 -34t-56.5 -13q-33 0 -73.5 13t-66.5 42q-75 -81 -170 -81q-57 0 -105 30.5t-76 81.5t-28 111q0 59 28 110t76 81t105 30q64 0 121 -40v40h98v-241q0 -26 19 -50t57 -24q24 0 46 14q16 10 26.5 34.5t10.5 62.5q0 97 -48 178.5t-130 129.5t-178 48
q-97 0 -178.5 -48t-129.5 -130t-48 -178t48 -178t129.5 -130t178.5 -48t181 50l57 -96q-108 -64 -238 -64q-127 0 -234 62.5t-170 169.5t-63 234t63 234z" />
    <glyph glyph-name="A" unicode="A" horiz-adv-x="860" 
d="M806 -11h-127l-81 194h-336l-80 -194h-128l310 744h132zM543 313l-112 274l-114 -274h226z" />
    <glyph glyph-name="B" unicode="B" horiz-adv-x="656" 
d="M71 -11h349q56 0 102.5 28t74 75.5t27.5 103.5q0 58 -25.5 106t-67.5 77q76 61 76 152q0 56 -27.5 102t-74 73t-102.5 27h-332v-744zM192 312h211q40 0 67.5 -29.5t27.5 -72.5q0 -40 -27.5 -67t-67.5 -27h-211v196zM192 613h198q40 0 67.5 -26.5t27.5 -66.5
q0 -38 -25.5 -62.5t-64.5 -26.5h-203v182z" />
    <glyph glyph-name="C" unicode="C" horiz-adv-x="721" 
d="M244.5 32.5q-84.5 51.5 -133.5 138.5t-49 190t49 190t133.5 138.5t184.5 51.5q75 0 141.5 -29.5t117.5 -81.5l-79 -90q-32 33 -81.5 52.5t-99.5 19.5q-65 0 -121.5 -34t-90.5 -91.5t-34 -125.5t34 -126t90.5 -92t121.5 -34q50 0 99.5 20t81.5 53l79 -90
q-51 -52 -117.5 -81.5t-141.5 -29.5q-100 0 -184.5 51.5z" />
    <glyph glyph-name="D" unicode="D" horiz-adv-x="738" 
d="M427.5 143.5q57.5 33.5 91.5 91.5t34 126t-34 126t-91.5 91.5t-125.5 33.5h-109v-502h109q68 0 125.5 33.5zM72 733h232q100 0 185.5 -50t135.5 -135.5t50 -186.5t-50 -186.5t-135.5 -135.5t-185.5 -50h-232v744z" />
    <glyph glyph-name="E" unicode="E" horiz-adv-x="610" 
d="M569 615h-390v-184h358v-119h-358v-204h390v-119h-509v744h509v-118z" />
    <glyph glyph-name="F" unicode="F" horiz-adv-x="600" 
d="M569 615h-379v-193h324v-121h-324v-312h-120v744h499v-118z" />
    <glyph glyph-name="G" unicode="G" horiz-adv-x="871" 
d="M801 369q0 -28 -3 -65q-10 -94 -60.5 -167t-129.5 -114t-171 -42q-105 0 -190 50.5t-133.5 137.5t-48.5 192q0 104 48.5 191t133.5 137.5t190 50.5q111 0 192.5 -52t124.5 -127l-106 -59q-31 49 -86 83t-125 34q-69 0 -127 -34t-92 -93.5t-34 -130.5q0 -72 34 -131
t92 -93.5t127 -34.5q46 2 95 22.5t87 61t50 98.5h-213v115h343q2 -14 2 -30z" />
    <glyph glyph-name="H" unicode="H" horiz-adv-x="746" 
d="M674 -11h-121v323h-361v-323h-120v744h120v-303h361v303h121v-744z" />
    <glyph glyph-name="I" unicode="I" horiz-adv-x="264" 
d="M192 733v-744h-120v744h120z" />
    <glyph glyph-name="J" unicode="J" horiz-adv-x="572" 
d="M471 93.5q-32 -51.5 -86.5 -81.5t-117.5 -30q-71 0 -130 36.5t-87 97.5l115 50q12 -28 40 -45.5t63 -17.5q48 0 81.5 31t33.5 74v525h120v-526q0 -62 -32 -113.5z" />
    <glyph glyph-name="K" unicode="K" horiz-adv-x="756" 
d="M405 408l299 -419h-150l-232 326l-130 -147v-179h-121v743h121v-387l344 388h163z" />
    <glyph glyph-name="L" unicode="L" horiz-adv-x="601" 
d="M191 108h359v-119h-480v744h121v-625z" />
    <glyph glyph-name="M" unicode="M" horiz-adv-x="942" 
d="M868 -11h-121v561l-219 -396h-115l-221 396v-561h-121v744h163l236 -427l234 427h164v-744z" />
    <glyph glyph-name="N" unicode="N" horiz-adv-x="824" 
d="M755 -11h-156l-408 578v-578h-122v744h152l414 -577v577h120v-744z" />
    <glyph glyph-name="O" unicode="O" horiz-adv-x="875" 
d="M562.5 136.5q58.5 34.5 93 94t34.5 130.5q0 70 -34.5 129.5t-93 94t-125.5 34.5t-125 -34.5t-92.5 -94t-34.5 -129.5q0 -71 34.5 -130.5t92.5 -94t125 -34.5t125.5 34.5zM115.5 550.5q50.5 87.5 136 139t185.5 51.5t186 -51.5t136.5 -139t50.5 -189.5q0 -103 -50.5 -190
t-136.5 -138.5t-186 -51.5t-185.5 51.5t-136 138.5t-50.5 190q0 102 50.5 189.5z" />
    <glyph glyph-name="P" unicode="P" horiz-adv-x="683" 
d="M447.5 376q28.5 17 45.5 46t17 63q0 52 -36.5 88.5t-88.5 36.5h-194v-251h194q34 0 62.5 17zM71 733h312q67 0 123.5 -33.5t89.5 -90.5t33 -124t-33 -123.5t-89.5 -90t-123.5 -33.5h-192v-249h-120v744z" />
    <glyph glyph-name="Q" unicode="Q" horiz-adv-x="879" 
d="M681 292.5q9 27.5 11 67.5q0 71 -35 130.5t-93.5 94.5t-126.5 35q-67 0 -125.5 -35t-93 -94.5t-34.5 -130.5q0 -70 34.5 -129.5t93 -94.5t125.5 -35q43 1 75 11.5t61 31.5l-94 100l88 82l86 -95q19 34 28 61.5zM115.5 550q50.5 87 136 138.5t185.5 51.5t186 -51.5
t136.5 -138.5t50.5 -190q-2 -62 -20.5 -113t-52.5 -105l77 -81l-87 -82l-72 78q-50 -39 -101 -57.5t-117 -18.5q-100 0 -185.5 51.5t-136 138.5t-50.5 189q0 103 50.5 190z" />
    <glyph glyph-name="R" unicode="R" horiz-adv-x="715" 
d="M446.5 375.5q28.5 17.5 45.5 46.5t17 63q0 52 -36.5 88.5t-88.5 36.5h-195v-252h195q34 0 62.5 17.5zM72 733h325q63 0 116 -31.5t84 -87.5t31 -125q-4 -86 -47.5 -144t-113.5 -89l196 -267h-148l-181 249h-145v-249h-117v744z" />
    <glyph glyph-name="S" unicode="S" horiz-adv-x="700" 
d="M506 567.5q-12 11.5 -34 23.5q-53 32 -118 32q-12 0 -34 -2q-69 -10 -87 -58q-6 -13 -6 -28q0 -27 16 -49q16 -16 35 -30q21 -13 59 -24l49 -14q90 -19 138 -42t74 -50q21 -21 36 -55.5t15 -75.5q0 -39 -15 -76q-14 -30 -42.5 -58.5t-60.5 -47.5q-24 -12 -53.5 -22
t-53.5 -13q-25 -3 -51 -3q-95 0 -182 50q-52 30 -84 71t-43 72l118 42q5 -16 22.5 -37.5t48.5 -39.5q32 -18 58.5 -26t55.5 -8q19 0 41 3q24 3 65 21q31 18 47 46q6 20 6 32q0 23 -16 37q-15 16 -46.5 29.5t-107.5 30.5l-53 14q-59 17 -95 42q-29 20 -58 49
q-21 25 -33.5 61.5t-12.5 76.5q0 38 13 70q26 63 80.5 95t106.5 39q21 3 45 3q46 0 94.5 -11.5t92.5 -37.5q65 -38 97 -93l-106 -64q-9 14 -21 25.5z" />
    <glyph glyph-name="T" unicode="T" horiz-adv-x="634" 
d="M583 615h-204v-626h-121v626h-207v118h532v-118z" />
    <glyph glyph-name="U" unicode="U" horiz-adv-x="739" 
d="M628.5 133.5q-41.5 -69.5 -110.5 -110.5t-146 -41q-81 0 -150 40.5t-109 110t-40 152.5v448h121v-445q0 -52 23.5 -94t64.5 -66t90 -24q47 0 87.5 24t65 66.5t24.5 93.5v445h121v-448q0 -82 -41.5 -151.5z" />
    <glyph glyph-name="V" unicode="V" horiz-adv-x="854" 
d="M498 -11h-131l-313 744h128l252 -597l241 597h125z" />
    <glyph glyph-name="W" unicode="W" horiz-adv-x="1179" 
d="M885 -11h-118l-167 542l-187 -542h-115l-237 744h123l176 -556l174 555h129l167 -555l165 556h123z" />
    <glyph glyph-name="X" unicode="X" horiz-adv-x="827" 
d="M489 362l284 -373h-146l-213 278l-211 -278h-149l285 373l-285 371h149l211 -277l212 276l147 1z" />
    <glyph glyph-name="Y" unicode="Y" horiz-adv-x="818" 
d="M468 280v-291h-119v291l-295 453h142l212 -326l214 326h142z" />
    <glyph glyph-name="Z" unicode="Z" horiz-adv-x="699" 
d="M667 620l-466 -513h466v-118h-635v112l461 513h-461v119h635v-113z" />
    <glyph glyph-name="bracketleft" unicode="[" horiz-adv-x="383" 
d="M318 665h-105v-610h105v-116h-215v841h215v-115z" />
    <glyph glyph-name="backslash" unicode="\" horiz-adv-x="448" 
d="M186 776l216 -836h-121l-215 836h120z" />
    <glyph glyph-name="bracketright" unicode="]" horiz-adv-x="383" 
d="M280 780v-841h-215v116h105v610h-105v115h215z" />
    <glyph glyph-name="asciicircum" unicode="^" horiz-adv-x="545" 
d="M495 377l11 -26h-108l-126 261l-125 -261h-108l177 376h113z" />
    <glyph glyph-name="underscore" unicode="_" horiz-adv-x="572" 
d="M532 2v-118h-478v118h478z" />
    <glyph glyph-name="grave" unicode="`" horiz-adv-x="308" 
d="M205 783l40 -239h-88l-75 239h123z" />
    <glyph glyph-name="a" unicode="a" horiz-adv-x="642" 
d="M377 116q32 20 52 55t20 77t-20 77.5t-52 55.5t-69 20t-69.5 -20t-52 -55.5t-19.5 -77.5t19.5 -77t52 -55t69.5 -20t69 20zM80.5 380q33.5 61 91 97.5t126.5 36.5q44 0 85 -20.5t72 -61.5v85h120v-527h-120v75q-30 -41 -71.5 -62t-85.5 -21q-69 0 -126.5 36.5t-91 97.5
t-33.5 132t33.5 132z" />
    <glyph glyph-name="b" unicode="b" horiz-adv-x="627" 
d="M393.5 124q30.5 19 48.5 52.5t18 74.5q0 40 -18 73t-48.5 52.5t-66.5 19.5t-66.5 -19.5t-48.5 -52.5t-18 -73q0 -41 18 -74.5t48.5 -52.5t66.5 -19t66.5 19zM67 754h118v-326q30 41 71.5 60.5t80.5 19.5q67 0 122.5 -35t88 -94.5t32.5 -127.5q0 -69 -32.5 -128.5t-88 -95
t-122.5 -35.5q-98 0 -152 81v-74l-118 1v754z" />
    <glyph glyph-name="c" unicode="c" horiz-adv-x="497" 
d="M398 150l87 -83q-38 -38 -87 -59.5t-103 -21.5q-74 0 -135.5 37.5t-97.5 101t-36 138.5t36 138.5t97.5 101t135.5 37.5q54 0 103 -21.5t87 -59.5l-87 -83q-46 46 -107 46q-41 0 -76 -21t-55.5 -57.5t-20.5 -80.5t20.5 -80.5t55.5 -57.5t76 -21q61 0 107 46z" />
    <glyph glyph-name="d" unicode="d" horiz-adv-x="629" 
d="M366.5 123.5q30.5 18.5 49 52t18.5 75.5q0 41 -18.5 74.5t-49 52t-66.5 18.5q-35 0 -65.5 -19.5t-49 -52.5t-18.5 -73t18.5 -73.5t49 -53t65.5 -19.5q36 0 66.5 18.5zM79.5 378.5q32.5 59.5 88 95t121.5 35.5q40 0 82 -20t70 -61v326h121v-754h-121v73q-27 -43 -69.5 -62
t-82.5 -19q-66 0 -121.5 35.5t-88 95t-32.5 128.5q0 68 32.5 127.5z" />
    <glyph glyph-name="e" unicode="e" horiz-adv-x="600" 
d="M380 380.5q-36 25.5 -78 25.5q-43 0 -82 -26t-58 -71h274q-20 46 -56 71.5zM81 386q34 61 92.5 97.5t128.5 36.5q69 0 118 -31t74 -64.5t31 -47.5q26 -51 26 -124q0 -26 -3 -46h-385q11 -48 51.5 -78t88.5 -30q37 0 66.5 17t47.5 41l105 -46q-32 -52 -88.5 -88
t-131.5 -36q-70 0 -128.5 36.5t-92.5 97.5t-34 132q0 72 34 133z" />
    <glyph glyph-name="f" unicode="f" horiz-adv-x="450" 
d="M121 -15v420h-88v118h88v73q0 49 23.5 92.5t63.5 69t87 25.5q37 0 72 -14t56 -34l-82 -92q-19 16 -46 16q-50 0 -50 -63v-73h157v-118h-157v-420h-124z" />
    <glyph glyph-name="g" unicode="g" horiz-adv-x="642" 
d="M376 122q32 20 51 55t19 77q0 41 -19 75t-51 54t-69 20t-68.5 -20t-50.5 -54t-19 -75q0 -42 19 -77t50.5 -55t68.5 -20t69 20zM80.5 387.5q33.5 60.5 91 95.5t126.5 35q41 0 85 -18.5t72 -62.5v84h120v-501q0 -86 -39.5 -148.5t-104 -95t-139.5 -32.5q-70 0 -132.5 32
t-99.5 87l101 68q24 -37 61 -54t70 -17q34 0 71.5 15.5t64.5 48.5t27 81v66q-32 -45 -75 -65t-82 -20q-69 0 -126.5 35t-91 96t-33.5 136q0 74 33.5 134.5z" />
    <glyph glyph-name="h" unicode="h" horiz-adv-x="617" 
d="M411 356q-28 35 -87 35q-37 0 -67 -19t-47.5 -50t-17.5 -66v-269h-120v767h120v-312q24 33 64 51t71 18q71 0 122.5 -31.5t78.5 -84t27 -115.5v-293h-116v277q0 57 -28 92z" />
    <glyph glyph-name="i" unicode="i" horiz-adv-x="265" 
d="M196 772v-122h-122v122h122zM77 521h117v-534h-117v534z" />
    <glyph glyph-name="j" unicode="j" horiz-adv-x="251" 
d="M3 -128q6 -2 15 -2q19 0 32.5 12t13.5 37v602h124v-602q0 -50 -26 -89.5t-65.5 -61.5t-78.5 -22q-29 0 -60 11.5t-53 32.5l86 90q6 -6 12 -8zM65 772h122v-122h-122v122z" />
    <glyph glyph-name="k" unicode="k" horiz-adv-x="582" 
d="M190 288l202 226h150l-208 -231l201 -296h-137l-141 213l-67 -80v-133h-119v767h119v-466z" />
    <glyph glyph-name="l" unicode="l" horiz-adv-x="235" 
d="M177 754v-767h-119v767h119z" />
    <glyph glyph-name="m" unicode="m" horiz-adv-x="942" 
d="M743 338q-15 27 -40 43.5t-55 16.5q-51 0 -82.5 -30t-31.5 -86v-292h-118v292q0 48 -27.5 81.5t-80.5 33.5q-49 0 -82.5 -32t-33.5 -82v-293h-119v527h119v-78q18 38 52.5 58t77.5 20q58 0 96 -27t67 -78q77 105 171 105q61 0 111 -26.5t80 -78t30 -123.5v-299h-119v292
q0 29 -15 56z" />
    <glyph glyph-name="n" unicode="n" horiz-adv-x="613" 
d="M406.5 366q-31.5 34 -94.5 34q-54 0 -91 -36t-36 -89v-285h-119v527h119v-74q20 37 59.5 55.5t79.5 18.5q63 0 116 -25t85 -75.5t32 -123.5v-303h-119v285q0 57 -31.5 91z" />
    <glyph glyph-name="o" unicode="o" horiz-adv-x="596" 
d="M368.5 119q32.5 20 51.5 55.5t19 78.5t-19.5 78t-51.5 55t-70 20t-70 -20t-51.5 -55t-19.5 -78t19 -78.5t51.5 -55.5t70.5 -20t70.5 20zM80.5 385.5q33.5 61.5 91 98t126.5 36.5t127 -36.5t91 -98t33 -132.5t-33 -132.5t-91 -98t-127 -36.5t-126.5 36.5t-91 98
t-33.5 132.5t33.5 132.5z" />
    <glyph glyph-name="p" unicode="p" horiz-adv-x="649" 
d="M412.5 116q33.5 21 53.5 57.5t20 80.5q0 43 -20 79t-53.5 57t-71.5 21t-71 -21t-53 -57t-20 -79q0 -44 20 -80.5t53 -57.5t71 -21t71.5 21zM72 521h120v-83q25 42 73.5 62.5t84.5 20.5q69 0 127 -36.5t91.5 -98t33.5 -132.5q0 -72 -33.5 -133.5t-91.5 -98t-127 -36.5
q-38 0 -85.5 20t-72.5 64v-330h-120v781z" />
    <glyph glyph-name="q" unicode="q" horiz-adv-x="644" 
d="M379 116q33 21 53 57.5t20 80.5q0 43 -20 79t-53 57t-71 21t-71.5 -21t-53.5 -57t-20 -79q0 -44 20 -80.5t53.5 -57.5t71.5 -21t71 21zM80.5 386.5q33.5 61.5 91.5 98t127 36.5q36 0 84.5 -20.5t73.5 -62.5v83h120v-781h-120v330q-25 -44 -72.5 -64t-85.5 -20
q-69 0 -127 36.5t-91.5 98t-33.5 133.5q0 71 33.5 132.5z" />
    <glyph glyph-name="r" unicode="r" horiz-adv-x="369" 
d="M250.5 515.5q46.5 24.5 86.5 24.5v-114q-45 0 -81 -23t-56 -59t-20 -71v-283h-119v550h119v-95q24 46 70.5 70.5z" />
    <glyph glyph-name="s" unicode="s" horiz-adv-x="509" 
d="M321 387q-29 20 -67 20q-26 0 -41.5 -4.5t-23.5 -15.5q-4 -14 -4 -15q0 -4 3 -7l4 -4q5 -8 18 -15q22 -14 37 -18l32 -10q63 -17 97 -35t53 -39q17 -18 26.5 -42.5t9.5 -51.5q0 -34 -16 -66q-13 -23 -31.5 -39.5t-45.5 -31.5q-41 -20 -82 -23q-8 -1 -24 -1q-71 0 -138 40
q-54 34 -83 98l110 56q9 -17 16.5 -27.5t22.5 -20.5q25 -15 42.5 -19t44.5 -2q15 0 33 9q13 7 17.5 10.5t7.5 9.5q4 5 4 9q0 3 -6 9q-8 9 -26 17t-66 20l-33 11q-35 9 -66 31q-28 16 -48 39q-16 18 -25 43.5t-9 53.5q0 34 13 64q25 48 73 69.5t98 21.5q82 0 141 -40
q42 -27 66 -68l-106 -64q-10 16 -28 28z" />
    <glyph glyph-name="t" unicode="t" horiz-adv-x="460" 
d="M290 -10q-43 0 -81 23.5t-61.5 63t-23.5 84.5v261h-91v116h91v172h124v-172h139v-116h-139v-261q0 -47 42 -47q10 0 16 3t17 14l86 -90q-54 -51 -119 -51z" />
    <glyph glyph-name="u" unicode="u" horiz-adv-x="614" 
d="M217.5 142q31.5 -34 94.5 -34q56 0 92 35.5t35 88.5v287h119v-529h-119v74q-21 -39 -59 -56.5t-80 -17.5q-63 0 -116 25t-85 75.5t-32 123.5v303h119v-285q0 -56 31.5 -90z" />
    <glyph glyph-name="v" unicode="v" horiz-adv-x="628" 
d="M364 -10h-105l-222 527h131l146 -371l146 371h131z" />
    <glyph glyph-name="w" unicode="w" horiz-adv-x="834" 
d="M639 -10h-114l-106 356l-105 -356h-114l-158 527h125l93 -341l97 341h123l100 -341l91 341h125z" />
    <glyph glyph-name="x" unicode="x" horiz-adv-x="613" 
d="M380 253l192 -263h-142l-123 165l-122 -165h-143l190 263l-195 264h144l126 -170l125 170h144z" />
    <glyph glyph-name="y" unicode="y" horiz-adv-x="615" 
d="M276 -260h-124l90 237l-205 540h128l142 -385l142 385h129z" />
    <glyph glyph-name="z" unicode="z" horiz-adv-x="534" 
d="M489 398l-280 -289h280v-119h-444v114l281 294h-281v119h444v-119z" />
    <glyph glyph-name="braceleft" unicode="{" horiz-adv-x="382" 
d="M138.5 439.5q15.5 24.5 15.5 47.5v155q0 70 37.5 102t87.5 32h37v-106h-37q-11 0 -14 -1t-4 -8t-1 -19v-155q0 -22 -9 -57.5t-40 -67.5q31 -32 40 -68t9 -57v-156q0 -12 1 -19t4 -8t14 -1h37v-106h-37q-50 0 -87.5 32t-37.5 102v156q0 23 -15.5 47.5t-73.5 24.5v106
q58 0 73.5 24.5z" />
    <glyph glyph-name="bar" unicode="|" horiz-adv-x="337" 
d="M216 735v-749h-95v749h95z" />
    <glyph glyph-name="braceright" unicode="}" horiz-adv-x="382" 
d="M242.5 284.5q-15.5 -24.5 -15.5 -47.5v-156q0 -70 -37.5 -102t-87.5 -32h-37v106h37q11 0 14 1t4 8t1 19v156q0 21 9 57t40 68q-31 32 -40 67.5t-9 57.5v155q0 12 -1 19t-4 8t-14 1h-37v106h37q50 0 87.5 -32t37.5 -102v-155q0 -23 15.5 -47.5t73.5 -24.5v-106
q-58 0 -73.5 -24.5z" />
    <glyph glyph-name="asciitilde" unicode="~" horiz-adv-x="739" 
d="M139 459q51 33 104 34q30 0 59.5 -10t47.5 -21l38 -20l13 -9l34 -17q4 -2 11 -6.5t15.5 -7t19.5 -2.5q19 0 41 14t32 45l118 -40q-17 -50 -52 -82t-73.5 -46.5t-65.5 -14.5t-57.5 10.5t-44.5 17.5l-42 21l-15 11l-34 18q-13 8 -20.5 11t-24.5 4q-20 -1 -35 -11t-25 -39
l-118 40q23 67 74 100z" />
    <glyph glyph-name="yen" unicode="&#xa5;" horiz-adv-x="797" 
d="M506 428h123v-109h-177v-64h173v-109h-173v-146h-108v146h-179v109h179v64h-175v109h122l-218 294h126l199 -259l195 259h131z" />
    <glyph glyph-name="copyright" unicode="&#xa9;" horiz-adv-x="1084" 
d="M146.5 580q61.5 105 166.5 166.5t229 61.5t229 -61.5t166.5 -166.5t61.5 -229q0 -123 -61.5 -228t-166.5 -166.5t-229 -61.5t-229 61.5t-166.5 166.5t-61.5 228q0 124 61.5 229zM236 174.5q48 -81.5 129 -129.5t177 -48t177 48t129 129.5t48 176.5q0 96 -47.5 177.5
t-129 129t-177.5 47.5t-177.5 -47.5t-129 -129t-47.5 -177.5q0 -95 48 -176.5zM346 477.5q32 56.5 87.5 90t120.5 33.5q49 0 93 -18.5t77 -52.5l-73 -69q-20 20 -46 31.5t-54 11.5q-38 0 -71 -20t-52.5 -54.5t-19.5 -75.5t19.5 -75.5t52 -54.5t71.5 -20q28 0 54 11.5
t46 31.5l73 -69q-33 -33 -77 -52.5t-93 -19.5q-65 0 -120.5 33.5t-87.5 90.5t-32 124t32 123.5z" />
    <glyph glyph-name="uni00AD" unicode="&#xad;" horiz-adv-x="602" 
d="M539 428v-120h-476v120h476z" />
    <glyph glyph-name="registered" unicode="&#xae;" horiz-adv-x="529" 
d="M299 536h60l-50 68q18 8 28.5 24.5t10.5 37.5q0 30 -20 49.5t-49 19.5h-95v-199h48v60h23zM72 745.5q30 51.5 81.5 81.5t111.5 30t111 -30t81 -81t30 -112t-30 -111.5t-80.5 -80.5t-111.5 -30t-112 30t-81 81t-30 111t30 111.5zM123.5 552q21.5 -37 59 -58.5t82.5 -21.5
q44 0 81.5 21.5t59 58.5t21.5 82t-21.5 82.5t-59 59t-81.5 21.5q-45 0 -82.5 -21.5t-59 -59t-21.5 -82.5t21.5 -82zM232 691h45q10 0 17 -7t7 -18q0 -10 -7 -17t-17 -7h-45v49z" />
    <glyph glyph-name="degree" unicode="&#xb0;" horiz-adv-x="449" 
d="M280.5 810q30.5 -18 48 -49t17.5 -67t-17.5 -66.5t-48 -48t-66.5 -17.5q-37 0 -67.5 17.5t-48.5 48t-18 66.5t18 67t48.5 49t67.5 18q36 0 66.5 -18zM177 658q15 -15 36 -15q22 0 37 15t15 37q0 21 -15 36t-37 15q-21 0 -36 -15t-15 -36q0 -22 15 -37z" />
    <glyph glyph-name="plusminus" unicode="&#xb1;" horiz-adv-x="654" 
d="M386 511h185v-119h-185v-184h-119v184h-184v119h184v184h119v-184zM83 123h488v-119h-488v119z" />
    <glyph glyph-name="uni00B2" unicode="&#xb2;" horiz-adv-x="376" 
d="M141 792q19 11 42 11q18 0 33 -7q20 -9 30 -26t10 -37q0 -18 -9 -36q-5 -14 -16 -23l-197 -168v-68h308v75h-190l135 113q23 23 33 45q13 29 13 60q0 43 -24 80.5t-65 56.5q-32 13 -61 13q-44 0 -81.5 -23.5t-55.5 -64.5q-8 -16 -9 -23l72 -20l4 11q9 20 28 31z" />
    <glyph glyph-name="uni00B3" unicode="&#xb3;" horiz-adv-x="376" 
d="M324.5 615q17.5 -27 17.5 -60q0 -57 -42.5 -93.5t-111.5 -36.5q-70 0 -112 37.5t-42 98.5h73q0 -27 20.5 -45t60.5 -18q41 0 62 17.5t21 44.5q0 28 -19.5 46t-62.5 18h-31v70h32q35 0 54.5 17t19.5 41q0 23 -18.5 38t-53.5 15q-36 0 -54 -15t-18 -39h-73q0 57 40 92
t105 35q63 0 103 -34t40 -87q0 -30 -15.5 -55.5t-42.5 -41.5q30 -18 47.5 -45z" />
    <glyph glyph-name="paragraph" unicode="&#xb6;" horiz-adv-x="1000" 
d="M499 -52h80v715h59v-715h80v812h-219q-65 0 -119.5 -32t-86.5 -86.5t-32 -119.5t32 -119.5t86.5 -86.5t119.5 -32v-336z" />
    <glyph glyph-name="periodcentered" unicode="&#xb7;" horiz-adv-x="503" 
d="M319 433v-131h-135v131h135z" />
    <glyph glyph-name="uni00B9" unicode="&#xb9;" horiz-adv-x="238" 
d="M204 428h-77v360l-62 -27l-31 70l93 43h77v-446z" />
    <glyph glyph-name="multiply" unicode="&#xd7;" horiz-adv-x="722" 
d="M570 70l-209 206l-208 -206l-84 83l209 209l-209 206l85 85l206 -211l209 211l84 -85l-207 -208l206 -208z" />
    <glyph glyph-name="divide" unicode="&#xf7;" horiz-adv-x="725" 
d="M427 650v-128h-127v128h127zM63 425h599v-120h-599v120zM300 209h127v-127h-127v127z" />
    <glyph glyph-name="uni2015" unicode="&#x2015;" horiz-adv-x="1000" 
d="M935 428v-120h-870v120h870z" />
    <glyph glyph-name="quoteleft" unicode="&#x2018;" horiz-adv-x="308" 
d="M157 784h88l-40 -240h-123z" />
    <glyph glyph-name="quoteright" unicode="&#x2019;" horiz-adv-x="307" 
d="M150 544h-88l41 239h122z" />
    <glyph glyph-name="quotedblleft" unicode="&#x201c;" horiz-adv-x="501" 
d="M346 781h89l-41 -239h-122zM160 784h88l-40 -240h-123z" />
    <glyph glyph-name="quotedblright" unicode="&#x201d;" horiz-adv-x="501" 
d="M154 544h-88l41 239h122zM293 781h123l-75 -240h-88z" />
    <glyph glyph-name="twodotenleader" unicode="&#x2025;" horiz-adv-x="664" 
d="M220 426v-117h-123v117h123zM444 426h123v-117h-123v117z" />
    <glyph glyph-name="ellipsis" unicode="&#x2026;" horiz-adv-x="834" 
d="M224 426v-117h-124v117h124zM355 427h123v-119h-123v119zM611 426h124v-117h-124v117z" />
    <glyph glyph-name="minute" unicode="&#x2032;" horiz-adv-x="307" 
d="M150 544h-88l41 239h122z" />
    <glyph glyph-name="second" unicode="&#x2033;" horiz-adv-x="501" 
d="M154 544h-88l41 239h122zM293 781h123l-75 -240h-88z" />
    <glyph glyph-name="uni203B" unicode="&#x203b;" horiz-adv-x="911" 
d="M794 313h-107v107h107v-107zM201 698l254 -254l253 255l81 -82l-253 -253l252 -253l-81 -81l-252 253l-254 -254l-79 80l252 254l-254 254zM121 419h107v-105h-107v105zM403 128h107v-107h-107v107zM403 714h107v-107h-107v107z" />
    <glyph glyph-name="uni2074" unicode="&#x2074;" horiz-adv-x="408" 
d="M321 597h53v-76h-53v-97h-76v97h-211v73l213 281h74v-278zM245 597v157l-118 -157h118z" />
    <glyph glyph-name="uni2081" unicode="&#x2081;" horiz-adv-x="240" 
d="M206 -157h-78v360l-63 -27l-31 70l94 44h78v-447z" />
    <glyph glyph-name="uni2082" unicode="&#x2082;" horiz-adv-x="376" 
d="M140.5 202.5q19.5 11.5 41.5 11.5q16 0 34 -8q20 -8 30 -25t10 -37q0 -19 -9 -37q-5 -14 -16 -23l-197 -168v-68h308v75h-190l135 114q23 23 33 44q13 29 13 60q0 43 -24 80.5t-65 56.5q-29 13 -61 13q-44 0 -81.5 -23.5t-55.5 -64.5q-8 -16 -9 -23l72 -20l4 11
q8 20 27.5 31.5z" />
    <glyph glyph-name="uni2083" unicode="&#x2083;" horiz-adv-x="376" 
d="M324.5 35q17.5 -27 17.5 -60q0 -57 -42.5 -93.5t-111.5 -36.5q-70 0 -112 37.5t-42 98.5h73q0 -27 20.5 -44.5t60.5 -17.5q41 0 62 17.5t21 44.5t-19.5 45t-62.5 18h-31v71h32q35 0 54.5 16.5t19.5 40.5q0 23 -18.5 38t-53.5 15q-36 0 -54 -15t-18 -38h-73q0 57 40 92
t105 35q63 0 103 -34.5t40 -87.5q0 -30 -15.5 -55t-42.5 -42q30 -18 47.5 -45z" />
    <glyph glyph-name="uni2084" unicode="&#x2084;" horiz-adv-x="408" 
d="M321 13h53v-76h-53v-97h-76v97h-211v73l213 281h74v-278zM245 13v156l-118 -156h118z" />
    <glyph glyph-name="uni20A9" unicode="&#x20a9;" horiz-adv-x="1088" 
d="M910 442h102v-110h-127l-77 -332h-131l-74 332h-118l-73 -332h-131l-77 332h-128v110h102l-65 280h103l64 -280h132l64 279h137l64 -279h132l64 280h102zM346 154l41 178h-82zM579 442l-35 156l-34 -156h69zM743 154l41 178h-82z" />
    <glyph glyph-name="Euro" unicode="&#x20ac;" horiz-adv-x="806" 
d="M301 48q-88 61 -130 160h-114v111h86q-2 24 -2 37t2 37h-86v110h113q42 99 130.5 160.5t196.5 61.5q73 0 138 -28.5t114 -79.5l-74 -86q-32 32 -83 51.5t-101 19.5q-56 0 -105.5 -26.5t-82.5 -72.5h119v-110h-163q-3 -18 -3 -37t3 -37h163v-111h-119q33 -46 82.5 -72.5
t105.5 -26.5q50 0 101 19.5t83 52.5l74 -86q-49 -51 -114 -79.5t-138 -28.5q-108 0 -196 61z" />
    <glyph glyph-name="uni2103" unicode="&#x2103;" horiz-adv-x="1080" 
d="M285.5 811q30.5 -18 48.5 -49t18 -68q0 -35 -18 -65.5t-48.5 -48t-66.5 -17.5t-67 17.5t-49 48t-18 65.5q0 37 18 68t49 49t67 18t66.5 -18zM182.5 659q15.5 -15 35.5 -15q22 0 37 15t15 36q0 22 -15 37t-37 15q-20 0 -35.5 -15t-15.5 -37q0 -21 15.5 -36zM428.5 550
q47.5 87 129.5 138.5t180 51.5q72 0 138 -29.5t115 -81.5l-84 -93q-30 32 -80 51.5t-96 19.5q-60 0 -112 -32.5t-83 -89t-31 -124.5t31 -124.5t83 -89.5t112 -33q46 0 96 19.5t80 51.5l84 -91q-49 -53 -114.5 -83t-138.5 -30q-98 0 -180 51.5t-129.5 139t-47.5 189.5
t47.5 189z" />
    <glyph glyph-name="uni2109" unicode="&#x2109;" horiz-adv-x="1071" 
d="M284.5 808q30.5 -18 48.5 -49t18 -67t-18 -66.5t-48.5 -48t-66.5 -17.5t-66.5 18t-48.5 48t-18 66t18 67t48.5 49t66.5 18t66.5 -18zM182 656q15 -15 37 -15q20 0 35.5 15.5t15.5 35.5q0 22 -15.5 37.5t-35.5 15.5q-22 0 -37 -15.5t-15 -37.5q0 -21 15 -36zM469 730h498
v-116h-366v-193h319v-121h-319v-312h-132v742z" />
    <glyph glyph-name="trademark" unicode="&#x2122;" horiz-adv-x="969" 
d="M401 783h-126v-369h-85v369h-125v84h336v-84zM452 860h84l143 -240l141 240h84v-446h-84v296l-109 -202h-65l-110 202v-296h-84v446z" />
    <glyph glyph-name="arrowleft" unicode="&#x2190;" horiz-adv-x="1000" 
d="M212 363l387 388l85 -87l-301 -301l302 -301l-86 -86z" />
    <glyph glyph-name="arrowup" unicode="&#x2191;" horiz-adv-x="1000" 
d="M113 210l387 386l387 -386l-86 -85l-301 301l-302 -302z" />
    <glyph glyph-name="arrowright" unicode="&#x2192;" horiz-adv-x="1000" 
d="M315 62l302 301l-301 301l85 87l387 -388l-387 -387z" />
    <glyph glyph-name="arrowdown" unicode="&#x2193;" horiz-adv-x="1000" 
d="M113 478l85 85l302 -302l301 301l86 -84l-387 -387z" />
    <glyph glyph-name="arrowboth" unicode="&#x2194;" horiz-adv-x="1000" 
d="M36 365l234 235l74 -73l-107 -106l520 -4l-106 106l76 76l236 -233l-236 -236l-71 73l105 106l-519 4l106 -106l-78 -77z" />
    <glyph glyph-name="arrowupdn" unicode="&#x2195;" horiz-adv-x="1000" 
d="M265 197l73 71l106 -105l4 386l-106 -107l-77 78l235 234l235 -234l-73 -74l-106 107l-4 -386l106 105l76 -75l-233 -236z" />
    <glyph glyph-name="uni2196" unicode="&#x2196;" horiz-adv-x="1000" 
d="M659 722v-120h-321l532 -529l-84 -84l-530 531v-321h-120v523h523z" />
    <glyph glyph-name="uni2197" unicode="&#x2197;" horiz-adv-x="1000" 
d="M867 199h-121v321l-530 -531l-83 84l532 529h-322v120h524v-523z" />
    <glyph glyph-name="uni2198" unicode="&#x2198;" horiz-adv-x="1000" 
d="M343 0v120h322l-532 529l83 84l530 -532v323h121v-524h-524z" />
    <glyph glyph-name="uni2199" unicode="&#x2199;" horiz-adv-x="1000" 
d="M136 524h120v-323l530 532l84 -84l-532 -529h321v-120h-523v524z" />
    <glyph glyph-name="uni2219" unicode="&#x2219;" horiz-adv-x="527" 
d="M331 433v-131h-135v131h135z" />
    <glyph glyph-name="circleplus" unicode="&#x2295;" horiz-adv-x="1084" 
d="M146.5 580q61.5 105 166.5 166.5t229 61.5t229 -61.5t166.5 -166.5t61.5 -229q0 -123 -61.5 -228t-166.5 -166.5t-229 -61.5t-229 61.5t-166.5 166.5t-61.5 228q0 124 61.5 229zM236 174.5q48 -81.5 129 -129.5t177 -48t177 48t129 129.5t48 176.5q0 96 -47.5 177.5
t-129 129t-177.5 47.5t-177.5 -47.5t-129 -129t-47.5 -177.5q0 -95 48 -176.5zM317 395h176v176h101v-176h176v-102h-176v-175h-101v175h-176v102z" />
    <glyph glyph-name="uni2296" unicode="&#x2296;" horiz-adv-x="1084" 
d="M146.5 580q61.5 105 166.5 166.5t229 61.5t229 -61.5t166.5 -166.5t61.5 -229q0 -123 -61.5 -228t-166.5 -166.5t-229 -61.5t-229 61.5t-166.5 166.5t-61.5 228q0 124 61.5 229zM236 174.5q48 -81.5 129 -129.5t177 -48t177 48t129 129.5t48 176.5q0 96 -47.5 177.5
t-129 129t-177.5 47.5t-177.5 -47.5t-129 -129t-47.5 -177.5q0 -95 48 -176.5zM309 395h453v-102h-453v102z" />
    <glyph glyph-name="circlemultiply" unicode="&#x2297;" horiz-adv-x="1084" 
d="M146.5 580q61.5 105 166.5 166.5t229 61.5t229 -61.5t166.5 -166.5t61.5 -229q0 -123 -61.5 -228t-166.5 -166.5t-229 -61.5t-229 61.5t-166.5 166.5t-61.5 228q0 124 61.5 229zM236 174.5q48 -81.5 129 -129.5t177 -48t177 48t129 129.5t48 176.5q0 96 -47.5 177.5
t-129 129t-177.5 47.5t-177.5 -47.5t-129 -129t-47.5 -177.5q0 -95 48 -176.5zM390 119l153 154l153 -153l71 72l-152 153l152 152l-71 73l-153 -154l-154 153l-70 -72l152 -152l-152 -153z" />
    <glyph glyph-name="uni2460" unicode="&#x2460;" horiz-adv-x="1064" 
d="M119.5 573.5q59.5 101.5 161.5 161.5t222 60t222 -60t162 -162t60 -222t-60 -222t-162 -161.5t-222 -59.5t-222 59.5t-161.5 161.5t-59.5 222q0 121 59.5 222.5zM204.5 178.5q46.5 -79.5 126 -126t172.5 -46.5t172.5 46.5t126 126t46.5 172.5t-46.5 172.5t-126 126
t-172.5 46.5t-172.5 -46.5t-126 -126t-46.5 -172.5t46.5 -172.5zM476 593h82v-478h-82v389l-68 -30l-31 73z" />
    <glyph glyph-name="uni2461" unicode="&#x2461;" horiz-adv-x="1064" 
d="M119.5 573.5q59.5 101.5 161.5 161.5t222 60t222 -60t162 -162t60 -222t-60 -222t-162 -161.5t-222 -59.5t-222 59.5t-161.5 161.5t-59.5 222q0 121 59.5 222.5zM204.5 178.5q46.5 -79.5 126 -126t172.5 -46.5t172.5 46.5t126 126t46.5 172.5t-46.5 172.5t-126 126
t-172.5 46.5t-172.5 -46.5t-126 -126t-46.5 -172.5t46.5 -172.5zM424 470l4 11q11 22 32.5 35t45.5 13q17 0 35 -8q22 -9 34 -28.5t12 -41.5q0 -20 -9 -38q-8 -14 -18 -24l-199 -191v-71h320v79h-199l136 133q19 17 35 46q14 33 14 64q0 46 -25.5 86t-69.5 59q-31 14 -67 14
q-46 0 -86 -25t-60 -68q-6 -12 -9 -24z" />
    <glyph glyph-name="uni2462" unicode="&#x2462;" horiz-adv-x="1064" 
d="M119.5 573.5q59.5 101.5 161.5 161.5t222 60t222 -60t162 -162t60 -222t-60 -222t-162 -161.5t-222 -59.5t-222 59.5t-161.5 161.5t-59.5 222q0 121 59.5 222.5zM204.5 178.5q46.5 -79.5 126 -126t172.5 -46.5t172.5 46.5t126 126t46.5 172.5t-46.5 172.5t-126 126
t-172.5 46.5t-172.5 -46.5t-126 -126t-46.5 -172.5t46.5 -172.5zM416 255q0 -30 23 -50t67 -20q43 0 67 20t24 49q0 30 -22 50t-68 20h-34v73h34q40 0 61 18.5t21 44.5t-20.5 43t-58.5 17t-58.5 -17t-20.5 -43h-76q0 61 43.5 98.5t111.5 37.5q67 0 110 -37t43 -94
q0 -33 -16.5 -59.5t-46.5 -44.5q33 -18 51.5 -47.5t18.5 -64.5q0 -61 -45.5 -100.5t-118.5 -39.5q-75 0 -120 40t-45 106h75z" />
    <glyph glyph-name="uni2463" unicode="&#x2463;" horiz-adv-x="1064" 
d="M119.5 573.5q59.5 101.5 161.5 161.5t222 60t222 -60t162 -162t60 -222t-60 -222t-162 -161.5t-222 -59.5t-222 59.5t-161.5 161.5t-59.5 222q0 121 59.5 222.5zM204.5 178.5q46.5 -79.5 126 -126t172.5 -46.5t172.5 46.5t126 126t46.5 172.5t-46.5 172.5t-126 126
t-172.5 46.5t-172.5 -46.5t-126 -126t-46.5 -172.5t46.5 -172.5zM303 293l229 301h72v-297h58v-77h-58v-104h-72v104h-229v73zM532 297v185l-138 -185h138z" />
    <glyph glyph-name="uni2464" unicode="&#x2464;" horiz-adv-x="1064" 
d="M119.5 573.5q59.5 101.5 161.5 161.5t222 60t222 -60t162 -162t60 -222t-60 -222t-162 -161.5t-222 -59.5t-222 59.5t-161.5 161.5t-59.5 222q0 121 59.5 222.5zM204.5 178.5q46.5 -79.5 126 -126t172.5 -46.5t172.5 46.5t126 126t46.5 172.5t-46.5 172.5t-126 126
t-172.5 46.5t-172.5 -46.5t-126 -126t-46.5 -172.5t46.5 -172.5zM409 231l7 -9q13 -17 37.5 -28t52.5 -11q42 0 69.5 23.5t27.5 58.5t-28 58.5t-69 23.5q-23 0 -44 -8.5t-35 -24.5l-59 42l5 233h272v-77h-199l-3 -103q18 9 34 13t35 4q47 0 85 -21.5t60 -58t22 -81.5
q0 -44 -23.5 -81t-63 -58.5t-86.5 -21.5q-44 0 -88 20.5t-68 53.5q-2 4 -5.5 8t-5.5 8z" />
    <glyph glyph-name="uni2465" unicode="&#x2465;" horiz-adv-x="1064" 
d="M119.5 573.5q59.5 101.5 161.5 161.5t222 60t222 -60t162 -162t60 -222t-60 -222t-162 -161.5t-222 -59.5t-222 59.5t-161.5 161.5t-59.5 222q0 121 59.5 222.5zM204.5 178.5q46.5 -79.5 126 -126t172.5 -46.5t172.5 46.5t126 126t46.5 172.5t-46.5 172.5t-126 126
t-172.5 46.5t-172.5 -46.5t-126 -126t-46.5 -172.5t46.5 -172.5zM349 330l176 272l68 -42l-97 -147q11 1 21.5 -0.5t16.5 -2.5q56 -7 94.5 -46.5t38.5 -97.5q0 -42 -22.5 -76t-61 -54t-83.5 -20t-83 20t-60.5 54t-22.5 76q0 31 15 64zM437.5 215.5q24.5 -20.5 62.5 -20.5
q39 0 63.5 20.5t24.5 50.5t-24 50t-63 20t-63.5 -20t-24.5 -50t24.5 -50.5z" />
    <glyph glyph-name="uni2466" unicode="&#x2466;" horiz-adv-x="1064" 
d="M119.5 573.5q59.5 101.5 161.5 161.5t222 60t222 -60t162 -162t60 -222t-60 -222t-162 -161.5t-222 -59.5t-222 59.5t-161.5 161.5t-59.5 222q0 121 59.5 222.5zM204.5 178.5q46.5 -79.5 126 -126t172.5 -46.5t172.5 46.5t126 126t46.5 172.5t-46.5 172.5t-126 126
t-172.5 46.5t-172.5 -46.5t-126 -126t-46.5 -172.5t46.5 -172.5zM348 574h328v-75l-227 -406l-71 37l205 367l-235 -2v79z" />
    <glyph glyph-name="uni2467" unicode="&#x2467;" horiz-adv-x="1064" 
d="M119.5 573.5q59.5 101.5 161.5 161.5t222 60t222 -60t162 -162t60 -222t-60 -222t-162 -161.5t-222 -59.5t-222 59.5t-161.5 161.5t-59.5 222q0 121 59.5 222.5zM204.5 178.5q46.5 -79.5 126 -126t172.5 -46.5t172.5 46.5t126 126t46.5 172.5t-46.5 172.5t-126 126
t-172.5 46.5t-172.5 -46.5t-126 -126t-46.5 -172.5t46.5 -172.5zM360.5 319q20.5 30 54.5 49q-28 18 -45 44.5t-17 57.5q0 36 21.5 65.5t56.5 46.5t75 17t75 -16.5t56 -46.5t21 -66q0 -31 -16.5 -57.5t-45.5 -44.5q34 -19 54.5 -49t20.5 -66q0 -40 -23 -72.5t-61 -51
t-81 -18.5q-44 0 -82 18.5t-61 51t-23 72.5q0 36 20.5 66zM442.5 205.5q24.5 -20.5 63.5 -20.5t63 20.5t24 49.5t-24 49t-63 20t-63.5 -20t-24.5 -49t24.5 -49.5zM453.5 429q19.5 -16 52.5 -16q32 0 51.5 16t19.5 39q0 24 -19.5 40.5t-51.5 16.5q-33 0 -52.5 -16.5
t-19.5 -40.5q0 -23 19.5 -39z" />
    <glyph glyph-name="uni2468" unicode="&#x2468;" horiz-adv-x="1064" 
d="M119.5 573.5q59.5 101.5 161.5 161.5t222 60t222 -60t162 -162t60 -222t-60 -222t-162 -161.5t-222 -59.5t-222 59.5t-161.5 161.5t-59.5 222q0 121 59.5 222.5zM204.5 178.5q46.5 -79.5 126 -126t172.5 -46.5t172.5 46.5t126 126t46.5 172.5t-46.5 172.5t-126 126
t-172.5 46.5t-172.5 -46.5t-126 -126t-46.5 -172.5t46.5 -172.5zM369 519q23 34 61 54t83 20q44 0 82 -20t61 -54t23 -76q0 -37 -15 -63l-176 -271l-68 41l96 147q-16 -1 -44 6q-57 10 -91.5 50t-34.5 90q0 42 23 76zM449 392q25 -21 63 -21t63 21t25 51q0 31 -24.5 52
t-62.5 21q-39 0 -64 -21t-25 -52q0 -30 25 -51z" />
    <glyph glyph-name="uni2469" unicode="&#x2469;" horiz-adv-x="1064" 
d="M119.5 573.5q59.5 101.5 161.5 161.5t222 60t222 -60t162 -162t60 -222t-60 -222t-162 -161.5t-222 -59.5t-222 59.5t-161.5 161.5t-59.5 222q0 121 59.5 222.5zM204.5 178.5q46.5 -79.5 126 -126t172.5 -46.5t172.5 46.5t126 126t46.5 172.5t-46.5 172.5t-126 126
t-172.5 46.5t-172.5 -46.5t-126 -126t-46.5 -172.5t46.5 -172.5zM340 554h69v-409h-69v336l-53 -24l-26 60zM455.5 432.5q4.5 31.5 22.5 60.5q15 26 44.5 45.5t76.5 19.5t77 -19.5t44 -45.5q18 -29 22.5 -60t4.5 -82q0 -53 -4.5 -85t-22.5 -60q-14 -26 -44 -45.5t-77 -19.5
q-46 0 -76 19.5t-45 45.5q-18 29 -22.5 61.5t-4.5 83.5q0 50 4.5 81.5zM521.5 287q3.5 -23 14.5 -42q7 -15 23 -25.5t40 -10.5q44 0 64 36q11 18 14 41.5t3 64.5q0 40 -3 63t-14 42q-20 35 -64 35q-25 0 -40.5 -10.5t-22.5 -24.5q-11 -19 -14.5 -42t-3.5 -63q0 -41 3.5 -64z
" />
    <glyph glyph-name="uni246A" unicode="&#x246a;" horiz-adv-x="1064" 
d="M119.5 573.5q59.5 101.5 161.5 161.5t222 60t222 -60t162 -162t60 -222t-60 -222t-162 -161.5t-222 -59.5t-222 59.5t-161.5 161.5t-59.5 222q0 121 59.5 222.5zM204.5 178.5q46.5 -79.5 126 -126t172.5 -46.5t172.5 46.5t126 126t46.5 172.5t-46.5 172.5t-126 126
t-172.5 46.5t-172.5 -46.5t-126 -126t-46.5 -172.5t46.5 -172.5zM377 556h68v-409h-68v336l-54 -24l-26 60zM600 556h68v-409h-68v336l-54 -24l-26 60z" />
    <glyph glyph-name="uni246B" unicode="&#x246b;" horiz-adv-x="1064" 
d="M281 -32.5q-102 59.5 -161.5 161.5t-59.5 222q0 121 59.5 222.5t161.5 161.5t222 60t222 -60t162 -162t60 -222t-60 -222t-162 -161.5t-222 -59.5t-222 59.5zM204.5 178.5q46.5 -79.5 126 -126t172.5 -46.5t172.5 46.5t126 126t46.5 172.5t-46.5 172.5t-126 126
t-172.5 46.5t-172.5 -46.5t-126 -126t-46.5 -172.5t46.5 -172.5zM338 557h68v-408h-68v335l-54 -24l-26 60zM460 483q17 38 50 59t73 21q28 0 59 -13q37 -15 58 -49t21 -74q0 -29 -11 -54q-10 -23 -29 -39l-116 -117h169v-65h-271v60l170 163q11 11 15 21q8 16 8 32
q0 20 -10.5 37t-30.5 25q-14 7 -30 7q-21 0 -40 -11t-28 -30q-1 -2 -2 -4.5t-1 -6.5l-62 18z" />
    <glyph glyph-name="uni246C" unicode="&#x246c;" horiz-adv-x="1064" 
d="M119.5 573.5q59.5 101.5 161.5 161.5t222 60t222 -60t162 -162t60 -222t-60 -222t-162 -161.5t-222 -59.5t-222 59.5t-161.5 161.5t-59.5 222q0 121 59.5 222.5zM204.5 178.5q46.5 -79.5 126 -126t172.5 -46.5t172.5 46.5t126 126t46.5 172.5t-46.5 172.5t-126 126
t-172.5 46.5t-172.5 -46.5t-126 -126t-46.5 -172.5t46.5 -172.5zM340 556h68v-409h-68v336l-54 -24l-26 60zM515 268q0 -25 19.5 -42t57.5 -17q37 0 57.5 17t20.5 42q0 26 -18.5 43.5t-58.5 17.5h-29v62h29q34 0 52 15.5t18 38.5q0 21 -17.5 36t-49.5 15q-33 0 -50.5 -14.5
t-17.5 -37.5h-64q0 52 36.5 84t95.5 32q56 0 93 -31.5t37 -79.5q0 -28 -14 -51.5t-40 -37.5q28 -15 44.5 -40.5t16.5 -55.5q0 -53 -39 -86t-102 -33t-102 34t-39 89h64z" />
    <glyph glyph-name="uni246D" unicode="&#x246d;" horiz-adv-x="1064" 
d="M119.5 573.5q59.5 101.5 161.5 161.5t222 60t222 -60t162 -162t60 -222t-60 -222t-162 -161.5t-222 -59.5t-222 59.5t-161.5 161.5t-59.5 222q0 121 59.5 222.5zM204.5 178.5q46.5 -79.5 126 -126t172.5 -46.5t172.5 46.5t126 126t46.5 172.5t-46.5 172.5t-126 126
t-172.5 46.5t-172.5 -46.5t-126 -126t-46.5 -172.5t46.5 -172.5zM342 556h68v-409h-68v336l-54 -24l-26 60zM444 299l195 258h61v-255h50v-65h-50v-90h-61v90h-195v62zM639 302v159l-119 -159h119z" />
    <glyph glyph-name="uni246E" unicode="&#x246e;" horiz-adv-x="1064" 
d="M119.5 573.5q59.5 101.5 161.5 161.5t222 60t222 -60t162 -162t60 -222t-60 -222t-162 -161.5t-222 -59.5t-222 59.5t-161.5 161.5t-59.5 222q0 121 59.5 222.5zM204.5 178.5q46.5 -79.5 126 -126t172.5 -46.5t172.5 46.5t126 126t46.5 172.5t-46.5 172.5t-126 126
t-172.5 46.5t-172.5 -46.5t-126 -126t-46.5 -172.5t46.5 -172.5zM342 555h68v-409h-68v336l-54 -24l-26 60zM510 247l6 -8q12 -14 33 -23.5t44 -9.5q36 0 59.5 20t23.5 50q0 31 -24 51.5t-59 20.5q-19 0 -37.5 -7.5t-30.5 -21.5l-51 37l5 198h232v-66h-171l-2 -89
q30 15 60 15q61 0 101 -39.5t40 -98.5q0 -37 -19.5 -68.5t-53.5 -50t-74 -18.5q-38 0 -75 17.5t-57 46.5l-9 14z" />
    <glyph glyph-name="uni24C3" unicode="&#x24c3;" horiz-adv-x="934" 
d="M561 521v-207l-188 207h-78v-322h77v210l190 -210h78v322h-79zM152.5 542.5q48.5 83.5 132 132.5t182.5 49t182.5 -49t132 -132.5t48.5 -182.5t-48.5 -182.5t-132 -132t-182.5 -48.5t-182.5 48.5t-132 132t-48.5 182.5t48.5 182.5z" />
    <glyph glyph-name="uni24D8" unicode="&#x24d8;" horiz-adv-x="1084" 
d="M146.5 580q61.5 105 166.5 166.5t229 61.5t229 -61.5t166.5 -166.5t61.5 -229q0 -123 -61.5 -228t-166.5 -166.5t-229 -61.5t-229 61.5t-166.5 166.5t-61.5 228q0 124 61.5 229zM236 174.5q48 -81.5 129 -129.5t177 -48t177 48t129 129.5t48 176.5q0 96 -47.5 177.5
t-129 129t-177.5 47.5t-177.5 -47.5t-129 -129t-47.5 -177.5q0 -95 48 -176.5zM438 455h161v-379h-95v289h-66v90zM495 619h112v-110h-112v110z" />
    <glyph glyph-name="filledbox" unicode="&#x25a0;" horiz-adv-x="1000" 
d="M870 733v-740h-740v740h740z" />
    <glyph glyph-name="uni25A1" unicode="&#x25a1;" horiz-adv-x="1000" 
d="M870 733v-740h-740v740h740zM760 103v520h-520v-520h520z" />
    <glyph glyph-name="uni25A3" unicode="&#x25a3;" horiz-adv-x="1000" 
d="M351 214l1 297h296v-296zM130 733h740v-740h-740v740zM760 103v520h-520v-520h520z" />
    <glyph glyph-name="triagup" unicode="&#x25b2;" horiz-adv-x="1000" 
d="M907 28h-813l407 666z" />
    <glyph glyph-name="uni25B3" unicode="&#x25b3;" horiz-adv-x="1000" 
d="M94 28l406 666l407 -666h-813zM748 122l-248 406l-248 -406h496z" />
    <glyph glyph-name="uni25B6" unicode="&#x25b6;" horiz-adv-x="1000" 
d="M187 -43v812l666 -406z" />
    <glyph glyph-name="uni25B7" unicode="&#x25b7;" horiz-adv-x="1000" 
d="M187 776l666 -405l-666 -407v812zM686 371l-407 247v-496z" />
    <glyph glyph-name="triagdn" unicode="&#x25bc;" horiz-adv-x="1000" 
d="M94 694h813l-406 -666z" />
    <glyph glyph-name="uni25BD" unicode="&#x25bd;" horiz-adv-x="1000" 
d="M500 28l-406 666h813zM500 195l248 407h-496z" />
    <glyph glyph-name="uni25C0" unicode="&#x25c0;" horiz-adv-x="1000" 
d="M813 769v-812l-666 406z" />
    <glyph glyph-name="uni25C1" unicode="&#x25c1;" horiz-adv-x="1000" 
d="M147 371l666 405v-812zM721 122v496l-407 -247z" />
    <glyph glyph-name="uni25C6" unicode="&#x25c6;" horiz-adv-x="1000" 
d="M943 363l-443 -443l-443 443l443 443z" />
    <glyph glyph-name="uni25C7" unicode="&#x25c7;" horiz-adv-x="1000" 
d="M943 363l-443 -443l-443 443l443 443zM500 52l312 311l-312 312l-311 -312z" />
    <glyph glyph-name="uni25C8" unicode="&#x25c8;" horiz-adv-x="1000" 
d="M321 363l179 178l178 -178l-178 -178zM500 806l443 -443l-443 -443l-443 443zM500 52l311 311l-311 312l-312 -312z" />
    <glyph glyph-name="circle" unicode="&#x25cb;" horiz-adv-x="1000" 
d="M637 123q63 37 100 100t37 137t-37 137t-100 100t-137 37t-137 -37t-100 -100t-37 -137t37 -137t100 -100t137 -37t137 37zM179 546q50 85 135 135t186 50t186 -50t135 -135t50 -186t-50 -186t-135 -135t-186 -50t-186 50t-135 135t-50 186t50 186z" />
    <glyph glyph-name="uni25CE" unicode="&#x25ce;" horiz-adv-x="1000" 
d="M637 123q63 37 100 100t37 137t-37 137t-100 100t-137 37q-75 0 -138 -37t-99.5 -100t-36.5 -137t36.5 -137t99.5 -100t138 -37q74 0 137 37zM179 546q50 85 135 135t186 50t186 -50t135 -135t50 -186t-50 -186t-135 -135t-186 -50t-186 50t-135 135t-50 186t50 186z
M339.5 453.5q24.5 42.5 67 67t93.5 24.5t93.5 -24.5t67 -67t24.5 -93.5t-24.5 -93.5t-67 -67t-93.5 -24.5t-93.5 24.5t-67 67t-24.5 93.5t24.5 93.5zM416.5 277q34.5 -35 83.5 -35q48 0 82.5 35t34.5 83t-34.5 83t-82.5 35q-49 0 -83.5 -35t-34.5 -83t34.5 -83z" />
    <glyph glyph-name="uni25CF" unicode="&#x25cf;" horiz-adv-x="1000" 
d="M314 39q-85 50 -135 135t-50 186t50 186t135 135t186 50t186 -50t135 -135t50 -186t-50 -186t-135 -135t-186 -50t-186 50z" />
    <glyph glyph-name="uni25D0" unicode="&#x25d0;" horiz-adv-x="1000" 
d="M637 123q63 37 100 100t37 137t-37 137t-100 100t-137 37v-548q74 0 137 37zM179 546q50 85 135 135t186 50t186 -50t135 -135t50 -186t-50 -186t-135 -135t-186 -50t-186 50t-135 135t-50 186t50 186z" />
    <glyph glyph-name="uni25D1" unicode="&#x25d1;" horiz-adv-x="1000" 
d="M363 597q-63 -37 -100 -100t-37 -137t37 -137t100 -100t137 -37v548q-74 0 -137 -37zM179 546q50 85 135 135t186 50t186 -50t135 -135t50 -186t-50 -186t-135 -135t-186 -50t-186 50t-135 135t-50 186t50 186z" />
    <glyph glyph-name="uni2605" unicode="&#x2605;" horiz-adv-x="1000" 
d="M613 487l316 -26l-246 -193l82 -319l-264 176l-265 -176l82 319l-246 193l316 26l113 293z" />
    <glyph glyph-name="uni2606" unicode="&#x2606;" horiz-adv-x="1000" 
d="M439 417l-178 -14l137 -108l-46 -184l149 99l148 -99l-46 184l137 108l-178 14l-61 161zM386 488l115 300l114 -300l321 -25l-249 -197l82 -325l-268 179l-269 -179l82 325l-249 197z" />
    <glyph glyph-name="uni260E" unicode="&#x260e;" horiz-adv-x="1000" 
d="M596 -17q63 -35 99 -35q16 0 26.5 5.5t18.5 12.5t11 9l77 65q44 37 44 64q0 11 -5.5 20t-12.5 16l-10 10l-75 76q-38 39 -68 39q-22 0 -41 -21l-44 -45q-65 65 -107 116l-16 18q-35 44 -53 69.5t-52 79.5l52 32q14 9 22 20t8 27q0 28 -24 65l-58 88q-2 3 -10 14.5
t-17.5 18t-20.5 6.5q-25 0 -64 -31l-80 -61q-2 -2 -14 -12t-18 -24.5t-6 -34.5q0 -32 14 -84q18 -68 69 -144t106 -147q147 -176 249 -232z" />
    <glyph glyph-name="uni260F" unicode="&#x260f;" horiz-adv-x="1000" 
d="M226 347q-55 82 -74 153q-14 53 -14 90q0 34 10 50.5t21 25t14 11.5l80 61q46 36 78 36q21 0 34.5 -12t20.5 -22.5l9 -13.5l58 -89q27 -40 27 -75q0 -42 -39 -66l-34 -21q29 -44 46 -67.5t47 -60.5q5 -7 31 -38t75 -80l28 29q25 27 57 27q40 0 83 -44l75 -76
q2 -2 12 -12.5t16 -23t6 -25.5q0 -38 -52 -80l-77 -66q-3 -2 -13.5 -11t-24 -14.5t-29.5 -5.5q-43 0 -112 38q-106 58 -254 237q-50 63 -105 145zM291.5 382.5q50.5 -75.5 97.5 -133.5q53 -64 112 -124.5t120 -93.5l24 -14q14 -8 24.5 -13t17.5 -5q5 0 12.5 4.5t16.5 11.5
l77 66q9 8 14.5 13t5.5 8t-8 11l-74 76q-10 10 -16.5 16t-9.5 6q-2 0 -7 -5l-81 -84q-75 76 -103.5 107t-61.5 71q-31 39 -56 74t-83 125l98 60q6 3 6 7q0 5 -17 30l-57 89q-7 10 -10 10t-9.5 -4.5t-14.5 -11.5l-80 -61q-13 -10 -17.5 -16t-4.5 -14t8 -35l9 -34
q17 -61 67.5 -136.5z" />
    <glyph glyph-name="uni261C" unicode="&#x261c;" horiz-adv-x="1000" 
d="M377 24h-13q-37 0 -62 25t-25 58q0 19 10 39q-17 12 -27 30t-10 38q0 19 10 39q-16 11 -25 29.5t-9 38.5q0 12 3 22h-92q-39 0 -65.5 22t-26.5 59t26.5 59t65.5 22h301l-41 40q-26 28 -26 65q0 39 26 65q27 27 65 27t65 -27l101 -101q29 -29 66.5 -44.5t78.5 -15.5h104
q32 0 55.5 -23.5t23.5 -55.5v-240q0 -28 -15 -51t-40 -34l-68 -31q-133 -56 -265 -56h-191v1zM108.5 410q1.5 -3 8.5 -4t20 -1h255v-62h-79q-15 0 -20 -4.5t-5 -17.5t5.5 -18t19.5 -5h114v-63h-84q-17 0 -24 -5t-7 -16t5.5 -16t20.5 -5h136v-62h-110q-13 0 -19 -5.5
t-6 -18.5q0 -11 5.5 -16t19.5 -5h133v-1h71q119 0 240 51l67 31q13 5 16 9.5t3 18.5v240q0 13 -2 15t-15 2h-104q-53 0 -102.5 20.5t-86.5 57.5l-101 101q-14 14 -21 14t-21 -14q-12 -13 -12 -21q0 -9 12 -21l150 -146h-454q-13 0 -20 -1t-8.5 -4t-1.5 -14t1.5 -14z" />
    <glyph glyph-name="uni261D" unicode="&#x261d;" horiz-adv-x="1000" 
d="M458 471v255q0 13 -1 20t-4 8.5t-13 1.5q-11 0 -14.5 -1.5t-4.5 -8.5t-1 -20v-454l-146 150q-12 13 -20 13t-21 -13q-14 -14 -14 -21t14 -21l101 -101q37 -37 57 -86t20 -103v-104q0 -13 2 -15t15 -2h240q14 0 19 3t10 16l31 67q51 121 51 240v146h-1v58q0 14 -5 19.5
t-16 5.5q-13 0 -18.5 -6t-5.5 -19v-110h-62v136q0 15 -5 20.5t-17 5.5q-11 0 -16 -7t-5 -24v-84h-63v114q0 15 -5 20.5t-18 5.5q-12 0 -17 -5.5t-5 -20.5v-79h-62zM168.5 366.5q-7.5 17.5 -7.5 34.5q0 37 28 65q26 26 65 26t64 -26l40 -41v301q0 39 22.5 65.5t59.5 26.5
t58.5 -26.5t21.5 -65.5v-91q11 3 22 3q20 0 38.5 -9.5t30.5 -25.5q18 10 38 10t38.5 -10t30.5 -27q18 10 39 10q33 0 58 -25t25 -62v-13h1v-191q0 -132 -56 -265l-31 -68q-11 -25 -34.5 -40t-51.5 -15h-240q-32 0 -55.5 23.5t-23.5 55.5v104q0 41 -15.5 79t-43.5 66
l-101 101q-13 13 -20.5 30.5z" />
    <glyph glyph-name="uni261E" unicode="&#x261e;" horiz-adv-x="1000" 
d="M609 405h255q13 0 20 1t8.5 4t1.5 14t-1.5 14t-8.5 4t-20 1h-454l150 146q12 12 12 21q0 8 -12 21q-14 14 -21 14t-21 -14l-101 -101q-37 -37 -86.5 -57.5t-102.5 -20.5h-104q-13 0 -15 -2t-2 -15v-240q0 -14 3 -18.5t16 -9.5l67 -31q121 -51 240 -51l121 1h83
q14 0 19.5 5t5.5 16q0 13 -6 18.5t-19 5.5h-110v62h136q15 0 20.5 5t5.5 16t-7 16t-24 5h-84v63h114q14 0 20 5t6 18t-5.5 17.5t-20.5 4.5h-79v62zM45 435q0 32 23.5 55.5t55.5 23.5h104q41 0 78.5 15.5t66.5 44.5l101 101q27 27 65 27t65 -27q26 -25 26 -65q0 -39 -26 -65
l-41 -40h301q39 0 65.5 -22t26.5 -59t-26.5 -59t-65.5 -22h-91q3 -10 3 -22q0 -20 -9.5 -38.5t-25.5 -30.5q10 -18 10 -38t-10 -38t-27 -30q10 -20 10 -39q0 -33 -25 -58t-62 -25l-204 -1q-132 0 -265 56l-68 31q-25 11 -40 34t-15 51v240z" />
    <glyph glyph-name="uni261F" unicode="&#x261f;" horiz-adv-x="1000" 
d="M840 261v-35q0 -37 -25 -62t-58 -25q-21 0 -39 10q-12 -17 -30.5 -27t-38.5 -10t-39 11q-11 -16 -29.5 -25.5t-38.5 -9.5q-11 0 -22 3v-92q0 -39 -21.5 -65.5t-58.5 -26.5t-59.5 26.5t-22.5 65.5v301l-40 -41q-13 -13 -29.5 -19.5t-34.5 -6.5q-37 0 -65 26
q-13 13 -20.5 30.5t-7.5 34.5q0 37 28 65l101 101q28 28 43.5 66t15.5 79v104q0 32 23.5 55.5t55.5 23.5h240q28 0 51.5 -15t34.5 -40l31 -68q55 -130 55 -265l1 -169h-1zM254 290q7 0 20 13l146 150v-454q0 -13 1 -20t4.5 -8.5t14.5 -1.5q10 0 13 1.5t4 8.5t1 20v255h62
v-79q0 -14 4.5 -19.5t17.5 -5.5t18 5.5t5 19.5v114h63v-84q0 -17 5 -24t16 -7q12 0 17 5.5t5 20.5v136h62v-110q0 -13 5.5 -19t18.5 -6q11 0 16 5.5t5 19.5l1 83l-1 121q0 118 -50 240l-31 67q-5 13 -10 16t-19 3h-240q-13 0 -15 -2t-2 -15v-104q0 -54 -20 -103t-57 -86
l-101 -101q-14 -14 -14 -21t14 -21q15 -13 21 -13z" />
    <glyph glyph-name="spade" unicode="&#x2660;" horiz-adv-x="1000" 
d="M853 400q8 -29 8 -64q0 -29 -7 -66q-15 -70 -67 -118t-126 -48q-38 0 -70 15.5t-55 42.5l14 -204h-97l14 206q-23 -28 -55.5 -44t-71.5 -16q-73 0 -125 48t-68 118q-7 37 -7 64q0 29 8 66q22 76 81 142q48 57 102.5 105.5t129.5 108.5l40 34q19 -17 101 -88
q10 -9 52.5 -45.5t72 -65t45.5 -49.5q61 -69 81 -142z" />
    <glyph glyph-name="uni2661" unicode="&#x2661;" horiz-adv-x="1000" 
d="M806 370q18 31 28 65q7 27 7 55q0 27 -6 55q-30 126 -151 126q-38 0 -61 -14t-44 -47q-7 -10 -21.5 -40t-51.5 -113q-71 133 -86 153q-22 33 -45 47t-60 14q-119 0 -151 -126q-5 -33 -5 -57t6 -53q11 -34 28.5 -64.5t48.5 -66.5q53 -60 113 -111.5t146 -119.5l-2 2l75 63
q76 63 116.5 99.5t65.5 66.5q32 35 50 66zM170.5 692.5q60.5 53.5 144.5 53.5q54 0 96 -25.5t71 -68.5q12 -16 18 -28q5 12 17 28q28 43 70.5 68.5t96.5 25.5q57 0 103.5 -25t77.5 -67.5t43 -93.5q7 -40 7 -72q0 -35 -9 -73q-24 -81 -93 -160q-27 -32 -69 -69.5t-122 -104.5
q-82 -68 -122 -104l-46 38q-87 69 -150 123t-118 117q-67 76 -93 160q-8 35 -8 75q0 37 6 70q19 79 79.5 132.5z" />
    <glyph glyph-name="club" unicode="&#x2663;" horiz-adv-x="1000" 
d="M586 717q39 -23 62 -62t23 -85q0 -37 -14 -69.5t-39 -55.5q2 -6 2 -9q28 14 67 14q46 0 85 -23t62 -62t23 -85t-23 -85t-62 -61.5t-85 -22.5q-45 0 -85 22.5t-63 59.5h-8l17 -249h-97l17 249h-6q-22 -37 -62.5 -59.5t-85.5 -22.5q-47 0 -86 22.5t-61.5 61.5t-22.5 85
t22.5 85t61.5 62t86 23q39 0 66 -14l3 9q-25 23 -39.5 55.5t-14.5 69.5q0 46 23 85t62.5 62t85.5 23q47 0 86 -23z" />
    <glyph glyph-name="heart" unicode="&#x2665;" horiz-adv-x="1000" 
d="M738.5 182.5q-45.5 -40.5 -116.5 -99.5q-20 -17 -58.5 -49.5t-63.5 -55.5l-46 38q-90 71 -151.5 124t-115.5 115q-68 77 -92 160q-9 39 -9 74q0 32 7 70q12 51 42.5 93.5t77 67.5t103.5 25q53 0 95 -25.5t71 -68.5q11 -16 18 -27q5 11 17 27q29 43 71 68.5t95 25.5
q57 0 103.5 -25t77.5 -67.5t42 -93.5q8 -37 8 -71q0 -37 -10 -73q-22 -80 -92 -160q-28 -32 -73.5 -72.5z" />
    <glyph glyph-name="uni2669" unicode="&#x2669;" horiz-adv-x="540" 
d="M316.5 80.5q19.5 18.5 19.5 41.5q0 22 -18 38.5t-45 16.5q-31 0 -51 -20t-18 -45q3 -20 20.5 -35t42.5 -15q30 0 49.5 18.5zM102 118q0 43 23.5 79t62 57t83.5 21q31 0 68 -15v494h99v-623q0 -45 -23 -83.5t-62.5 -60.5t-87.5 -22q-40 0 -76 17.5t-59.5 48.5t-26.5 70
q-1 6 -1 17z" />
    <glyph glyph-name="musicalnote" unicode="&#x266a;" horiz-adv-x="723" 
d="M472 664q43 -94 99 -121q43 -19 70.5 -49.5t40.5 -64.5q11 -27 13 -49l2 -16v-7h-34h-60l-2 12q-2 20 -9 34q-20 45 -75 69q-31 16 -47.5 34.5t-29.5 47.5v-419v-24q-4 -41 -28 -74.5t-62 -52.5t-82 -19q-43 0 -81.5 20t-61.5 55t-23 79q0 43 23.5 79.5t62.5 57.5t84 21
q39 0 69 -16v494h98l4 -10q4 -11 5 -17q15 -42 24 -64zM222.5 80q18.5 -16 45.5 -16q28 0 47 16t21 38v10q-2 21 -19.5 36t-42.5 15q-31 0 -50.5 -19t-19.5 -43q0 -21 18.5 -37zM440 111v-1v1z" />
    <glyph glyph-name="uni266C" unicode="&#x266c;" horiz-adv-x="932" 
d="M659 421q-45 0 -84 -21t-61.5 -57t-22.5 -78q0 -45 23 -80t61 -54.5t82 -19.5q45 0 84 21t63 56.5t24 78.5v565h-71l-451 -136l-5 -437q-33 14 -63 14q-13 0 -21 -1q-41 -4 -76 -25.5t-55.5 -56t-20.5 -74.5q0 -44 23 -79t61 -54.5t81 -19.5q45 0 84.5 21t64 57t24.5 79
v498l326 100v-312q-30 15 -70 15zM187.5 158q19.5 18 48.5 18q25 0 43 -14.5t21 -35.5q2 -25 -17.5 -44.5t-51.5 -19.5q-27 0 -45 17t-18 39t19.5 40zM613 305q19 18 49 18q27 0 45 -16.5t18 -39.5q0 -22 -19.5 -40t-48.5 -18q-27 0 -45 16.5t-18 38.5q0 23 19 41z" />
    <glyph glyph-name="uni26A0" unicode="&#x26a0;" horiz-adv-x="1084" 
d="M146.5 580q61.5 105 166.5 166.5t229 61.5t229 -61.5t166.5 -166.5t61.5 -229q0 -123 -61.5 -228t-166.5 -166.5t-229 -61.5t-229 61.5t-166.5 166.5t-61.5 228q0 124 61.5 229zM236 174.5q48 -81.5 129 -129.5t177 -48t177 48t129 129.5t48 176.5q0 96 -47.5 177.5
t-129 129t-177.5 47.5t-177.5 -47.5t-129 -129t-47.5 -177.5q0 -95 48 -176.5zM605 623l-13 -372h-100l-12 372h125zM487 184h112v-107h-112v107z" />
    <glyph glyph-name="uni2713" unicode="&#x2713;" horiz-adv-x="904" 
d="M326 2l-293 359l90 73l201 -239l413 543l95 -74z" />
    <glyph glyph-name="uni3008" unicode="&#x3008;" horiz-adv-x="552" 
d="M229 359l250 -418h-121l-252 418l256 417h122z" />
    <glyph glyph-name="uni3009" unicode="&#x3009;" horiz-adv-x="552" 
d="M190 776l256 -417l-252 -418h-121l250 418l-255 417h122z" />
    <glyph glyph-name="uni300A" unicode="&#x300a;" horiz-adv-x="665" 
d="M214 356l186 -418h-106l-186 418l189 418h105zM489 774h106l-190 -418l187 -418h-106l-185 418z" />
    <glyph glyph-name="uni300B" unicode="&#x300b;" horiz-adv-x="665" 
d="M367 774l190 -418l-187 -418h-105l186 418l-188 418h104zM176 774l188 -418l-185 -418h-106l186 418l-189 418h106z" />
    <glyph glyph-name="uni300C" unicode="&#x300c;" horiz-adv-x="403" 
d="M337 678h-135v-208h-98v306h233v-98z" />
    <glyph glyph-name="uni300D" unicode="&#x300d;" horiz-adv-x="403" 
d="M66 34h135v209h98v-307h-233v98z" />
    <glyph glyph-name="uni300E" unicode="&#x300e;" horiz-adv-x="404" 
d="M338 668h-126v-210h-108v315h234v-105zM169 496v214h133v21h-155v-235h22z" />
    <glyph glyph-name="uni300F" unicode="&#x300f;" horiz-adv-x="404" 
d="M66 38h127v209h107v-315h-234v106zM257 -26v236h-22v-215h-133v-21h155z" />
    <glyph glyph-name="uni3010" unicode="&#x3010;" horiz-adv-x="352" 
d="M203 358q0 -219 85 -418h-186v836h186q-85 -199 -85 -418z" />
    <glyph glyph-name="uni3011" unicode="&#x3011;" horiz-adv-x="352" 
d="M250 776v-836h-186q85 196 85 418t-85 418h186z" />
    <glyph glyph-name="uni3014" unicode="&#x3014;" horiz-adv-x="413" 
d="M208 625v-545l140 -56l-39 -101l-206 82v694l206 82l39 -101z" />
    <glyph glyph-name="uni3015" unicode="&#x3015;" horiz-adv-x="413" 
d="M104 781l206 -82v-694l-206 -82l-39 101l141 56v545l-141 55z" />
    <glyph glyph-name="uni3131" unicode="&#x3131;" 
d="M720 609v-481h-122v382h-444v99h566z" />
    <glyph glyph-name="uni3132" unicode="&#x3132;" 
d="M426 609v-481h-123v382h-205v99h328zM469 609h312v-481h-123v382h-189v99z" />
    <glyph glyph-name="uni3133" unicode="&#x3133;" 
d="M401 607v-392q75 33 108.5 95.5t33.5 144.5v159h118v-159q0 -86 38 -151.5t122 -95.5l-65 -89q-108 43 -153 149q-47 -107 -154 -149l-48 66v-57h-122v378h-180v101h302z" />
    <glyph glyph-name="uni3134" unicode="&#x3134;" 
d="M279 608v-368h451v-98h-576v466h125z" />
    <glyph glyph-name="uni3135" unicode="&#x3135;" 
d="M235 610v-393q93 3 154 19l3 -21q68 37 98 106.5t30 158.5v29h-122v99h362v-99h-123v-29q0 -97 36.5 -170.5t120.5 -107.5l-67 -91q-104 48 -149 160q-43 -112 -144 -160l-36 48l3 -22q-53 -13 -106 -17t-134 -4h-50v494h124z" />
    <glyph glyph-name="uni3136" unicode="&#x3136;" 
d="M232 597v-373q48 2 84.5 6t72.5 14l13 -99q-54 -13 -107.5 -17t-135.5 -4h-50v473h123zM385 545h137v77h121v-77h125v-100h-383v100zM437.5 343.5q21.5 36.5 58.5 57.5t82 21t82.5 -21t59 -57.5t21.5 -82.5t-21.5 -83t-59 -57.5t-82.5 -20.5t-82 20.5t-58.5 57.5
t-21.5 83t21.5 82.5zM536 212.5q16 -17.5 42 -17.5t42.5 17.5t16.5 48.5t-16.5 48t-42.5 17t-42 -17t-16 -48t16 -48.5z" />
    <glyph glyph-name="uni3137" unicode="&#x3137;" 
d="M715 612v-100h-432v-286h440v-98h-565v484h557z" />
    <glyph glyph-name="uni3138" unicode="&#x3138;" 
d="M413 612v-100h-171v-271q96 2 174 19l13 -101q-59 -13 -116.5 -17t-140.5 -4h-51v474h292zM463 612h291v-100h-168v-275h171v-98h-294v473z" />
    <glyph glyph-name="uni3139" unicode="&#x3139;" 
d="M717 622v-293h-449v-101h463v-101h-581v299h449v97h-451v99h569z" />
    <glyph glyph-name="uni313A" unicode="&#x313a;" 
d="M417 616v-291h-184v-99q67 2 120 6.5t107 15.5l10 -98q-66 -14 -130 -18t-171 -4h-59v295h184v93h-185v100h308zM447 616h312v-487h-122v387h-190v100z" />
    <glyph glyph-name="uni313B" unicode="&#x313b;" 
d="M412 615v-291h-183v-98q58 2 103 6t93 14l11 -98q-62 -13 -120.5 -16.5t-153.5 -3.5h-55v295h182v93h-183v99h306zM456 617h324v-488h-324v488zM670 227v291h-104v-291h104z" />
    <glyph glyph-name="uni313C" unicode="&#x313c;" 
d="M412 615v-291h-183v-98q108 2 196 20l11 -98q-62 -14 -120 -17.5t-154 -3.5h-55v296h182v93h-183v99h306zM452 617h116v-144h95v144h116v-490h-327v490zM663 227v146h-95v-146h95z" />
    <glyph glyph-name="uni313D" unicode="&#x313d;" 
d="M408 615v-291h-182v-97q57 1 103.5 6t94.5 16l3 -23q64 33 93.5 94.5t29.5 139.5v160h118v-160q0 -86 36 -151.5t115 -95.5l-65 -88q-102 41 -145 146q-45 -105 -146 -146l-30 41l2 -15q-60 -15 -119 -19t-157 -4h-55v295h183v93h-185v99h306z" />
    <glyph glyph-name="uni313E" unicode="&#x313e;" 
d="M412 615v-291h-182v-97q114 3 198 22l11 -98q-61 -14 -121.5 -18.5t-154.5 -4.5h-56v295h182v93h-183v99h306zM461 616h306v-99h-184v-94h174v-99h-174v-98h192v-99h-314v489z" />
    <glyph glyph-name="uni313F" unicode="&#x313f;" 
d="M403 615v-291h-173v-97q102 1 190 22l13 -99q-59 -14 -117.5 -18t-153.5 -4h-54v295h173v93h-175v99h297zM439 226h44v289h-43v100h353v-100h-43v-289h45v-98h-356v98zM643 226v289h-52v-289h52z" />
    <glyph glyph-name="uni3140" unicode="&#x3140;" 
d="M395 615v-283h-158v-105q102 2 184 20l11 -98q-58 -14 -114.5 -17.5t-149.5 -3.5h-54v297h158v96h-160v94h283zM433 560h128v81h121v-81h120v-99h-369v99zM477 359.5q21 36.5 58 57t82 20.5t82 -20.5t58.5 -57t21.5 -81.5q0 -46 -21.5 -82.5t-58.5 -57t-82 -20.5
t-82 20.5t-58 57t-21 82.5q0 45 21 81.5zM575 230q16 -17 42 -17t42 17t16 48q0 30 -16 46.5t-42 16.5t-42 -16.5t-16 -46.5q0 -31 16 -48z" />
    <glyph glyph-name="uni3141" unicode="&#x3141;" 
d="M723 607v-473h-567v473h567zM600 233v274h-321v-274h321z" />
    <glyph glyph-name="uni3142" unicode="&#x3142;" 
d="M279 622v-143h319v143h123v-495h-564v495h122zM598 235v134h-319v-134h319z" />
    <glyph glyph-name="uni3143" unicode="&#x3143;" 
d="M236 613v-141h80v141h113v-485h-306v485h113zM316 228v143h-80v-143h80zM459 614h113v-142h80v142h113v-485h-306v485zM652 229v143h-80v-143h80z" />
    <glyph glyph-name="uni3144" unicode="&#x3144;" 
d="M677 614v-159q0 -86 37.5 -151.5t120.5 -95.5l-63 -89q-108 42 -155 150q-47 -108 -154 -150l-35 49v-40h-307v485h114v-141h80v141h113v-393q69 34 100 95.5t31 139.5v159h118zM315 228v143h-80v-143h80z" />
    <glyph glyph-name="uni3145" unicode="&#x3145;" 
d="M500 625v-134q0 -103 66.5 -178t197.5 -102l-59 -99q-95 23 -162 71t-104 118q-37 -70 -104.5 -118t-161.5 -71l-59 99q130 28 196.5 102.5t66.5 177.5v134h123z" />
    <glyph glyph-name="uni3146" unicode="&#x3146;" 
d="M348 598v-69q0 -73 23.5 -141.5t76.5 -116.5q53 48 77.5 116t24.5 142v69h124v-67q0 -98 39 -176t126 -116l-68 -90q-115 52 -161 184q-49 -140 -163 -195q-113 56 -160 196q-48 -132 -160 -185l-69 90q86 38 125 117t39 175v67h126z" />
    <glyph glyph-name="uni3147" unicode="&#x3147;" 
d="M581.5 590.5q65.5 -32.5 103.5 -90t38 -128.5q0 -72 -38 -130.5t-103.5 -91.5t-143.5 -33t-143.5 33t-103.5 91.5t-38 130.5t38 129t103.5 89.5t143.5 32.5t143.5 -32.5zM319.5 264q47.5 -41 118.5 -41t118.5 41t47.5 108q0 65 -47.5 105.5t-118.5 40.5t-118.5 -40.5
t-47.5 -105.5q0 -67 47.5 -108z" />
    <glyph glyph-name="uni3148" unicode="&#x3148;" 
d="M728 621v-99h-227v-27q0 -103 63.5 -179t187.5 -105l-57 -95q-93 25 -157 76t-98 124q-34 -73 -98.5 -124t-156.5 -76l-57 95q124 29 187.5 105t63.5 179v27h-221v99h570z" />
    <glyph glyph-name="uni3149" unicode="&#x3149;" 
d="M428 624v-99h-92q2 -103 27 -173t85 -107q60 37 85.5 107t27.5 173h-95v99h335v-99h-119q2 -104 41 -184.5t126 -119.5l-72 -98q-102 48 -150 159q-24 -61 -67.5 -103.5t-111.5 -67.5v0q-68 25 -111.5 68t-68.5 105q-47 -111 -151 -161l-71 98q87 39 125.5 119.5
t41.5 184.5h-119v99h334z" />
    <glyph glyph-name="uni314A" unicode="&#x314a;" 
d="M376 543v133h123v-133h227v-101h-215v-11q0 -87 60.5 -149t183.5 -83l-55 -97q-98 21 -164 68t-99 116q-33 -69 -98.5 -116t-163.5 -68l-56 97q123 21 183.5 83t60.5 149v11h-213v101h226z" />
    <glyph glyph-name="uni314B" unicode="&#x314b;" 
d="M728 621v-502h-125v189l-444 -30l-13 106l457 19v120h-434v98h559z" />
    <glyph glyph-name="uni314C" unicode="&#x314c;" 
d="M720 614v-100h-441v-91h434v-99h-434v-98h449v-99h-575v487h567z" />
    <glyph glyph-name="uni314D" unicode="&#x314d;" 
d="M731 613v-99h-89v-294h102v-100h-608v100h103v294h-91v99h583zM519 220v294h-157v-294h157z" />
    <glyph glyph-name="uni314E" unicode="&#x314e;" 
d="M380 576v111h123v-111h232v-101h-591v101h236zM237.5 343.5q30.5 39.5 84 61.5t119.5 22t119.5 -22t84 -61.5t30.5 -90.5q0 -50 -30.5 -90t-84 -62t-119.5 -22t-119.5 22t-84 62t-30.5 90q0 51 30.5 90.5zM364 201q30 -19 77 -19t76.5 18.5t29.5 52.5q0 33 -29.5 51.5
t-76.5 18.5t-77 -18.5t-30 -51.5t30 -52z" />
    <glyph glyph-name="uni314F" unicode="&#x314f;" 
d="M470 804v-342h185v-103h-185v-442h-125v887h125z" />
    <glyph glyph-name="uni3150" unicode="&#x3150;" 
d="M622 806v-887h-118v449h-118v-414h-117v838h117v-323h118v337h118z" />
    <glyph glyph-name="uni3151" unicode="&#x3151;" 
d="M447 805v-227h182v-103h-182v-151h182v-100h-182v-306h-124v887h124z" />
    <glyph glyph-name="uni3152" unicode="&#x3152;" 
d="M616 803v-887h-119v322h-111v-288h-117v842h117v-198h111v209h119zM497 339v152h-111v-152h111z" />
    <glyph glyph-name="uni3153" unicode="&#x3153;" 
d="M588 806v-888h-124v451h-189v102h189v335h124z" />
    <glyph glyph-name="uni3154" unicode="&#x3154;" 
d="M652 805v-887h-118v887h118zM212 470h131v319h117v-841h-117v420h-131v102z" />
    <glyph glyph-name="uni3155" unicode="&#x3155;" 
d="M590 804v-887h-124v317h-192v101h192v151h-192v102h192v216h124z" />
    <glyph glyph-name="uni3156" unicode="&#x3156;" 
d="M345 582v207h115v-842h-115v291h-144v100h144v143h-141v101h141zM530 804h118v-887h-118v887z" />
    <glyph glyph-name="uni3157" unicode="&#x3157;" 
d="M374 275v347h123v-347h345v-100h-810v100h342z" />
    <glyph glyph-name="uni3158" unicode="&#x3158;" 
d="M366 529v-297q123 7 204 17l11 -89q-209 -37 -541 -37l-13 102q102 0 217 3v301h122zM613 804h123v-345h117v-104h-117v-438h-123v887z" />
    <glyph glyph-name="uni3159" unicode="&#x3159;" 
d="M327 529v-273q93 5 153 13l10 -90q-166 -30 -441 -30l-11 101q110 0 175 2v277h114zM520 793h115v-342h68v355h119v-887h-119v432h-68v-399h-115v841z" />
    <glyph glyph-name="uni315A" unicode="&#x315a;" 
d="M417 522v-269q108 6 204 18l10 -91q-124 -21 -260.5 -28t-285.5 -7l-15 101q144 0 224 3v273h123zM667 807h125v-887h-125v887z" />
    <glyph glyph-name="uni315B" unicode="&#x315b;" 
d="M220 250v364h121v-364h197v364h122v-364h184v-100h-809v100h185z" />
    <glyph glyph-name="uni315C" unicode="&#x315c;" 
d="M844 518v-100h-343v-366h-123v366h-344v100h810z" />
    <glyph glyph-name="uni315D" unicode="&#x315d;" 
d="M815 806v-887h-125v241h-185v96h185v550h125zM356.5 433q141.5 5 269.5 20l8 -89q-106 -18 -240 -26v-353h-125v346q-111 -3 -208 -3l-15 99q169 1 310.5 6z" />
    <glyph glyph-name="uni315E" unicode="&#x315e;" 
d="M829 808v-887h-118v887h118zM275 423q124 5 217 17l10 -84q-73 -13 -167 -21v-352h-119v344q-80 -4 -164 -4l-12 95q111 0 235 5zM399 258h136v533h116v-842h-116v214h-136v95z" />
    <glyph glyph-name="uni315F" unicode="&#x315f;" 
d="M808 804v-887h-125v887h125zM371 412.5q141 4.5 267 18.5l8 -89q-110 -16 -225 -24v-334h-124v328q-103 -4 -218 -4l-16 100q167 0 308 4.5z" />
    <glyph glyph-name="uni3160" unicode="&#x3160;" 
d="M842 521v-100h-194v-369h-125v369h-178v-369h-124v369h-189v100h810z" />
    <glyph glyph-name="uni3161" unicode="&#x3161;" 
d="M842 431v-101h-810v101h810z" />
    <glyph glyph-name="uni3162" unicode="&#x3162;" 
d="M800 802v-886h-125v886h125zM370 287q131 4 253 18l7 -89q-128 -20 -264.5 -26.5t-296.5 -6.5l-13 99q183 1 314 5z" />
    <glyph glyph-name="uni3163" unicode="&#x3163;" 
d="M502 807v-887h-123v887h123z" />
    <glyph glyph-name="uni321C" unicode="&#x321c;" horiz-adv-x="1374" 
d="M113.5 133.5q-31.5 105.5 -31.5 217.5t31.5 217.5t91.5 200.5h125q-67 -94 -103.5 -199.5t-36.5 -218.5t36.5 -218.5t103.5 -199.5h-125q-60 95 -91.5 200.5zM319 316h729v-98h-313v-302h-109v302h-307v98zM492 507.5q58 30.5 90.5 72.5t37.5 89h-236v95h597v-95h-234
q5 -46 37.5 -88.5t91 -73t136.5 -41.5l-40 -95q-102 15 -176.5 63.5t-111.5 118.5q-37 -70 -111.5 -118.5t-176.5 -63.5l-40 95q78 11 136 41.5zM1147.5 132.5q36.5 105.5 36.5 218.5t-36.5 218.5t-103.5 199.5h125q60 -95 91.5 -200.5t31.5 -217.5t-31.5 -217.5
t-91.5 -200.5h-125q67 94 103.5 199.5z" />
    <glyph glyph-name="uni327C" unicode="&#x327c;" horiz-adv-x="1084" 
d="M146.5 570q61.5 105 166.5 166.5t229 61.5t229 -61.5t166.5 -166.5t61.5 -229q0 -123 -61.5 -228t-166.5 -166.5t-229 -61.5t-229 61.5t-166.5 166.5t-61.5 228q0 124 61.5 229zM236 164.5q48 -81.5 129 -129.5t177 -48t177 48t129 129.5t48 176.5q0 96 -47.5 177.5
t-129 129t-177.5 47.5t-177.5 -47.5t-129 -129t-47.5 -177.5q0 -95 48 -176.5zM442.5 607.5q41.5 23.5 93.5 23.5q41 0 84 -21.5t71.5 -62t28.5 -92.5q0 -82 -95 -160q-21 -19 -27.5 -26.5t-8.5 -18t-2 -34.5h-106q0 63 17.5 94t34.5 46t22 19q27 23 43 42.5t16 37.5
q0 33 -23 51.5t-55 18.5q-26 0 -43 -9.5t-32 -28.5l-84 64q24 33 65.5 56.5zM478 174h111v-107h-111v107z" />
    <glyph glyph-name="uniAC00" unicode="&#xac00;" 
d="M732 814v-346h126v-102h-126v-450h-125v898h125zM266.5 359q84.5 111 101.5 261h-296v101h422q0 -214 -94 -378t-307 -271l-69 95q158 81 242.5 192z" />
    <glyph glyph-name="uniAC01" unicode="&#xac01;" 
d="M735 813v-211h121v-103h-121v-207h-124v521h124zM253.5 498.5q84.5 71.5 98.5 164.5h-287v99h422q0 -177 -107.5 -297t-308.5 -173l-51 97q149 38 233.5 109.5zM139 254h596v-339h-124v241h-472v98z" />
    <glyph glyph-name="uniAC04" unicode="&#xac04;" 
d="M735 812v-252h120v-102h-120v-289h-124v643h124zM258.5 473q85.5 76 99.5 173h-294v99h429q0 -181 -107.5 -305t-308.5 -183l-52 98q148 42 233.5 118zM158 235h124v-203h484v-100h-608v303z" />
    <glyph glyph-name="uniAC07" unicode="&#xac07;" 
d="M735 813v-200h120v-102h-120v-200h-124v502h124zM254 497q84 72 98 165h-287v99h422q0 -177 -107.5 -297.5t-308.5 -173.5l-49 97q148 38 232 110zM157 270h585v-99h-462v-146h478v-99h-601v344z" />
    <glyph glyph-name="uniAC08" unicode="&#xac08;" 
d="M735 813v-180h120v-102h-120v-167h-124v449h124zM261 533q82 63 93 146h-284v99h423q0 -176 -108.5 -286t-312.5 -152l-45 101q152 29 234 92zM146 329h589v-246h-465v-61h491v-98h-613v252h464v55h-466v98z" />
    <glyph glyph-name="uniAC09" unicode="&#xac09;" 
d="M735 812v-185h121v-102h-121v-183h-124v470h124zM262.5 525q80.5 64 91.5 150h-283v99h423q0 -178 -107 -289t-315 -155l-45 101q155 30 235.5 94zM112 303h300v-229h-179v-57q98 1 145 4t90 14l11 -92q-52 -12 -111 -15.5t-195 -3.5h-59v236h177v51h-179v92zM448 303
h287v-382h-122v285h-165v97z" />
    <glyph glyph-name="uniAC0A" unicode="&#xac0a;" 
d="M392 305v-227h-173v-55q60 1 101.5 4t84.5 10l10 -94q-54 -10 -108 -12.5t-156 -2.5h-51v236h171v49h-173v92h294zM263 530q81 62 91 145h-284v99h424q0 -177 -108 -286t-315 -150l-44 100q155 30 236 92zM438 305h297v-378h-297v378zM628 17v197h-83v-197h83zM611 812
h124v-184h120v-101h-120v-182h-124v467z" />
    <glyph glyph-name="uniAC0B" unicode="&#xac0b;" 
d="M735 813v-185h120v-101h-120v-187h-124v473h124zM263 534q81 62 91 146h-284v99h424q0 -178 -107.5 -286.5t-315.5 -150.5l-44 101q155 29 236 91zM99 297h292v-223h-170v-59q61 1 101.5 4t82.5 12l9 -91q-55 -9 -107 -11.5t-155 -2.5h-51v229h169v51h-171v91zM435 306
h111v-95h77v95h112v-380h-300v380zM623 21v98h-77v-98h77z" />
    <glyph glyph-name="uniAC10" unicode="&#xac10;" 
d="M735 813v-198h120v-101h-120v-203h-124v502h124zM254 498.5q84 71.5 98 163.5h-287v99h423q0 -177 -108 -297t-309 -172l-49 97q148 38 232 109.5zM155 276h580v-350h-580v350zM613 24v154h-335v-154h335z" />
    <glyph glyph-name="uniAC11" unicode="&#xac11;" 
d="M735 813v-195h120v-102h-120v-189h-124v486h124zM258.5 514q80.5 65 92.5 152h-278v99h417q0 -177 -107 -290t-311 -159l-45 100q151 33 231.5 98zM152 291h125v-88h334v88h124v-365h-583v365zM611 25v82h-334v-82h334z" />
    <glyph glyph-name="uniAC12" unicode="&#xac12;" 
d="M735 813v-189h120v-102h-120v-196h-124v487h124zM258.5 514.5q80.5 65.5 92.5 152.5h-282v98h420q0 -177 -106 -290t-311 -159l-45 100q151 33 231.5 98.5zM119 281h115v-86h94v86h113v-263q66 33 99 88t33 117v68h118v-66q0 -69 36 -126t109 -87l-65 -93
q-95 40 -139 135q-46 -96 -139 -135l-52 74v-65h-322v353zM328 23v80h-94v-80h94z" />
    <glyph glyph-name="uniAC13" unicode="&#xac13;" 
d="M385.5 440q-108.5 -125 -310.5 -183l-51 99q149 41 234.5 116.5t99.5 173.5h-286v100h422q0 -181 -108.5 -306zM262.5 67q63.5 36 95.5 85.5t32 103.5v26h124v-26q0 -54 32 -103t95.5 -85t153.5 -50l-49 -98q-103 19 -178 64.5t-115 112.5q-41 -67 -116.5 -113.5
t-179.5 -64.5l-48 98q90 14 153.5 50zM621 814h124v-233h110v-102h-110v-257h-124v592z" />
    <glyph glyph-name="uniAC14" unicode="&#xac14;" 
d="M735 814v-203h120v-102h-120v-194h-124v499h124zM254.5 498.5q83.5 71.5 97.5 164.5h-283v99h420q0 -178 -108 -299t-309 -174l-48 99q147 39 230.5 110.5zM181.5 104q41.5 60 41.5 131v44h121v-44q0 -58 25 -110.5t76 -89.5q52 38 78 92t26 108v44h123v-44
q0 -76 41.5 -135t125.5 -86l-62 -91q-120 43 -168 155q-24 -55 -64.5 -97.5t-98.5 -66.5q-115 45 -163 162q-50 -110 -164 -153l-62 91q83 30 124.5 90z" />
    <glyph glyph-name="uniAC15" unicode="&#xac15;" 
d="M735 813v-211h120v-104h-120v-206h-124v521h124zM255 486q84 74 98 168h-287v99h423q0 -179 -107 -302t-306 -179l-51 99q146 41 230 115zM183.5 194.5q37.5 41.5 105 63.5t157.5 22q89 0 157 -22t105 -63.5t37 -96.5q0 -56 -37 -97.5t-104.5 -63.5t-157.5 -22t-157.5 22
t-105 63.5t-37.5 97.5q0 55 37.5 96.5zM315 35q47 -22 131 -22t130.5 22t46.5 63q0 42 -47 64t-130 22q-84 0 -131 -22t-47 -64q0 -41 47 -63z" />
    <glyph glyph-name="uniAC16" unicode="&#xac16;" 
d="M735 814v-208h120v-102h-120v-188h-124v498h124zM259.5 506.5q81.5 67.5 93.5 156.5h-284v99h421q0 -178 -107 -293.5t-311 -164.5l-45 100q151 35 232.5 102.5zM300.5 74q69.5 46 79.5 105h-232v98h599v-98h-231q11 -57 81 -104.5t188 -63.5l-45 -95
q-103 14 -177.5 54.5t-114.5 100.5q-39 -59 -113.5 -98.5t-178.5 -54.5l-45 95q120 15 189.5 61z" />
    <glyph glyph-name="uniAC17" unicode="&#xac17;" 
d="M384.5 474q-107.5 -111 -312.5 -154l-45 101q152 30 234 93.5t93 147.5h-283v99h421q0 -176 -107.5 -287zM301 67.5q70 43.5 80 99.5h-241v97h243v92h126v-92h239v-97h-237q10 -56 80 -99.5t193 -56.5l-44 -94q-104 13 -178.5 49.5t-114.5 91.5q-41 -55 -115.5 -91.5
t-178.5 -49.5l-45 94q123 13 193 56.5zM611 813h124v-192h120v-101h-120v-196h-124v489z" />
    <glyph glyph-name="uniAC19" unicode="&#xac19;" 
d="M735 813v-187h120v-101h-120v-183h-124v471h124zM265.5 512q80.5 60 90.5 141h-286v99h424q0 -348 -416 -426l-49 99q156 27 236.5 87zM150 306h590v-91h-465v-54h454v-88h-454v-56h483v-91h-608v380z" />
    <glyph glyph-name="uniAC1A" unicode="&#xac1a;" 
d="M735 812v-192h120v-101h-120v-193h-124v486h124zM259 509.5q84 66.5 96 151.5h-280v99h418q0 -175 -110 -289t-311 -159l-46 100q149 31 233 97.5zM144 25h116v165h-109v97h602v-97h-109v-165h119v-98h-619v98zM523 25v165h-141v-165h141z" />
    <glyph glyph-name="uniAC1B" unicode="&#xac1b;" 
d="M735 813v-182h120v-102h-120v-182h-124v466h124zM351 670h-286v99h424q0 -180 -103.5 -288t-314.5 -151l-44 98q302 58 324 242zM130 297h253v88h123v-88h254v-93h-630v93zM257.5 141q67.5 34 186.5 34t186.5 -34t67.5 -95q0 -63 -67.5 -97t-186.5 -34t-186.5 34
t-67.5 97q0 61 67.5 95zM342 12.5q34 -10.5 102 -10.5q69 0 103.5 10.5t34.5 33.5q0 42 -138 42q-136 0 -136 -42q0 -23 34 -33.5z" />
    <glyph glyph-name="uniAC1C" unicode="&#xac1c;" 
d="M798 813v-897h-118v457h-83v-417h-115v833h115v-317h83v341h118zM220 365.5q65 100.5 77 236.5h-232v100h354q0 -202 -73.5 -349.5t-252.5 -252.5l-71 86q133 79 198 179.5z" />
    <glyph glyph-name="uniAC1D" unicode="&#xac1d;" 
d="M794 813v-525h-117v216h-80v-214h-116v506h116v-192h80v209h117zM214 487.5q65 69.5 78 163.5h-226v99h353q0 -170 -82.5 -285.5t-254.5 -183.5l-58 90q125 47 190 116.5zM175 250h619v-335h-123v236h-496v99z" />
    <glyph glyph-name="uniAC20" unicode="&#xac20;" 
d="M794 812v-668h-118v311h-79v-286h-116v627h116v-240h79v256h118zM211.5 459q64.5 72 77.5 168h-221v99h349q0 -171 -80.5 -289t-251.5 -190l-61 90q123 50 187.5 122zM188 221h124v-187h508v-100h-632v287z" />
    <glyph glyph-name="uniAC23" unicode="&#xac23;" 
d="M801 250v-97h-486v-128h495v-99h-619v324h610zM217 486.5q63 69.5 75 164.5h-224v99h352q0 -172 -79 -287.5t-251 -185.5l-60 90q124 50 187 119.5zM481 796h116v-195h79v211h118v-521h-118v210h-79v-203h-116v498z" />
    <glyph glyph-name="uniAC24" unicode="&#xac24;" 
d="M794 812v-449h-118v168h-79v-162h-116v427h116v-166h79v182h118zM210 517.5q63 60.5 76 143.5h-216v98h346q0 -161 -80.5 -266t-249.5 -163l-58 89q119 38 182 98.5zM187 327h607v-242h-483v-62h514v-97h-637v249h484v56h-485v96z" />
    <glyph glyph-name="uniAC2C" unicode="&#xac2c;" 
d="M794 812v-511h-117v206h-80v-200h-116v489h116v-189h80v205h117zM217 485.5q63 69.5 76 165.5h-225v99h352q0 -173 -78.5 -288t-251.5 -185l-60 90q124 49 187 118.5zM189 260h605v-331h-605v331zM673 28v135h-361v-135h361z" />
    <glyph glyph-name="uniAC2D" unicode="&#xac2d;" 
d="M794 812v-483h-117v184h-80v-178h-116v461h116v-183h80v199h117zM212.5 498.5q62.5 66.5 76.5 159.5h-218v99h347q0 -168 -80 -281.5t-249 -181.5l-60 91q121 47 183.5 113.5zM190 291h123v-83h360v83h121v-362h-604v362zM673 27v84h-360v-84h360z" />
    <glyph glyph-name="uniAC2F" unicode="&#xac2f;" 
d="M341.5 443q-79.5 -120 -251.5 -195l-63 91q124 52 188.5 125t77.5 173h-223v100h351q0 -174 -79.5 -294zM295.5 63.5q65.5 34.5 98.5 82t33 98.5v27h124v-27q0 -51 33 -98.5t98 -82t156 -47.5l-47 -97q-105 17 -182.5 62t-119.5 111q-42 -66 -119.5 -111t-182.5 -62
l-48 97q91 13 156.5 47.5zM480 796h116v-202h80v218h118v-584h-118v265h-80v-181h-116v484z" />
    <glyph glyph-name="uniAC30" unicode="&#xac30;" 
d="M793 813v-503h-117v191h-80v-189h-116v484h116v-194h80v211h117zM212 488q64 68 77 162h-221v100h350q0 -170 -81 -284.5t-252 -182.5l-60 90q123 47 187 115zM197.5 102.5q42.5 59.5 42.5 129.5v42h120v-42q0 -57 25.5 -109.5t76.5 -88.5q52 38 78 91t26 107v42h123v-42
q0 -74 41.5 -133t125.5 -85l-60 -92q-122 43 -171 156q-49 -118 -161 -164q-116 43 -164 161q-50 -110 -167 -153l-61 92q83 29 125.5 88.5z" />
    <glyph glyph-name="uniAC31" unicode="&#xac31;" 
d="M794 812v-539h-117v225h-80v-196h-116v494h116v-197h80v213h117zM213.5 478q64.5 72 77.5 169h-219v100h349q0 -173 -81.5 -291.5t-254.5 -190.5l-60 91q124 50 188.5 122zM221 186.5q38 39.5 108 60.5t164 21q93 0 163 -21t107.5 -60.5t37.5 -92.5q0 -54 -37.5 -93.5
t-107 -60.5t-163.5 -21t-164 21t-108 60.5t-38 93.5q0 53 38 92.5zM355.5 34.5q48.5 -20.5 137.5 -20.5q88 0 136 20.5t48 59.5t-48 59t-136 20q-89 0 -137.5 -20t-48.5 -59t48.5 -59.5z" />
    <glyph glyph-name="uniAC38" unicode="&#xac38;" 
d="M732 814v-226h125v-101h-125v-165h125v-103h-125v-303h-125v898h125zM266.5 359q84.5 111 101.5 261h-296v101h422q0 -214 -94 -378t-307 -271l-69 95q158 81 242.5 192z" />
    <glyph glyph-name="uniAC39" unicode="&#xac39;" 
d="M735 813v-120h121v-100h-121v-93h121v-99h-121v-109h-124v521h124zM253.5 498.5q84.5 71.5 98.5 164.5h-287v99h422q0 -177 -107.5 -297t-308.5 -173l-51 97q149 38 233.5 109.5zM139 254h596v-339h-124v241h-472v98z" />
    <glyph glyph-name="uniAC3C" unicode="&#xac3c;" 
d="M735 812v-152h120v-101h-120v-116h120v-100h-120v-174h-124v643h124zM258.5 473q85.5 76 99.5 173h-294v99h429q0 -181 -107.5 -305t-308.5 -183l-52 98q148 42 233.5 118zM158 235h124v-203h484v-100h-608v303z" />
    <glyph glyph-name="uniAC40" unicode="&#xac40;" 
d="M735 813v-92h120v-98h-120v-77h120v-98h-120v-84h-124v449h124zM261 533q82 63 93 146h-284v99h423q0 -176 -108.5 -286t-312.5 -152l-45 101q152 29 234 92zM146 329h589v-246h-465v-61h491v-98h-613v252h464v55h-466v98z" />
    <glyph glyph-name="uniAC4B" unicode="&#xac4b;" 
d="M735 813v-138h119v-101h-119v-109h119v-102h-119v-141h-124v591h124zM258.5 472.5q85.5 75.5 99.5 173.5h-286v100h422q0 -181 -108.5 -306t-310.5 -183l-51 99q149 41 234.5 116.5zM262.5 67q63.5 36 95.5 85t32 104v26h124v-26q0 -54 32 -103t95.5 -85t153.5 -50
l-49 -98q-103 18 -177.5 63.5t-115.5 112.5q-41 -67 -117 -113.5t-179 -64.5l-48 99q90 14 153.5 50z" />
    <glyph glyph-name="uniAC4D" unicode="&#xac4d;" 
d="M735 813v-123h118v-101h-118v-89h118v-102h-118v-106h-124v521h124zM255 485.5q84 73.5 98 168.5h-287v99h423q0 -179 -107 -302t-306 -179l-51 99q146 41 230 114.5zM183.5 194.5q37.5 41.5 105 63.5t157.5 22q89 0 157 -22t105 -63.5t37 -96.5q0 -56 -37 -97.5
t-104.5 -63.5t-157.5 -22t-157.5 22t-105 63.5t-37.5 97.5q0 55 37.5 96.5zM315.5 34.5q46.5 -21.5 130.5 -21.5t130.5 22t46.5 63q0 42 -47 64t-130 22q-84 0 -130.5 -22t-46.5 -64t46.5 -63.5z" />
    <glyph glyph-name="uniAC54" unicode="&#xac54;" 
d="M798 813v-897h-118v328h-83v-288h-115v833h115v-194h83v218h118zM220 365.5q65 100.5 77 236.5h-232v100h354q0 -202 -73.5 -349.5t-252.5 -252.5l-71 86q133 79 198 179.5zM680 343v152h-83v-152h83z" />
    <glyph glyph-name="uniAC58" unicode="&#xac58;" 
d="M794 812v-668h-118v197h-79v-172h-116v627h116v-144h79v160h118zM211.5 459q64.5 72 77.5 168h-221v99h349q0 -171 -80.5 -289t-251.5 -190l-61 90q123 50 187.5 122zM188 221h124v-187h508v-100h-632v287zM676 439v114h-79v-114h79z" />
    <glyph glyph-name="uniAC5C" unicode="&#xac5c;" 
d="M794 812v-449h-118v85h-79v-79h-116v427h116v-88h79v104h118zM210 517.5q63 60.5 76 143.5h-216v99h346q0 -162 -80.5 -267t-249.5 -164l-58 90q119 38 182 98.5zM187 326h607v-244h-483v-61h514v-98h-637v250h484v56h-485v97zM676 542v72h-79v-72h79z" />
    <glyph glyph-name="uniAC65" unicode="&#xac65;" 
d="M794 812v-483h-117v96h-80v-90h-116v461h116v-92h80v108h117zM212.5 498.5q62.5 66.5 76.5 159.5h-218v99h347q0 -168 -80 -281.5t-249 -181.5l-60 91q121 47 183.5 113.5zM190 291h123v-83h360v83h121v-362h-604v362zM673 27v84h-360v-84h360zM677 523v82h-80v-82h80z
" />
    <glyph glyph-name="uniAC70" unicode="&#xac70;" 
d="M781 812v-897h-125v451h-176v101h176v345h125zM267 360q79 109 93 260h-295v100h421q0 -144 -36.5 -260.5t-124 -214.5t-237.5 -173l-66 96q166 83 245 192z" />
    <glyph glyph-name="uniAC71" unicode="&#xac71;" 
d="M390.5 466q-105.5 -120 -302.5 -175l-50 96q144 39 227 110.5t97 164.5h-275v99h409q0 -175 -105.5 -295zM171 255h610v-337h-125v239h-485v98zM503 593h153v220h125v-521h-125v199h-153v102z" />
    <glyph glyph-name="uniAC74" unicode="&#xac74;" 
d="M780 812v-656h-124v294h-159v100h159v262h124zM269.5 467.5q86.5 78.5 102.5 178.5h-284v99h416q0 -180 -107 -309t-303 -191l-52 99q141 45 227.5 123.5zM196 221h123v-189h484v-100h-607v289z" />
    <glyph glyph-name="uniAC77" unicode="&#xac77;" 
d="M387 464.5q-105 -120.5 -302 -176.5l-49 96q144 40 226.5 112t97.5 166h-276v99h408q0 -176 -105 -296.5zM192 269h591v-99h-466v-145h482v-99h-607v343zM498 595h158v217h125v-501h-125v183h-158v101z" />
    <glyph glyph-name="uniAC78" unicode="&#xac78;" 
d="M781 813v-450h-125v158h-161v99h161v193h125zM262 532q76 62 89 147h-257v99h392q0 -342 -402 -438l-42 98q144 32 220 94zM190 329h591v-245h-466v-62h484v-98h-607v252h464v55h-466v98z" />
    <glyph glyph-name="uniAC7A" unicode="&#xac7a;" 
d="M781 813v-463h-125v163h-156v99h156v201h125zM269.5 528q78.5 63 91.5 149h-271v98h404q0 -174 -103.5 -283.5t-304.5 -154.5l-43 96q148 32 226.5 95zM136 313h300v-232h-179v-61q61 1 103.5 4.5t87.5 11.5l11 -94q-56 -10 -110 -13t-159 -3h-53v242h179v53h-180v92z
M482 313h299v-387h-299v387zM673 16v207h-85v-207h85z" />
    <glyph glyph-name="uniAC80" unicode="&#xac80;" 
d="M388 465q-106 -120 -303 -174l-49 96q144 39 227 110.5t97 164.5h-275v99h409q0 -176 -106 -296zM191 274h590v-348h-590v348zM658 24v152h-344v-152h344zM498 598h158v214h125v-502h-125v187h-158v101z" />
    <glyph glyph-name="uniAC81" unicode="&#xac81;" 
d="M781 813v-485h-125v177h-159v101h159v207h125zM270 505.5q79 66.5 91 157.5h-274v98h409q0 -352 -409 -457l-47 98q151 37 230 103.5zM188 288h123v-87h347v87h123v-363h-593v363zM658 25v80h-347v-80h347z" />
    <glyph glyph-name="uniAC83" unicode="&#xac83;" 
d="M780 813v-597h-125v257h-157v100h157v240h125zM359 645h-271v100h405q0 -184 -98.5 -304.5t-299.5 -185.5l-53 97q290 88 317 293zM289.5 65.5q63.5 35.5 95.5 84.5t32 103v30h124v-30q0 -53 32 -102t95.5 -84.5t153.5 -49.5l-50 -98q-103 18 -177.5 63t-115.5 112
q-41 -66 -117 -112.5t-179 -64.5l-47 99q90 14 153.5 49.5z" />
    <glyph glyph-name="uniAC84" unicode="&#xac84;" 
d="M386.5 465q-105.5 -120 -302.5 -174l-49 96q144 39 226.5 110.5t97.5 164.5h-274v99h407q0 -176 -105.5 -296zM195.5 104.5q42.5 60.5 42.5 131.5v44h121v-44q0 -58 25 -111t76 -90q53 38 79 92.5t26 108.5v44h122v-44q0 -75 41.5 -134.5t126.5 -87.5l-61 -90
q-121 41 -170 155q-51 -118 -163 -164q-114 45 -162 161q-52 -109 -168 -152l-61 90q83 30 125.5 90.5zM498 598h157v215h125v-502h-125v186h-157v101z" />
    <glyph glyph-name="uniAC85" unicode="&#xac85;" 
d="M781 812v-514h-125v181h-153v100h153v233h125zM267.5 484q79.5 71 92.5 167h-272v100h408q0 -362 -409 -475l-49 97q150 40 229.5 111zM219.5 200.5q37.5 41.5 106 63.5t158.5 22q91 0 159 -22t105.5 -63.5t37.5 -97.5q0 -55 -37.5 -96.5t-106 -64t-158.5 -22.5
q-89 0 -157.5 22.5t-106.5 64t-38 96.5q0 56 37.5 97.5zM351.5 39q47.5 -22 132.5 -22t132.5 22t47.5 64t-47.5 64.5t-132.5 22.5t-132.5 -22.5t-47.5 -64.5t47.5 -64z" />
    <glyph glyph-name="uniAC86" unicode="&#xac86;" 
d="M397 468.5q-109 -115.5 -315 -164.5l-44 99q152 34 236.5 101.5t97.5 157.5h-285v99h419q0 -177 -109 -292.5zM287 45.5q59 24.5 91 58t38 70.5h-231v99h602v-99h-236q6 -36 38 -69.5t91 -58t141 -34.5l-44 -94q-104 13 -179 51.5t-114 95.5q-39 -57 -114.5 -95.5
t-179.5 -51.5l-44 94q82 9 141 33.5zM498 592h157v221h125v-500h-125v177h-157v102z" />
    <glyph glyph-name="uniAC89" unicode="&#xac89;" 
d="M785 306v-91h-467v-53h451v-88h-451v-56h481v-92h-606v380h592zM269 514q79 66 91 156h-275v99h411q0 -351 -409 -453l-47 98q150 34 229 100zM499 605h157v208h125v-470h-125v161h-157v101z" />
    <glyph glyph-name="uniAC8A" unicode="&#xac8a;" 
d="M389.5 469.5q-105.5 -117.5 -302.5 -170.5l-47 99q143 35 225 104.5t96 159.5h-274v99h408q0 -174 -105.5 -291.5zM162 28h123v158h-113v98h615v-98h-112v-158h123v-99h-636v99zM552 28v158h-145v-158h145zM496 594h160v218h125v-487h-125v168h-160v101z" />
    <glyph glyph-name="uniAC8B" unicode="&#xac8b;" 
d="M383.5 481.5q-98.5 -108.5 -302.5 -155.5l-44 96q289 63 313 248h-262v97h394q0 -177 -98.5 -285.5zM161 292h254v92h124v-92h252v-93h-630v93zM290.5 136.5q67.5 33.5 185.5 33.5q119 0 187 -33.5t68 -92.5q0 -61 -68 -94.5t-187 -33.5t-186 33.5t-67 94.5
q0 59 67.5 92.5zM476 0q124 0 124 44q0 40 -124 40q-123 0 -123 -40q0 -44 123 -44zM497 621h159v192h125v-472h-125v180h-159v100z" />
    <glyph glyph-name="uniAC8C" unicode="&#xac8c;" 
d="M803 813v-897h-118v897h118zM220.5 370q65.5 101 78.5 236h-229v100h351q0 -135 -31 -239h106v326h116v-836h-116v411h-144q-79 -160 -260 -266l-70 87q133 80 198.5 181z" />
    <glyph glyph-name="uniAC90" unicode="&#xac90;" 
d="M794 812v-667h-118v667h118zM214 461.5q65 71.5 78 168.5h-214v99h343q0 -104 -30 -190h103v256h116v-626h-116v271h-153q-80 -119 -254 -191l-61 91q123 50 188 121.5zM200 227h125v-195h504v-100h-629v295z" />
    <glyph glyph-name="uniAC94" unicode="&#xac94;" 
d="M794 812v-449h-118v449h118zM215.5 517.5q62.5 60.5 75.5 144.5h-212v98h343q0 -86 -22 -153h94v188h116v-430h-116v145h-140q-79 -116 -262 -181l-58 90q119 38 181.5 98.5zM187 326h607v-243h-481v-60h512v-97h-637v249h483v54h-484v97z" />
    <glyph glyph-name="uniAC9C" unicode="&#xac9c;" 
d="M398 578h97v217h116v-490h-116v175h-141q-79 -127 -258 -203l-61 90q119 49 182 118.5t77 164.5h-215v100h343q0 -94 -24 -172zM192 259h602v-330h-602v330zM673 27v135h-359v-135h359zM677 812h117v-515h-117v515z" />
    <glyph glyph-name="uniAC9D" unicode="&#xac9d;" 
d="M397 589h98v206h116v-468h-116v162h-145q-77 -118 -259 -187l-60 89q123 43 184.5 107.5t73.5 154.5h-207v100h337q0 -92 -22 -164zM190 287h123v-85h360v85h121v-358h-604v358zM673 27v79h-360v-79h360zM677 812h117v-492h-117v492z" />
    <glyph glyph-name="uniAC9F" unicode="&#xac9f;" 
d="M794 812v-583h-118v583h118zM214.5 464q63.5 73 76.5 173h-217v100h346q0 -97 -23 -172h97v231h116v-491h-116v161h-139q-81 -138 -264 -219l-62 92q122 52 185.5 125zM288.5 63.5q65.5 34.5 99 82t33.5 98.5v27h124v-27q0 -51 33.5 -98.5t99 -82.5t157.5 -47l-48 -97
q-106 17 -184 62t-120 111q-43 -66 -121 -111t-184 -62l-46 97q91 13 156.5 47.5z" />
    <glyph glyph-name="uniACA0" unicode="&#xaca0;" 
d="M398 577h96v219h116v-482h-116v164h-141q-82 -128 -261 -202l-60 91q123 49 186.5 118.5t76.5 165.5h-217v99h345q0 -97 -25 -173zM197.5 102.5q42.5 59.5 42.5 129.5v42h120v-42q0 -57 25.5 -109.5t76.5 -88.5q52 38 78 91t26 107v42h123v-42q0 -74 41.5 -133t125.5 -85
l-60 -92q-123 43 -171 155q-23 -55 -63 -97t-98 -66q-116 43 -164 160q-52 -109 -168 -152l-60 92q83 29 125.5 88.5zM676 813h117v-511h-117v511z" />
    <glyph glyph-name="uniACA1" unicode="&#xaca1;" 
d="M400 577h95v219h116v-494h-116v176h-139q-81 -135 -267 -213l-61 91q123 50 188 121.5t79 169.5h-220v100h348q0 -90 -23 -170zM223 185.5q38 39.5 108.5 60.5t163.5 21t163 -21t108 -60.5t38 -92.5t-38 -92.5t-107.5 -60.5t-163.5 -21t-164 21t-108 60.5t-38 92.5
t38 92.5zM358 33q49 -21 137 -21t136.5 21t48.5 60t-48 59.5t-137 20.5t-137.5 -20.5t-48.5 -59.5t49 -60zM677 812h117v-539h-117v539z" />
    <glyph glyph-name="uniACA8" unicode="&#xaca8;" 
d="M477 581h179v232h125v-897h-125v322h-214v99h214v145h-201q-38 -129 -127.5 -232.5t-240.5 -178.5l-64 97q159 81 240.5 191.5t96.5 260.5h-294v100h421q0 -75 -10 -139z" />
    <glyph glyph-name="uniACA9" unicode="&#xaca9;" 
d="M499 667h157v146h125v-533h-125v97h-201v99h201v92h-187q-44 -104 -140.5 -176.5t-239.5 -110.5l-47 97q148 40 232.5 112.5t99.5 165.5h-282v100h414q0 -50 -7 -89zM171 243h610v-325h-125v226h-485v99z" />
    <glyph glyph-name="uniACAA" unicode="&#xacaa;" 
d="M498 677h158v136h125v-514h-125v87h-201v99h201v93h-186q-44 -104 -140.5 -176t-238.5 -110l-49 97q148 38 232 109t99 164h-281v99h413q0 -46 -7 -84zM142 261h303v-346h-124v247h-179v99zM484 261h297v-346h-125v247h-172v99z" />
    <glyph glyph-name="uniACAC" unicode="&#xacac;" 
d="M780 812v-660h-124v186h-204v100h204v102h-190q-47 -103 -142 -178t-229 -116l-52 99q142 44 229 122.5t103 177.5h-284v100h418q0 -50 -10 -105h157v172h124zM196 215h123v-183h484v-100h-607v283z" />
    <glyph glyph-name="uniACAF" unicode="&#xacaf;" 
d="M492 685h164v127h125v-501h-125v79h-203v100h203v95h-191q-43 -106 -138.5 -180t-240.5 -113l-47 97q144 39 227.5 109.5t97.5 163.5h-280v99h413q0 -36 -5 -76zM192 269h591v-99h-466v-145h482v-99h-607v343z" />
    <glyph glyph-name="uniACB0" unicode="&#xacb0;" 
d="M781 813v-451h-125v69h-203v94h203v79h-193q-80 -198 -379 -263l-41 100q149 30 225.5 91.5t88.5 145.5h-263v99h400q0 -40 -6 -78h168v114h125zM190 328h591v-244h-466v-62h484v-98h-607v252h464v54h-466v98z" />
    <glyph glyph-name="uniACB7" unicode="&#xacb7;" 
d="M780 813v-446h-125v69h-203v93h203v80h-193q-81 -195 -379 -259l-41 99q147 29 224 89t90 143h-263v99h400q0 -40 -6 -78h168v111h125zM133 313h289v-230h-168v-63q66 1 109 4t88 12l11 -94q-56 -10 -111.5 -13t-163.5 -3h-53v243h167v52h-168v92zM456 271h121v72h121
v-72h124v-90h-366v90zM520 124.5q46 33.5 116 33.5q71 0 117 -33.5t46 -87.5q0 -56 -46 -89.5t-117 -33.5t-116.5 34t-45.5 89q0 54 46 87.5zM596 7q16 -10 40 -10q25 0 40.5 10t15.5 30q0 19 -15.5 28t-40.5 9q-24 0 -40 -9.5t-16 -27.5q0 -20 16 -30z" />
    <glyph glyph-name="uniACB8" unicode="&#xacb8;" 
d="M656 504v86h-190q-42 -108 -138.5 -183.5t-242.5 -115.5l-48 96q144 39 227 110t98 165h-277v99h411q0 -33 -5 -71h165v122h125v-505h-125v95h-202v102h202zM191 271h590v-345h-590v345zM658 24v150h-344v-150h344z" />
    <glyph glyph-name="uniACB9" unicode="&#xacb9;" 
d="M656 506v85h-187q-81 -212 -381 -287l-48 98q151 36 231 103t92 158h-276v98h411q0 -33 -5 -71h163v123h125v-485h-125v77h-198v101h198zM188 288h123v-87h347v87h123v-363h-593v363zM658 25v80h-347v-80h347z" />
    <glyph glyph-name="uniACBB" unicode="&#xacbb;" 
d="M655 473v91h-190q-77 -216 -370 -309l-52 98q290 86 317 292h-272v100h406q0 -39 -5 -82h166v149h125v-599h-125v160h-199v100h199zM289.5 66q63.5 36 95.5 85t32 102v28h124v-28q0 -53 32 -101.5t95.5 -84.5t153.5 -50l-50 -98q-103 18 -177.5 63t-115.5 112
q-41 -66 -116.5 -112t-179.5 -64l-47 98q90 14 153.5 50z" />
    <glyph glyph-name="uniACBC" unicode="&#xacbc;" 
d="M655 498v88h-190q-43 -107 -139 -181.5t-240 -113.5l-48 96q145 39 228.5 110.5t97.5 164.5h-279v99h412q0 -35 -5 -75h163v127h125v-502h-125v87h-199v100h199zM195.5 104.5q42.5 60.5 42.5 131.5v44h121v-44q0 -58 25 -111t76 -90q53 39 79 93t26 108v44h122v-44
q0 -75 41.5 -134.5t126.5 -87.5l-61 -90q-121 41 -170 155q-51 -118 -163 -164q-114 45 -162 161q-52 -109 -168 -152l-61 90q83 30 125.5 90.5z" />
    <glyph glyph-name="uniACBD" unicode="&#xacbd;" 
d="M656 483v87h-189q-82 -212 -379 -294l-49 97q151 40 230.5 111t92.5 167h-274v100h410q0 -44 -6 -83h164v144h125v-518h-125v89h-200v100h200zM219.5 198q37.5 41 106 63t158.5 22q91 0 159 -22t105.5 -63t37.5 -96t-37.5 -96.5t-106 -63.5t-158.5 -22t-158.5 22
t-106 63.5t-37.5 96.5t37.5 96zM351.5 39q47.5 -22 132.5 -22t132.5 22t47.5 63t-47.5 63t-132.5 22t-132.5 -22t-47.5 -63t47.5 -63z" />
    <glyph glyph-name="uniACC1" unicode="&#xacc1;" 
d="M656 517v82h-189q-82 -209 -380 -283l-47 98q150 34 229.5 100t91.5 156h-276v99h411q0 -35 -5 -75h165v119h125v-470h-125v80h-203v94h203zM193 306h592v-91h-467v-53h451v-88h-451v-56h481v-92h-606v380z" />
    <glyph glyph-name="uniACC4" unicode="&#xacc4;" 
d="M501 351v125h-112q-31 -115 -103.5 -208t-195.5 -166l-70 87q132 80 197 180.5t78 236.5h-225v100h347q0 -65 -8 -132h92v219h116v-836h-116v295h-128v99h128zM685 813h118v-897h-118v897z" />
    <glyph glyph-name="uniACC8" unicode="&#xacc8;" 
d="M497 429v99h-112q-35 -93 -109 -163.5t-191 -120.5l-61 91q124 51 188.5 123.5t77.5 171.5h-212v99h340q0 -57 -7 -102h86v168h117v-625h-117v160h-130v99h130zM196 229h125v-197h503v-100h-628v297zM676 812h118v-664h-118v664z" />
    <glyph glyph-name="uniACCC" unicode="&#xaccc;" 
d="M497 524v72h-103q-31 -93 -106 -158.5t-196 -108.5l-60 90q120 38 182 98.5t75 144.5h-210v98h340q0 -40 -4 -69h82v104h117v-431h-117v66h-115v94h115zM187 326h607v-243h-481v-61h512v-98h-637v250h483v55h-484v97zM676 812h118v-450h-118v450z" />
    <glyph glyph-name="uniACD5" unicode="&#xacd5;" 
d="M498 501v78h-106q-31 -96 -105 -164.5t-197 -115.5l-60 90q123 44 184.5 108.5t73.5 155.5h-206v100h335q0 -38 -5 -81h86v123h116v-472h-116v84h-111v94h111zM190 283h123v-83h360v83h121v-354h-604v354zM673 28v77h-360v-77h360zM677 812h117v-495h-117v495z" />
    <glyph glyph-name="uniACD7" unicode="&#xacd7;" 
d="M494 476v84h-102q-31 -103 -105 -181t-196 -132l-64 90q122 53 185.5 126.5t76.5 174.5h-215v100h343q0 -48 -5 -81h82v139h116v-504h-116v87h-111v97h111zM289.5 61.5q65.5 33.5 98.5 79.5t33 95v26h124v-26q0 -49 33.5 -95t99 -79.5t157.5 -45.5l-46 -97
q-107 16 -185.5 59.5t-120.5 107.5q-43 -64 -121 -107.5t-185 -59.5l-45 97q92 12 157.5 45.5zM676 812h118v-598h-118v598z" />
    <glyph glyph-name="uniACE0" unicode="&#xace0;" 
d="M763 735v-86q0 -115 -6 -208.5t-30 -220.5l-123 15q22 113 28 204t6 197h-524v99h649zM31 126h290v309h125v-309h396v-101h-811v101z" />
    <glyph glyph-name="uniACE1" unicode="&#xace1;" 
d="M335 400v169h124v-169h381v-99h-807v99h302zM116 223h620v-307h-123v208h-497v99zM124 768h620v-63q0 -71 -4 -128.5t-19 -128.5l-124 12q13 57 17.5 106.5t5.5 103.5h-496v98z" />
    <glyph glyph-name="uniACE4" unicode="&#xace4;" 
d="M744 763v-63q0 -74 -4 -134t-21 -133l-123 14q14 61 18.5 111.5t5.5 106.5h-496v98h620zM33 384h302v169h124v-169h381v-99h-807v99zM128 209h123v-177h512v-100h-635v277z" />
    <glyph glyph-name="uniACE7" unicode="&#xace7;" 
d="M744 774v-74q0 -72 -4 -125t-21 -114l-123 13q14 55 19 101.5t5 100.5h-496v98h620zM33 424h302v150h124v-150h381v-98h-807v98zM127 251h614v-98h-490v-128h502v-98h-626v324z" />
    <glyph glyph-name="uniACE8" unicode="&#xace8;" 
d="M744 779v-53q0 -59 -3 -107t-14 -106l-122 9q13 78 15 160h-496v97h620zM33 474h302v133h124v-133h381v-97h-807v97zM122 321h623v-239h-498v-63h521v-97h-644v244h497v58h-499v97z" />
    <glyph glyph-name="uniACEA" unicode="&#xacea;" 
d="M743 774v-57q0 -63 -3 -114.5t-15 -110.5l-124 13q17 80 19 172h-496v97h619zM33 454h302v142h124v-142h381v-99h-807v99zM113 298h293v-225h-172v-59q67 0 106.5 2.5t78.5 10.5l9 -90q-49 -10 -98 -12t-163 -2h-52v234h171v52h-173v89zM455 298h296v-375h-296v375z
M647 14v194h-88v-194h88z" />
    <glyph glyph-name="uniACEC" unicode="&#xacec;" 
d="M671 312v-86q0 -72 35.5 -131t110.5 -89l-66 -87q-96 41 -140 141q-46 -99 -139 -141l-56 75l5 -58q-48 -10 -95.5 -12t-159.5 -2h-51v235h171v52h-173v89h293v-224h-172v-60q65 1 103 3.5t76 9.5l2 -18q70 33 104 92t34 125v86h118zM33 457h302v144h124v-144h381v-98
h-807v98zM124 779h620v-63q0 -64 -3 -113.5t-16 -106.5l-124 14q17 79 19 172h-496v97z" />
    <glyph glyph-name="uniACEF" unicode="&#xacef;" 
d="M554 265v67h120v-67h133v-89h-385v89h132zM33 468h302v140h124v-140h381v-97h-807v97zM110 307h282v-227h-165v-60q75 1 116.5 3.5t82.5 10.5l10 -90q-52 -9 -104.5 -11.5t-167.5 -2.5h-53v235h165v52h-166v90zM124 783h619v-57q0 -61 -3 -111.5t-15 -109.5l-124 14
q17 76 19 166h-496v98zM499.5 120.5q44.5 32.5 114.5 32.5q71 0 115 -32.5t44 -86.5t-44 -86.5t-115 -32.5q-70 0 -114.5 32.5t-44.5 86.5t44.5 86.5zM576 5q15 -10 38 -10q24 0 39 10t15 29q0 37 -54 37q-53 0 -53 -37q0 -19 15 -29z" />
    <glyph glyph-name="uniACF0" unicode="&#xacf0;" 
d="M742 253v-327h-617v327h617zM33 427h302v154h124v-154h381v-98h-807v98zM124 776h620v-73q0 -71 -4 -124t-21 -114l-123 14q14 54 19 100t5 99h-496v98zM620 24v131h-373v-131h373z" />
    <glyph glyph-name="uniACF1" unicode="&#xacf1;" 
d="M744 780v-57q0 -65 -4 -120t-20 -123l-123 10q21 94 23 192h-496v98h620zM33 439h302v147h124v-147h381v-99h-807v99zM129 286h122v-87h368v87h123v-360h-613v360zM619 24v82h-368v-82h368z" />
    <glyph glyph-name="uniACF3" unicode="&#xacf3;" 
d="M743 771v-68q0 -71 -3.5 -125.5t-17.5 -120.5l-124 12q13 56 17.5 104.5t4.5 100.5h-496v97h619zM33 406h302v167h124v-167h381v-98h-807v98zM240 57.5q65 31.5 97.5 76t32.5 92.5v27h124v-27q0 -49 32.5 -93t98 -75.5t160.5 -42.5l-45 -96q-108 15 -186.5 56.5
t-121.5 103.5q-42 -62 -121 -103.5t-187 -56.5l-43 96q94 11 159 42.5z" />
    <glyph glyph-name="uniACF5" unicode="&#xacf5;" 
d="M599.5 233.5q71.5 -20.5 110.5 -59t39 -90.5q0 -51 -39 -89t-111 -58.5t-168 -20.5q-95 0 -166.5 20.5t-110.5 58.5t-39 89q0 52 39 90.5t110 59t167 20.5q97 0 168.5 -20.5zM33 411h302v157h124v-157h381v-99h-807v99zM124 772h619v-74q0 -72 -4 -124.5t-20 -114.5
l-123 12q14 56 19 102.5t5 100.5h-496v98zM288.5 29q49.5 -19 142.5 -19t144 19t51 55q0 38 -50.5 57t-144.5 19q-93 0 -142.5 -19t-49.5 -57q0 -36 49.5 -55z" />
    <glyph glyph-name="uniACF6" unicode="&#xacf6;" 
d="M749 269v-98h-245q16 -59 88 -102t194 -56l-44 -94q-108 13 -186.5 51.5t-119.5 97.5q-41 -59 -119.5 -97.5t-187.5 -51.5l-42 94q121 13 192.5 56t87.5 102h-245v98h627zM33 439h302v143h124v-143h381v-99h-807v99zM124 779h620v-71q0 -67 -4 -118t-21 -110l-122 15
q14 51 18.5 94t4.5 91h-496v99z" />
    <glyph glyph-name="uniACFC" unicode="&#xacfc;" 
d="M529 723v-71q0 -92 -4 -169t-20 -177l-121 12q14 86 18.5 158t4.5 148h-339v99h461zM187 200v266h121v-262q149 5 260 20l6 -91q-122 -21 -257 -28t-283 -7l-11 101q106 0 164 1zM610 813h124v-362h123v-103h-123v-432h-124v897z" />
    <glyph glyph-name="uniACFD" unicode="&#xacfd;" 
d="M529 755v-59q0 -66 -3.5 -122.5t-17.5 -123.5l-120 13q17 90 19 193h-336v99h458zM184 387v170h123v-165q153 7 262 24l8 -88q-123 -25 -256 -32.5t-290 -7.5l-12 98q106 0 165 1zM139 216h606v-298h-125v200h-481v98zM620 813h125v-235h109v-102h-109v-223h-125v560z
" />
    <glyph glyph-name="uniAD00" unicode="&#xad00;" 
d="M530 747v-56q0 -68 -3.5 -128.5t-17.5 -134.5l-121 14q17 97 19 206h-336v99h459zM185 363v175h122v-171q151 7 263 23l9 -89q-124 -22 -259 -29.5t-289 -8.5l-12 99q106 0 166 1zM150 200h125v-168h498v-100h-623v268zM620 813h125v-276h109v-102h-109v-293h-125v671z
" />
    <glyph glyph-name="uniAD04" unicode="&#xad04;" 
d="M529 773v-51q0 -60 -3 -111.5t-15 -112.5l-122 13q16 82 18 165h-336v97h458zM183 446v142h124v-139q166 7 263 19l9 -86q-124 -21 -258.5 -27.5t-290.5 -6.5l-11 97q106 0 164 1zM133 302h612v-229h-487v-57h517v-93h-641v236h486v52h-487v91zM620 813h125v-193h109
v-100h-109v-184h-125v477z" />
    <glyph glyph-name="uniAD06" unicode="&#xad06;" 
d="M404 283v-217h-177v-54q70 1 109.5 3.5t79.5 10.5l8 -90q-49 -10 -98.5 -12t-167.5 -2h-51v226h177v48h-178v87h298zM183 443v142h124v-139q146 5 263 19l9 -86q-125 -21 -257 -27.5t-292 -6.5l-11 97q106 0 164 1zM71 773h458v-52q0 -60 -3 -111.5t-15 -113.5l-122 13
q16 83 18 167h-336v97zM449 283h296v-361h-296v361zM639 15v176h-83v-176h83zM620 813h125v-196h109v-100h-109v-198h-125v494z" />
    <glyph glyph-name="uniAD0C" unicode="&#xad0c;" 
d="M529 766v-56q0 -63 -3.5 -116.5t-16.5 -118.5l-121 9q17 84 19 183h-336v99h458zM184 413v149h123v-145q158 7 263 21l9 -88q-125 -23 -260 -30t-288 -7l-12 99q106 0 165 1zM145 243h600v-314h-600v314zM623 28v117h-356v-117h356zM620 813h125v-218h109v-102h-109v-210
h-125v530z" />
    <glyph glyph-name="uniAD0D" unicode="&#xad0d;" 
d="M529 768v-53q0 -60 -3 -112.5t-15 -114.5l-122 12q16 86 18 170h-336v98h458zM184 434v142h123v-139q156 7 267 20l7 -88q-125 -21 -260 -27.5t-291 -6.5l-12 98q107 0 166 1zM145 272h124v-75h353v75h123v-346h-600v346zM622 26v77h-353v-77h353zM620 813h125v-206h109
v-102h-109v-199h-125v507z" />
    <glyph glyph-name="uniAD0F" unicode="&#xad0f;" 
d="M529 763v-54q0 -64 -4 -119.5t-20 -122.5l-120 10q20 91 22 187h-336v99h458zM184 392v164h123v-160q150 7 265 23l8 -89q-124 -23 -257 -30t-292 -7l-12 98q106 0 165 1zM261 59q64 30 95.5 72t31.5 89v26h133v-26q0 -47 31.5 -89t95.5 -72t158 -41l-45 -99
q-109 15 -187.5 56t-119.5 103q-41 -62 -119 -103t-186 -56l-47 99q95 11 159 41zM620 813h125v-256h109v-103h-109v-253h-125v612z" />
    <glyph glyph-name="uniAD10" unicode="&#xad10;" 
d="M336 250v-21q0 -55 25 -106t76 -86q53 36 79 87t26 105v21h122v-20q0 -73 41.5 -129t126.5 -82l-61 -90q-61 20 -103.5 57.5t-66.5 89.5q-23 -53 -64 -94t-100 -64q-114 44 -162 156q-24 -50 -66 -87.5t-101 -57.5l-60 90q83 28 125 85t42 126v20h121zM184 412v150h123
v-147q144 5 263 19l9 -88q-125 -21 -258.5 -28t-289.5 -7l-12 100q107 0 165 1zM71 766h458v-56q0 -63 -3.5 -116.5t-16.5 -118.5l-121 9q17 84 19 183h-336v99zM620 813h125v-218h109v-102h-109v-210h-125v530z" />
    <glyph glyph-name="uniAD11" unicode="&#xad11;" 
d="M529 763v-57q0 -64 -3.5 -118t-16.5 -119l-121 10q17 84 19 185h-336v99h458zM184 404v159h123v-156q168 8 263 19l9 -87q-215 -36 -548 -36l-12 100q107 0 165 1zM172.5 176q37.5 38 107 58.5t163.5 20.5q143 0 226 -45t83 -124t-83 -124.5t-226 -45.5q-142 0 -225 45.5
t-83 124.5q0 52 37.5 90zM308 32q47 -18 135 -18q182 0 182 72q0 73 -182 73q-88 0 -135 -18.5t-47 -54.5t47 -54zM620 813h125v-222h109v-104h-109v-222h-125v548z" />
    <glyph glyph-name="uniAD18" unicode="&#xad18;" 
d="M443 717v-68q0 -87 -3.5 -160t-18.5 -166l-112 9q19 132 19 285h-273v100h388zM141 220v247h114v-244q126 5 210 16l6 -89q-156 -32 -436 -32l-16 101q77 0 122 1zM505 797h117v-345h69v361h119v-897h-119v436h-69v-395h-117v840z" />
    <glyph glyph-name="uniAD1C" unicode="&#xad1c;" 
d="M445 746v-60q0 -69 -3.5 -127.5t-16.5 -129.5l-114 10q16 98 18 207h-266v100h382zM145 363v175h114v-171q126 5 211 16l6 -89q-163 -31 -443 -31l-14 99q80 0 126 1zM169 203h125v-171h532v-100h-657v271zM506 795h116v-250h65v267h118v-676h-118v309h-65v-289h-116v639
z" />
    <glyph glyph-name="uniAD20" unicode="&#xad20;" 
d="M445 764v-52q0 -59 -2.5 -110t-13.5 -113l-115 10q13 80 15 168h-266v97h382zM145 437v145h114v-141q124 5 210 16l6 -86q-167 -30 -441 -30l-15 95q80 0 126 1zM165 294h640v-226h-516v-53h541v-93h-664v233h517v49h-518v90zM506 795h116v-186h65v204h118v-486h-118v183
h-65v-178h-116v463z" />
    <glyph glyph-name="uniAD22" unicode="&#xad22;" 
d="M446 292v-223h-194v-57q64 1 109.5 3.5t94.5 10.5l10 -89q-63 -10 -119.5 -12.5t-159.5 -2.5h-54v231h192v51h-193v88h314zM146 439v144h113v-141q124 5 210 16l7 -85q-162 -30 -442 -30l-15 95q80 0 127 1zM64 764h381v-52q0 -59 -2.5 -110t-13.5 -113l-115 10
q13 80 15 168h-265v97zM490 292h316v-370h-316v370zM506 795h116v-184h65v202h119v-483h-119v181h-65v-177h-116v461zM693 15v186h-88v-186h88z" />
    <glyph glyph-name="uniAD29" unicode="&#xad29;" 
d="M445 764v-56q0 -62 -3.5 -115t-15.5 -117l-114 7q15 87 17 184h-265v97h381zM146 417v153h113v-150q123 5 210 16l7 -85q-159 -29 -444 -31l-14 96q81 0 128 1zM171 268h125v-75h387v75h123v-342h-635v342zM683 26v72h-387v-72h387zM506 795h116v-200h65v218h119v-512
h-119v194h-65v-186h-116v486z" />
    <glyph glyph-name="uniAD2C" unicode="&#xad2c;" 
d="M444 755v-55q0 -63 -2.5 -117t-13.5 -120l-115 12q13 87 15 182h-265v98h381zM145 403v160h113v-157q136 7 211 18l7 -84q-95 -20 -206.5 -27t-236.5 -8l-13 97q79 0 125 1zM195 105.5q42 58.5 42 131.5v19h121v-19q0 -57 25.5 -110t76.5 -89q52 37 77.5 90t25.5 109v19
h123v-19q0 -76 42 -134t127 -85l-60 -91q-122 43 -172 155q-49 -118 -161 -164q-116 43 -164 160q-52 -110 -170 -151l-60 91q85 29 127 87.5zM506 795h115v-201h65v219h119v-526h-119v206h-65v-199h-115v501z" />
    <glyph glyph-name="uniAD2D" unicode="&#xad2d;" 
d="M445 750v-56q0 -64 -2.5 -118.5t-12.5 -120.5l-115 8q12 84 14 189h-265v98h381zM146 394v156h113v-153q121 5 209 19l7 -85q-158 -34 -442 -34l-14 96q80 0 127 1zM249 197.5q85 42.5 236 42.5q152 0 236.5 -42.5t84.5 -120.5q0 -77 -85 -120t-236 -43t-236 43t-85 120
q0 78 85 120.5zM339.5 25.5q48.5 -16.5 145.5 -16.5q194 0 194 68q0 71 -194 71t-194 -71q0 -35 48.5 -51.5zM506 795h116v-209h65v227h119v-562h-119v235h-65v-206h-116v515z" />
    <glyph glyph-name="uniAD34" unicode="&#xad34;" 
d="M556 713v-65q0 -86 -4 -160.5t-18 -169.5l-123 13q23 137 23 283h-342v99h464zM207 194v245h123v-242q149 5 284 21l9 -90q-132 -22 -272 -29t-304 -7l-14 101q113 0 174 1zM663 814h124v-900h-124v900z" />
    <glyph glyph-name="uniAD35" unicode="&#xad35;" 
d="M549 755v-60q0 -67 -4 -124t-18 -125l-121 14q19 89 21 196h-329v99h451zM209 384v165h120v-161q146 5 278 21l6 -89q-129 -21 -264.5 -28t-300.5 -8l-15 99q114 0 176 1zM157 223h623v-308h-124v208h-499v100zM656 813h124v-549h-124v549z" />
    <glyph glyph-name="uniAD38" unicode="&#xad38;" 
d="M551 752v-70q0 -71 -3.5 -127t-16.5 -122l-122 16q21 95 21 203h-338v100h459zM213 362v176h121v-173q172 7 271 19l6 -88q-130 -21 -269 -28t-296 -7l-15 100q118 0 182 1zM181 197h125v-165h496v-100h-621v265zM657 813h124v-673h-124v673z" />
    <glyph glyph-name="uniAD3C" unicode="&#xad3c;" 
d="M545 770v-51q0 -60 -4 -112t-18 -114l-119 13q16 85 18 167h-325v97h448zM211 442v143h120v-140q159 7 274 20l6 -85q-129 -21 -264 -27.5t-300 -7.5l-15 96q116 0 179 1zM165 297h615v-227h-490v-55h521v-93h-645v233h492v52h-493v90zM657 813h123v-480h-123v480z" />
    <glyph glyph-name="uniAD44" unicode="&#xad44;" 
d="M780 812v-539h-124v539h124zM209 402v150h120v-146q157 7 276 23l7 -84q-127 -24 -260.5 -31.5t-304.5 -9.5l-14 97q113 0 176 1zM99 760h449v-56q0 -64 -3 -118t-15 -119l-123 10q16 86 18 184h-326v99zM171 236h609v-310h-609v310zM658 24v113h-364v-113h364z" />
    <glyph glyph-name="uniAD45" unicode="&#xad45;" 
d="M780 811v-504h-124v504h124zM212 421v143h121v-139q149 5 272 19l7 -86q-128 -20 -263.5 -26.5t-301.5 -7.5l-14 96q116 0 179 1zM99 769h451v-57q0 -62 -3 -114.5t-15 -115.5l-121 10q16 84 18 179h-330v98zM171 271h123v-78h363v78h123v-345h-609v345zM657 25v72h-363
v-72h363z" />
    <glyph glyph-name="uniAD47" unicode="&#xad47;" 
d="M779 812v-613h-124v613h124zM208 398v149h120v-146q152 5 276 19l7 -88q-130 -21 -268.5 -28t-295.5 -7l-15 100q115 0 176 1zM99 761h448v-73q0 -68 -3 -119t-15 -109l-122 14q10 51 13.5 94.5t3.5 93.5h-325v99zM282 63q64 33 96.5 78.5t32.5 95.5v19h126v-19
q0 -50 32 -95.5t96 -78.5t156 -46l-46 -97q-107 16 -183.5 60t-117.5 109q-41 -65 -117.5 -109t-183.5 -60l-46 97q91 13 155 46z" />
    <glyph glyph-name="uniAD49" unicode="&#xad49;" 
d="M780 813v-552h-124v552h124zM209 396v152h120v-149q161 7 276 20l7 -85q-129 -21 -261.5 -27.5t-303.5 -7.5l-14 96q114 0 176 1zM99 762h449v-65q0 -68 -3.5 -123t-16.5 -118l-120 13q10 52 13.5 96.5t4.5 98.5h-327v98zM241.5 206q83.5 44 229.5 44t229 -44t83 -123
t-83.5 -124t-228.5 -45t-229 45t-84 124t83.5 123zM334 29.5q47 -17.5 137 -17.5t137 17.5t47 53.5q0 72 -184 72t-184 -72q0 -36 47 -53.5z" />
    <glyph glyph-name="uniAD50" unicode="&#xad50;" 
d="M767 735v-89q0 -112 -5.5 -202.5t-26.5 -209.5l-123 12q19 110 24.5 197.5t5.5 192.5h-531v99h656zM31 126h174v284h122v-284h99v284h122v-284h294v-101h-811v101z" />
    <glyph glyph-name="uniAD54" unicode="&#xad54;" 
d="M754 765v-67q0 -74 -3 -133.5t-15 -130.5l-123 11q18 108 18 221h-512v99h635zM33 374h174v168h122v-168h105v168h121v-168h285v-99h-807v99zM128 206h123v-175h512v-99h-635v274z" />
    <glyph glyph-name="uniAD58" unicode="&#xad58;" 
d="M754 783v-60q0 -61 -2.5 -108.5t-12.5 -103.5l-121 11q11 71 13 163h-512v98h635zM33 471h175v141h122v-141h101v141h121v-141h288v-97h-807v97zM122 321h623v-239h-498v-63h521v-97h-644v244h497v58h-499v97z" />
    <glyph glyph-name="uniAD60" unicode="&#xad60;" 
d="M742 253v-327h-617v327h617zM33 420h174v148h122v-148h105v148h121v-148h285v-99h-807v99zM119 778h635v-61q0 -67 -3 -122t-15 -121l-122 10q9 54 12.5 99t4.5 98h-512v97zM620 24v131h-373v-131h373z" />
    <glyph glyph-name="uniAD61" unicode="&#xad61;" 
d="M752 781v-55q0 -66 -3.5 -122.5t-16.5 -126.5l-123 13q17 92 19 193h-512v98h636zM33 435h174v150h122v-150h96v150h123v-150h292v-99h-807v99zM129 286h122v-87h368v87h123v-360h-613v360zM619 24v82h-368v-82h368z" />
    <glyph glyph-name="uniAD63" unicode="&#xad63;" 
d="M764 775v-77q0 -73 -3.5 -127.5t-17.5 -116.5l-122 11q12 56 15.5 105t3.5 107h-519v98h643zM31 402h179v169h122v-169h97v169h121v-169h292v-99h-811v99zM240 57.5q65 31.5 97.5 76t32.5 92.5v27h124v-27q0 -49 32.5 -93t98 -75.5t160.5 -42.5l-45 -96
q-108 15 -186.5 56.5t-121.5 103.5q-42 -62 -121 -103.5t-187 -56.5l-43 96q94 11 159 42.5z" />
    <glyph glyph-name="uniAD65" unicode="&#xad65;" 
d="M754 773v-64q0 -68 -3 -124.5t-15 -123.5l-123 11q10 56 13.5 102.5t4.5 100.5h-512v98h635zM33 405h174v154h122v-154h105v154h121v-154h285v-99h-807v99zM154 174.5q39 38.5 110 59t167 20.5q97 0 168.5 -20.5t110.5 -59t39 -90.5q0 -51 -39 -89t-111 -58.5t-168 -20.5
q-95 0 -166.5 20.5t-110.5 58.5t-39 89q0 52 39 90.5zM288.5 29q49.5 -19 142.5 -19t144 19t51 55q0 38 -50.5 57t-144.5 19q-93 0 -142.5 -19t-49.5 -57q0 -36 49.5 -55z" />
    <glyph glyph-name="uniAD6C" unicode="&#xad6c;" 
d="M746 760v-79q0 -86 -4 -152.5t-19 -150.5h119v-100h-347v-362h-125v362h-339v100h568q16 78 20.5 143.5t4.5 140.5h-499v98h621z" />
    <glyph glyph-name="uniAD6D" unicode="&#xad6d;" 
d="M747 774v-71q0 -69 -3 -122t-15 -117h114v-100h-345v-129h250v-320h-123v222h-512v98h262v129h-344v100h573q21 98 21 211h-494v99h616z" />
    <glyph glyph-name="uniAD70" unicode="&#xad70;" 
d="M747 770v-76q0 -76 -3 -134t-16 -128h115v-98h-338v-192h-125v192h-349v98h572q14 65 18 120.5t4 119.5h-494v98h616zM126 221h124v-189h510v-100h-634v289z" />
    <glyph glyph-name="uniAD73" unicode="&#xad73;" 
d="M747 774v-71q0 -68 -3 -120t-14 -115h113v-99h-345v-117h248v-97h-495v-131h507v-98h-631v326h248v117h-344v99h574q20 98 20 207h-494v99h616z" />
    <glyph glyph-name="uniAD74" unicode="&#xad74;" 
d="M747 779v-61q0 -60 -3 -109t-14 -106h113v-98h-346v-84h248v-240h-498v-62h521v-97h-644v243h497v60h-499v96h252v84h-343v98h575q17 82 19 178h-494v98h616z" />
    <glyph glyph-name="uniAD75" unicode="&#xad75;" 
d="M747 780v-61q0 -61 -3 -110.5t-14 -107.5h113v-99h-346v-104h253v-380h-122v282h-168v89h-45v-221h-179v-54q101 1 148.5 4.5t90.5 14.5l13 -91q-53 -12 -113.5 -15.5t-199.5 -3.5h-59v232h180v52h-182v91h260v104h-343v99h575q17 83 19 180h-494v99h616z" />
    <glyph glyph-name="uniAD76" unicode="&#xad76;" 
d="M747 779v-60q0 -62 -3 -112.5t-15 -110.5h114v-99h-347v-99h255v-376h-296v352h-49v-201h-172v-59q66 0 105.5 2.5t79.5 9.5l9 -89q-49 -10 -98 -12.5t-164 -2.5h-51v235h171v52h-173v89h261v99h-343v99h574q18 85 20 185h-494v98h616zM647 14v194h-88v-194h88z" />
    <glyph glyph-name="uniAD7B" unicode="&#xad7b;" 
d="M746 780v-55q0 -59 -2.5 -110t-12.5 -112h112v-99h-351v-112h-100v-217h-165v-55q75 1 116.5 3.5t82.5 10.5l10 -90q-52 -9 -104.5 -11.5t-167.5 -2.5h-53v231h165v49h-166v89h257v105h-336v99h575q17 84 19 180h-494v97h615zM422 261h132v74h120v-74h133v-89h-385v89z
M499.5 120.5q44.5 32.5 114.5 32.5q71 0 115 -32.5t44 -86.5q0 -55 -44 -87.5t-115 -32.5q-70 0 -114.5 32.5t-44.5 87.5q0 54 44.5 86.5zM575 3.5q15 -10.5 39 -10.5t39 10.5t15 30.5t-15 30t-39 10t-39 -10.5t-15 -29.5q0 -20 15 -30.5z" />
    <glyph glyph-name="uniAD7C" unicode="&#xad7c;" 
d="M745 776v-69q0 -69 -3 -122t-15 -116h116v-100h-346v-118h247v-325h-617v325h247v118h-343v100h572q20 98 20 209h-495v98h617zM622 24v130h-373v-130h373z" />
    <glyph glyph-name="uniAD7D" unicode="&#xad7d;" 
d="M745 779v-70q0 -68 -3 -120t-14 -113h115v-98h-349v-126h-123v126h-340v98h573q19 96 19 204h-495v99h617zM126 294h123v-91h370v91h124v-368h-617v368zM619 23v85h-370v-85h370z" />
    <glyph glyph-name="uniAD7F" unicode="&#xad7f;" 
d="M746 778v-60q0 -66 -3 -121.5t-16 -123.5h116v-99h-347v-121h-124v121h-341v99h572q20 93 22 206h-494v99h615zM240.5 51q64.5 28 97 65.5t32.5 76.5v27h127v-27q0 -41 32 -78.5t96.5 -64.5t157.5 -37l-41 -94q-111 13 -189.5 50t-119.5 95q-42 -57 -120.5 -95
t-186.5 -50l-41 94q91 10 155.5 38z" />
    <glyph glyph-name="uniAD81" unicode="&#xad81;" 
d="M747 780v-71q0 -69 -3 -122.5t-15 -117.5h114v-99h-346v-111q120 -10 186.5 -54.5t66.5 -116.5q0 -81 -83.5 -127t-230.5 -46t-230.5 46t-83.5 127q0 72 66.5 116.5t185.5 54.5v111h-343v99h572q22 100 22 212h-494v99h616zM436 14q190 0 190 74t-190 74t-190 -74
t190 -74z" />
    <glyph glyph-name="uniAD82" unicode="&#xad82;" 
d="M746 775v-54q0 -65 -3 -120.5t-15 -123.5h115v-98h-346v-106h252v-98h-246q14 -59 86.5 -103t196.5 -58l-44 -94q-108 13 -186.5 51.5t-119.5 97.5q-41 -59 -119.5 -97.5t-187.5 -51.5l-42 94q123 14 195 57.5t86 103.5h-246v98h252v106h-343v98h575q17 93 19 200h-494
v98h615z" />
    <glyph glyph-name="uniAD88" unicode="&#xad88;" 
d="M791 813v-898h-124v236h-181v95h181v567h124zM386 409q21 117 23 237h-314v99h437v-56q0 -70 -3.5 -131.5t-17.5 -140.5q64 6 95 10l6 -88q-119 -19 -244 -27v-356h-125v350q-97 -4 -207 -4l-15 99q242 2 365 8z" />
    <glyph glyph-name="uniAD89" unicode="&#xad89;" 
d="M792 813v-575h-125v53h-176v91h176v431h125zM392 512q15 85 17 162h-302v98h425v-44q0 -52 -3 -100t-14 -107q46 3 89 9l8 -88q-99 -17 -245 -28v-175h-125v168q-109 -3 -204 -3l-15 99q223 0 369 9zM160 201h632v-286h-125v189h-507v97z" />
    <glyph glyph-name="uniAD8C" unicode="&#xad8c;" 
d="M791 812v-674h-125v99h-174v96h174v479h125zM391 482q16 104 18 187h-302v98h427v-31q0 -57 -3 -114t-15 -131q58 6 86 10l8 -87q-103 -18 -224 -28v-194h-113v-160h539v-100h-664v273h115v173q-105 -4 -222 -4l-16 98q240 2 366 10z" />
    <glyph glyph-name="uniAD90" unicode="&#xad90;" 
d="M792 813v-502h-126v36h-175v81h175v385h126zM390 543q14 78 17 140h-294v99h416v-34q0 -47 -3 -92.5t-14 -102.5q33 3 97 11l8 -84q-109 -20 -253 -30v-138h-124v132q-93 -4 -197 -4l-15 94q196 0 362 9zM168 283h624v-220h-500v-51h529v-90h-651v223h498v48h-500v90z
" />
    <glyph glyph-name="uniAD9C" unicode="&#xad9c;" 
d="M791 813v-538h-125v41h-176v91h176v406h125zM393 532q13 80 15 149h-302v98h425v-42q0 -50 -2.5 -95t-12.5 -100q57 6 87 10l8 -89q-108 -19 -245 -29v-158h-125v151q-97 -4 -204 -4l-15 99q243 2 371 10zM217.5 102.5q40.5 55.5 40.5 124.5v18h121v-18
q0 -53 23.5 -102.5t71.5 -83.5q49 36 73.5 85t24.5 101v18h122v-18q0 -71 40.5 -126t122.5 -80l-59 -91q-119 39 -167 146q-45 -111 -156 -155q-109 42 -156 151q-50 -102 -164 -142l-60 91q82 26 122.5 81.5z" />
    <glyph glyph-name="uniAD9D" unicode="&#xad9d;" 
d="M791 813v-567h-124v50h-176v89h176v428h124zM392 510q17 84 19 165h-301v97h423v-47q0 -53 -3 -100.5t-14 -104.5q64 6 90 10l9 -85q-108 -20 -250 -30v-162h-124v156q-66 -3 -199 -5l-14 97q219 0 364 9zM249.5 195q83.5 42 232.5 42t232 -42t83 -119t-83 -119t-232 -42
t-232.5 42t-83.5 119t83.5 119zM340 27q47 -16 142 -16t141.5 16t46.5 49q0 34 -46.5 50t-141.5 16t-142 -16t-47 -50q0 -33 47 -49z" />
    <glyph glyph-name="uniADA4" unicode="&#xada4;" 
d="M814 813v-897h-119v897h119zM289 421q20 106 22 201h-244v99h362v-45q0 -60 -3.5 -116.5t-16.5 -129.5q44 4 65 7l10 -88q-74 -14 -174 -22v-339h-118v331q-88 -3 -161 -3l-12 99q152 0 270 6zM378 260h139v537h116v-839h-116v205h-139v97z" />
    <glyph glyph-name="uniADB7" unicode="&#xadb7;" 
d="M804 813v-637h-118v637h118zM288 505q15 70 19 151h-233v98h352v-38q0 -51 -3 -98.5t-14 -105.5l65 7l8 -86q-81 -16 -169 -23v-206h-118v198q-120 -4 -164 -4l-12 101q153 0 269 6zM292 49q65 27 96.5 65t31.5 82v16h124v-16q0 -68 72 -119t212 -65l-44 -95
q-107 13 -183.5 50t-118.5 94q-42 -57 -120.5 -94t-188.5 -50l-42 95q96 10 161 37zM370 376h142v417h116v-567h-116v60h-142v90z" />
    <glyph glyph-name="uniADB8" unicode="&#xadb8;" 
d="M804 813v-552h-119v552h119zM289 518q14 72 18 148h-233v98h352v-39q0 -49 -3 -95.5t-14 -102.5q44 4 65 7l7 -85q-71 -14 -169 -22v-161h-117v154q-80 -4 -164 -4l-12 96q152 0 270 6zM194.5 96.5q42.5 53.5 42.5 119.5v16h120v-16q0 -52 25.5 -100.5t76.5 -81.5
q51 34 77 83t26 99v16h123v-16q0 -68 42.5 -121.5t127.5 -76.5l-58 -90q-126 38 -175 144q-49 -112 -161 -154q-116 42 -164 152q-52 -105 -172 -142l-58 90q85 25 127.5 78.5zM369 397h143v400h115v-529h-115v39h-143v90z" />
    <glyph glyph-name="uniADC0" unicode="&#xadc0;" 
d="M792 813v-897h-124v897h124zM383 407q23 126 25 244h-309v99h433v-50q0 -70 -4 -135.5t-19 -150.5q71 6 108 10l9 -91q-116 -17 -249 -25v-344h-124v339q-99 -4 -211 -4l-14 101q210 0 355 7z" />
    <glyph glyph-name="uniADC1" unicode="&#xadc1;" 
d="M778 813v-539h-123v539h123zM383 478q19 95 21 194h-298v98h421v-56q0 -60 -3 -111.5t-15 -114.5q49 4 98 12l7 -89q-103 -19 -233 -29v-148h397v-320h-123v221h-497v99h98v141q-71 -3 -212 -5l-16 99q212 0 355 9z" />
    <glyph glyph-name="uniADC4" unicode="&#xadc4;" 
d="M394 457q16 94 20 200h-307v99h430v-47q0 -59 -3 -115t-14 -127q62 6 87 10l8 -87q-88 -16 -214 -27v-186h-125v178q-104 -5 -232 -5l-15 99q216 0 365 8zM149 206h123v-174h528v-100h-651v274zM654 813h124v-670h-124v670z" />
    <glyph glyph-name="uniADC8" unicode="&#xadc8;" 
d="M778 812v-460h-124v460h124zM390 519q16 83 18 162h-296v97h420v-46q0 -53 -3 -100.5t-14 -103.5q47 3 92 9l6 -85q-108 -17 -237 -25v-112h402v-237h-481v-61h510v-95h-634v243h481v56h-482v94h79v105q-69 -3 -207 -5l-14 97q212 0 360 7z" />
    <glyph glyph-name="uniADD0" unicode="&#xadd0;" 
d="M778 813v-519h-123v519h123zM388 475q14 84 16 191h-298v99h421v-60q0 -61 -2 -110.5t-11 -108.5q38 4 93 11l7 -88q-102 -19 -230 -29v-129h394v-325h-598v325h78v121q-71 -3 -214 -5l-16 99q236 2 360 9zM656 24v131h-353v-131h353z" />
    <glyph glyph-name="uniADD1" unicode="&#xadd1;" 
d="M778 813v-510h-123v510h123zM391 513q17 80 19 173h-304v100h427v-59q0 -57 -3 -104t-14 -102q33 2 89 8l7 -88q-108 -17 -237 -25v-130h-125v123q-97 -4 -207 -4l-15 100q241 2 363 8zM166 266h125v-75h364v75h123v-340h-612v340zM655 23v75h-364v-75h364z" />
    <glyph glyph-name="uniADD3" unicode="&#xadd3;" 
d="M776 812v-628h-124v628h124zM388 477q17 91 19 196h-294v99h418v-58q0 -62 -3 -114t-15 -114q59 6 90 10l7 -88q-112 -20 -242 -28v-181h-124v174q-106 -3 -198 -3l-15 99q213 0 357 8zM307.5 58.5q64.5 31.5 96.5 75.5t32 94v21h127v-21q0 -50 30.5 -94t92.5 -75.5
t152 -43.5l-46 -96q-104 16 -179 58t-114 104q-42 -62 -119 -104t-185 -58l-46 96q94 12 158.5 43.5z" />
    <glyph glyph-name="uniADD5" unicode="&#xadd5;" 
d="M777 813v-552h-124v552h124zM388 470q18 92 20 200h-295v98h419v-58q0 -63 -3 -115.5t-15 -115.5q60 6 89 10l8 -88q-106 -19 -242 -29v-122q43 7 101 7q146 0 229.5 -45t83.5 -126t-83.5 -126t-229.5 -45t-229 45t-83 126q0 41 22.5 73.5t64.5 54.5v152q-71 -3 -198 -3
l-15 99q212 0 356 8zM333.5 30.5q46.5 -18.5 136.5 -18.5t137 18.5t47 55.5q0 74 -184 74q-183 0 -183 -74q0 -37 46.5 -55.5z" />
    <glyph glyph-name="uniADDC" unicode="&#xaddc;" 
d="M738 762v-58q0 -83 -4.5 -157t-20.5 -171h129v-100h-193v-361h-124v361h-186v-361h-124v361h-184v100h557q26 137 28 286h-488v100h610z" />
    <glyph glyph-name="uniADE0" unicode="&#xade0;" 
d="M747 770v-75q0 -75 -3 -131.5t-15 -124.5h114v-99h-204v-197h-121v197h-96v-197h-121v197h-270v99h574q12 63 16 117t4 116h-497v98h619zM118 225h123v-193h532v-100h-655v293z" />
    <glyph glyph-name="uniADE4" unicode="&#xade4;" 
d="M747 779v-60q0 -60 -2.5 -108t-13.5 -105h112v-98h-202v-87h104v-240h-498v-62h521v-97h-644v243h497v60h-499v96h109v87h-200v98h576q16 80 18 176h-494v97h616zM518 321v87h-163v-87h163z" />
    <glyph glyph-name="uniADEC" unicode="&#xadec;" 
d="M745 776v-69q0 -69 -3 -122t-15 -115h116v-99h-202v-120h103v-325h-617v325h104v120h-200v99h572q20 98 20 208h-495v98h617zM622 24v130h-373v-130h373zM518 251v120h-163v-120h163z" />
    <glyph glyph-name="uniADF8" unicode="&#xadf8;" 
d="M741 729v-105q0 -124 -5.5 -217t-26.5 -216l-124 11q22 115 27.5 207t5.5 215v5h-503v100h626zM31 135h811v-101h-811v101z" />
    <glyph glyph-name="uniADF9" unicode="&#xadf9;" 
d="M747 773v-62q0 -71 -3 -130.5t-15 -133.5h114v-99h-812v99h574q18 106 20 227h-494v99h616zM117 241h632v-326h-124v228h-508v98z" />
    <glyph glyph-name="uniADFC" unicode="&#xadfc;" 
d="M747 763v-77q0 -77 -3.5 -137t-16.5 -134h116v-99h-812v99h572q14 68 18 125.5t4 123.5h-494v99h616zM133 237h124v-205h516v-99h-640v304z" />
    <glyph glyph-name="uniADFF" unicode="&#xadff;" 
d="M746 771v-71q0 -72 -3 -127.5t-16 -122.5h116v-99h-812v99h572q13 62 17.5 114.5t4.5 108.5h-494v98h615zM127 257h619v-98h-495v-135h507v-99h-631v332z" />
    <glyph glyph-name="uniAE00" unicode="&#xae00;" 
d="M747 776v-60q0 -61 -3 -111t-14 -109h113v-99h-812v99h574q18 82 20 182h-494v98h616zM122 334h623v-250h-498v-65h521v-96h-644v252h497v62h-499v97z" />
    <glyph glyph-name="uniAE01" unicode="&#xae01;" 
d="M747 775v-64q0 -66 -3.5 -118.5t-16.5 -118.5h116v-99h-812v99h572q12 55 16.5 102.5t5.5 99.5h-494v99h616zM114 302h301v-232h-179v-56q97 1 146 4.5t93 14.5l13 -90q-53 -13 -113.5 -16.5t-199.5 -3.5h-59v234h180v53h-182v92zM460 302h290v-384h-122v286h-168v98z
" />
    <glyph glyph-name="uniAE02" unicode="&#xae02;" 
d="M406 306v-229h-172v-63q64 0 104 3t81 10l9 -90q-49 -10 -98 -12t-164 -2h-51v237h171v56h-173v90h293zM31 476h572q20 90 22 200h-494v98h616v-63q0 -66 -3.5 -117.5t-16.5 -117.5h116v-98h-812v98zM455 306h296v-383h-296v383zM647 14v201h-88v-201h88z" />
    <glyph glyph-name="uniAE07" unicode="&#xae07;" 
d="M554 269v66h120v-66h133v-90h-385v90h132zM31 477h572q12 55 16.5 101.5t5.5 97.5h-494v99h616v-64q0 -66 -3.5 -117.5t-16.5 -116.5h116v-98h-812v98zM110 306h282v-228h-165v-61q74 0 115.5 2.5t83.5 10.5l10 -89q-52 -10 -104.5 -12.5t-167.5 -2.5h-53v237h165v52
h-166v91zM499.5 122q44.5 32 114.5 32q71 0 115 -32t44 -86q0 -55 -44 -88t-115 -33q-70 0 -114.5 33t-44.5 88q0 54 44.5 86zM575 6q15 -10 39 -10q25 0 39.5 10t14.5 30q0 19 -15 28.5t-39 9.5t-39 -9.5t-15 -28.5q0 -20 15 -30z" />
    <glyph glyph-name="uniAE08" unicode="&#xae08;" 
d="M747 771v-70q0 -73 -3.5 -128.5t-17.5 -123.5h117v-99h-812v99h571q14 62 18.5 115t4.5 109h-494v98h616zM127 254h617v-328h-617v328zM622 24v132h-373v-132h373z" />
    <glyph glyph-name="uniAE09" unicode="&#xae09;" 
d="M250 301v-94h371v94h123v-375h-616v375h122zM31 461h572q22 101 22 216h-494v99h616v-71q0 -70 -3.5 -123.5t-16.5 -120.5h116v-100h-812v100zM621 25v85h-371v-85h371z" />
    <glyph glyph-name="uniAE0B" unicode="&#xae0b;" 
d="M741 770v-62q0 -75 -4 -138t-19 -144h121v-99h-807v99h563q13 69 18 126.5t6 118.5h-490v99h612zM240 58.5q65 31.5 97.5 75.5t32.5 93v31h124v-31q0 -49 32.5 -93t98 -75.5t160.5 -43.5l-45 -96q-108 15 -186.5 56.5t-120.5 104.5q-43 -63 -121.5 -104.5t-186.5 -56.5
l-44 96q94 12 159 43.5z" />
    <glyph glyph-name="uniAE0D" unicode="&#xae0d;" 
d="M747 769v-70q0 -73 -3.5 -130t-17.5 -125h117v-99h-813v99h571q14 63 19 116.5t5 111.5h-494v97h616zM206 220q84 46 230 46t230 -46t84 -129q0 -82 -84 -128.5t-230 -46.5t-230 46.5t-84 128.5q0 83 84 129zM436 16q190 0 190 75q0 76 -190 76t-190 -76q0 -75 190 -75z
" />
    <glyph glyph-name="uniAE13" unicode="&#xae13;" 
d="M373 286v70h123v-70h270v-92h-662v92h269zM31 496h574q18 82 20 182h-494v99h616v-61q0 -61 -3 -111t-14 -109h113v-99h-812v99zM232 134.5q70 31.5 202 31.5t203 -31.5t71 -92.5t-71 -93.5t-203 -32.5q-131 0 -201.5 32.5t-70.5 93.5t70 92.5zM327 10q35 -10 107 -10
q73 0 107.5 10t34.5 32q0 21 -34.5 30.5t-107.5 9.5q-72 0 -107 -9.5t-35 -30.5q0 -22 35 -32z" />
    <glyph glyph-name="uniAE14" unicode="&#xae14;" 
d="M543 712v-76q0 -92 -4.5 -165.5t-22.5 -165.5l-121 15q16 81 21 149t5 144h-329v99h451zM602 255l7 -91q-129 -23 -267 -31t-297 -9l-12 102q358 0 569 29zM646 813h125v-897h-125v897z" />
    <glyph glyph-name="uniAE30" unicode="&#xae30;" 
d="M778 813v-897h-124v897h124zM287.5 358q82.5 110 97.5 262h-303v100h430q0 -220 -93 -381t-318 -270l-65 98q169 81 251.5 191z" />
    <glyph glyph-name="uniAE31" unicode="&#xae31;" 
d="M397 462q-108 -120 -312 -174l-48 96q150 39 234.5 111t98.5 167h-279v99h414q0 -179 -108 -299zM166 254h610v-339h-125v241h-485v98zM651 813h125v-521h-125v521z" />
    <glyph glyph-name="uniAE34" unicode="&#xae34;" 
d="M774 812v-651h-125v651h125zM279.5 471q85.5 76 100.5 175h-285v101h419q0 -182 -108.5 -307.5t-312.5 -185.5l-49 98q150 43 235.5 119zM179 216h125v-185h489v-100h-614v285z" />
    <glyph glyph-name="uniAE37" unicode="&#xae37;" 
d="M389.5 465.5q-105.5 -119.5 -303.5 -173.5l-50 96q145 38 228 108.5t99 163.5h-279v101h411q0 -176 -105.5 -295.5zM192 270h592v-99h-466v-146h482v-99h-608v344zM658 812h125v-502h-125v502z" />
    <glyph glyph-name="uniAE38" unicode="&#xae38;" 
d="M775 813v-451h-125v451h125zM368 679h-275v99h413q0 -181 -103 -286.5t-315 -148.5l-43 99q303 58 323 237zM179 324h596v-240h-470v-63h493v-97h-617v249h469v56h-471v95z" />
    <glyph glyph-name="uniAE3A" unicode="&#xae3a;" 
d="M776 813v-467h-125v467h125zM277.5 526.5q79.5 62.5 91.5 149.5h-278v98h414q0 -351 -416 -439l-43 99q152 30 231.5 92.5zM137 307h302v-229h-183v-58q63 1 106 4t88 11l9 -94q-56 -10 -110 -13t-157 -3h-54v239h183v50h-184v93zM480 307h296v-382h-296v382zM671 15v201
h-85v-201h85z" />
    <glyph glyph-name="uniAE40" unicode="&#xae40;" 
d="M395 464q-109 -120 -311 -172l-47 98q149 38 234 109t99 164h-282v98h416q0 -177 -109 -297zM184 274h592v-348h-592v348zM654 24v152h-347v-152h347zM651 812h125v-500h-125v500z" />
    <glyph glyph-name="uniAE41" unicode="&#xae41;" 
d="M776 813v-487h-125v487h125zM369 669h-279v98h415q0 -180 -103.5 -291t-315.5 -158l-44 99q304 62 327 252zM183 291h124v-88h346v88h123v-365h-593v365zM653 25v82h-346v-82h346z" />
    <glyph glyph-name="uniAE43" unicode="&#xae43;" 
d="M774 812v-594h-124v594h124zM276.5 470.5q83.5 75.5 98.5 176.5h-283v100h414q0 -183 -105.5 -307.5t-311.5 -184.5l-47 97q151 43 234.5 118.5zM280 62q64 34 96.5 81.5t32.5 99.5v30h129v-30q0 -52 32 -99.5t95 -81.5t154 -47l-47 -97q-106 18 -182.5 63t-116.5 112
q-40 -67 -117 -112t-184 -63l-47 97q91 13 155 47z" />
    <glyph glyph-name="uniAE44" unicode="&#xae44;" 
d="M394 464q-109 -120 -311 -172l-47 98q149 38 234 109t99 164h-282v98h416q0 -177 -109 -297zM191 105q42 60 42 131v44h120v-44q0 -58 25.5 -111t76.5 -89q53 38 79 92t26 108v44h123v-44q0 -75 41 -134.5t126 -86.5l-61 -90q-120 41 -170 154q-23 -55 -63.5 -97.5
t-98.5 -65.5q-115 43 -163 160q-52 -110 -168 -151l-60 90q83 30 125 90zM650 813h125v-502h-125v502z" />
    <glyph glyph-name="uniAE45" unicode="&#xae45;" 
d="M774 813v-527h-125v527h125zM267.5 483.5q86.5 74.5 101.5 170.5h-280v99h414q0 -177 -110 -301.5t-309 -179.5l-49 97q146 40 232.5 114.5zM203.5 192q37.5 41 106.5 62.5t163 21.5q93 0 162 -21.5t106.5 -62.5t37.5 -96q0 -56 -37.5 -97t-106.5 -62.5t-162 -21.5
q-94 0 -163 21.5t-106.5 62.5t-37.5 97q0 55 37.5 96zM337 35q47 -21 136 -21q88 0 135 21t47 61q0 41 -46.5 61.5t-135.5 20.5t-136 -20.5t-47 -61.5q0 -40 47 -61z" />
    <glyph glyph-name="uniAE46" unicode="&#xae46;" 
d="M396 467.5q-107 -115.5 -313 -166.5l-42 99q149 35 231.5 102.5t96.5 157.5h-282v99h416q0 -176 -107 -291.5zM288.5 45.5q60.5 24.5 92 59t34.5 72.5h-233v99h598v-99h-238q3 -38 35 -72.5t93 -59t149 -33.5l-42 -94q-106 12 -182 48.5t-116 91.5q-41 -55 -116 -91.5
t-180 -48.5l-41 94q86 9 146.5 33.5zM648 813h125v-497h-125v497z" />
    <glyph glyph-name="uniAE4A" unicode="&#xae4a;" 
d="M407.5 466.5q-108.5 -113.5 -310.5 -159.5l-49 98q152 32 236.5 98t97.5 152h-287v100h421q0 -175 -108.5 -288.5zM167 28h114v163h-106v97h609v-97h-107v-163h116v-99h-626v99zM555 28v163h-152v-163h152zM649 812h124v-482h-124v482z" />
    <glyph glyph-name="uniAE4C" unicode="&#xae4c;" 
d="M742 813v-353h119v-103h-119v-441h-124v897h124zM136 373.5q35 103.5 41 246.5h-124v101h243q0 -136 -14 -239.5t-54.5 -197.5t-116.5 -179l-97 70q87 95 122 198.5zM385.5 341q34.5 118 40.5 279h-100v101h216q0 -146 -13 -258t-52 -217t-114 -198l-98 69
q86 106 120.5 224z" />
    <glyph glyph-name="uniAE4D" unicode="&#xae4d;" 
d="M735 812v-228h120v-102h-120v-205h-124v535h124zM131 513q36 57 46 139h-121v100h240q0 -148 -43.5 -246.5t-154.5 -177.5l-78 76q75 52 111 109zM139 241h596v-327h-124v227h-472v100zM382.5 493.5q36.5 66.5 45.5 158.5h-99v100h218q0 -154 -42 -261.5t-148 -196.5
l-87 72q76 61 112.5 127.5z" />
    <glyph glyph-name="uniAE4E" unicode="&#xae4e;" 
d="M735 812v-207h120v-103h-120v-206h-124v516h124zM131 520.5q36 56.5 46 139.5h-121v99h240q0 -148 -43.5 -246t-154.5 -177l-78 77q75 51 111 107.5zM113 258h296v-343h-122v244h-174v99zM382.5 502q36.5 66 45.5 158h-99v99h218q0 -153 -42 -259.5t-147 -194.5l-88 70
q76 61 112.5 127zM446 258h289v-343h-122v244h-167v99z" />
    <glyph glyph-name="uniAE50" unicode="&#xae50;" 
d="M252 477q-43 -109 -150 -197l-81 77q75 62 111 127t45 157h-121v99h239q0 -154 -43 -263zM150 214h125v-182h491v-100h-616v282zM382.5 463q37.5 75 46.5 178h-103v99h220q0 -165 -43.5 -283.5t-155.5 -213.5l-80 77q78 68 115.5 143zM611 812h124v-271h120v-102h-120
v-281h-124v654z" />
    <glyph glyph-name="uniAE54" unicode="&#xae54;" 
d="M736 813v-175h119v-103h-119v-176h-125v454h125zM126.5 545.5q35.5 50.5 45.5 124.5h-120v99h240q0 -140 -43 -231.5t-149 -167.5l-79 78q70 47 105.5 97.5zM141 322h595v-240h-471v-59h501v-97h-623v246h469v55h-471v95zM381.5 530.5q35.5 57.5 45.5 139.5h-103v99h222
q0 -145 -42 -243.5t-146 -178.5l-85 72q73 54 108.5 111.5z" />
    <glyph glyph-name="uniAE56" unicode="&#xae56;" 
d="M735 813v-179h120v-101h-120v-189h-124v469h124zM127.5 545q35.5 50 45.5 123h-121v99h240q0 -139 -43 -230t-149 -166l-78 77q70 47 105.5 97zM99 303h295v-228h-172v-59q61 1 102 4t84 12l10 -93q-54 -10 -105.5 -12.5t-158.5 -2.5h-53v238h173v49h-175v92z
M382.5 524.5q35.5 59.5 44.5 143.5h-104v99h223q0 -147 -41.5 -246.5t-146.5 -180.5l-85 72q74 53 109.5 112.5zM440 303h295v-379h-295v379zM628 15v197h-81v-197h81z" />
    <glyph glyph-name="uniAE5C" unicode="&#xae5c;" 
d="M253 510.5q-43 -99.5 -153 -179.5l-79 77q74 53 110 111t46 142h-121v99h240q0 -150 -43 -249.5zM154 263h581v-337h-581v337zM381.5 497.5q36.5 67.5 45.5 163.5h-101v99h217q0 -157 -40.5 -265.5t-145.5 -197.5l-88 71q76 62 112.5 129.5zM614 24v142h-337v-142h337z
M611 812h124v-200h120v-102h-120v-208h-124v510z" />
    <glyph glyph-name="uniAE5D" unicode="&#xae5d;" 
d="M253 518q-43 -98 -153 -177l-79 77q74 51 110 107.5t46 138.5h-121v99h240q0 -147 -43 -245zM152 285h124v-84h336v84h123v-360h-583v360zM382.5 504.5q35.5 66.5 44.5 159.5h-101v99h217q0 -154 -40.5 -260.5t-143.5 -193.5l-87 69q75 60 110.5 126.5zM612 25v80h-336
v-80h336zM611 812h124v-189h120v-102h-120v-199h-124v490z" />
    <glyph glyph-name="uniAE5F" unicode="&#xae5f;" 
d="M275.5 574q-16.5 -75 -58 -138.5t-115.5 -120.5l-79 76q73 55 107.5 114.5t43.5 144.5h-122v99h240q0 -100 -16.5 -175zM262.5 62.5q63.5 33.5 95 80t31.5 97.5v16h124v-16q0 -51 32 -97.5t96 -80t154 -46.5l-46 -97q-104 17 -180 60.5t-117 107.5q-41 -64 -117 -107.5
t-180 -60.5l-47 97q91 13 154.5 46.5zM381.5 484.5q36.5 69.5 45.5 165.5h-104v99h220q0 -158 -40.5 -267.5t-145.5 -198.5l-89 70q77 62 113.5 131.5zM611 813h124v-237h120v-100h-120v-262h-124v599z" />
    <glyph glyph-name="uniAE60" unicode="&#xae60;" 
d="M282.5 584q-17.5 -74 -60.5 -136t-119 -116l-78 77q75 53 110.5 109.5t44.5 139.5h-121v98h241q0 -98 -17.5 -172zM181 105.5q42 60.5 42 131.5v32h120v-32q0 -58 25 -111.5t77 -89.5q52 39 78 93t26 108v32h123v-32q0 -76 41 -134.5t126 -86.5l-63 -91q-119 43 -167 155
q-51 -118 -163 -164q-115 45 -163 162q-50 -111 -165 -153l-62 91q83 29 125 89.5zM385.5 497.5q36.5 67.5 45.5 160.5h-101v98h219q0 -154 -41.5 -261.5t-146.5 -196.5l-87 71q75 61 111.5 128.5zM611 813h124v-201h120v-102h-120v-202h-124v505z" />
    <glyph glyph-name="uniAE61" unicode="&#xae61;" 
d="M253 510.5q-43 -99.5 -153 -179.5l-79 77q74 53 110 111t46 142h-121v99h240q0 -150 -43 -249.5zM222.5 222q81.5 47 220.5 47q140 0 221.5 -47t81.5 -129q0 -83 -81.5 -130t-221.5 -47t-221 47t-81 130q0 82 81.5 129zM310 34q46 -20 133 -20q88 0 134 20t46 59
q0 78 -180 78q-179 0 -179 -78q0 -39 46 -59zM381.5 500q36.5 67 45.5 161h-101v99h217q0 -156 -40.5 -263.5t-144.5 -195.5l-89 71q76 61 112.5 128zM611 812h124v-202h120v-102h-120v-217h-124v521z" />
    <glyph glyph-name="uniAE65" unicode="&#xae65;" 
d="M249 532.5q-43 -91.5 -149 -167.5l-79 78q71 48 106 98t45 125h-120v98h240q0 -140 -43 -231.5zM154 296h587v-88h-462v-53h453v-84h-453v-58h480v-87h-605v370zM381.5 526.5q35.5 57.5 45.5 139.5h-103v98h222q0 -145 -42 -243.5t-146 -177.5l-85 72q73 54 108.5 111.5z
M611 812h124v-188h120v-101h-120v-188h-124v477z" />
    <glyph glyph-name="uniAE68" unicode="&#xae68;" 
d="M820 813v-897h-119v455h-70v-415h-116v841h116v-327h70v343h119zM113 377.5q29 100.5 34 231.5h-98v99h204q0 -183 -29.5 -322.5t-108.5 -259.5l-97 54q66 97 95 197.5zM324 345q28 115 32 264h-76v99h183q0 -201 -28 -354t-110 -281l-98 53q69 104 97 219z" />
    <glyph glyph-name="uniAE69" unicode="&#xae69;" 
d="M808 813v-525h-119v216h-66v-211h-117v505h117v-194h66v209h119zM105 515q27 57 34 140h-92v99h206q0 -98 -11 -168t-42 -131.5t-91 -119.5l-91 67q60 56 87 113zM172 250h636v-335h-125v237h-511v98zM315.5 488.5q28.5 69.5 34.5 166.5h-72v99h188q0 -105 -12 -183.5
t-44 -148t-92 -133.5l-96 64q65 66 93.5 135.5z" />
    <glyph glyph-name="uniAE6C" unicode="&#xae6c;" 
d="M807 812v-656h-118v298h-67v-275h-116v617h116v-242h67v258h118zM108 493.5q27 60.5 34 149.5h-93v100h207q0 -101 -11 -174t-42.5 -137.5t-91.5 -125.5l-91 68q61 59 88 119.5zM176 224h125v-192h529v-100h-654v292zM318 469q27 72 33 174h-73v100h185
q0 -109 -10.5 -188.5t-40.5 -151.5t-88 -137l-95 61q62 70 89 142z" />
    <glyph glyph-name="uniAE6F" unicode="&#xae6f;" 
d="M813 257v-98h-520v-134h530v-99h-654v331h644zM105.5 525q26.5 56 33.5 138h-92v98h206q0 -97 -11 -166.5t-42 -130.5t-90 -119l-90 67q59 57 85.5 113zM317.5 497q26.5 68 32.5 166h-73v98h186q0 -106 -9.5 -182.5t-38.5 -145.5t-85 -134l-99 63q60 67 86.5 135z
M506 799h117v-194h66v207h118v-511h-118v203h-66v-198h-117v493z" />
    <glyph glyph-name="uniAE70" unicode="&#xae70;" 
d="M807 812v-459h-118v174h-67v-169h-116v440h116v-172h67v186h118zM106.5 549q26.5 47 33.5 119h-90v99h204q0 -91 -11.5 -155t-43 -120t-91.5 -109l-85 69q57 50 83.5 97zM197 319h610v-238h-482v-58h508v-97h-635v244h483v53h-484v96zM316.5 525.5q27.5 58.5 34.5 142.5
h-75v99h188q0 -100 -11 -170.5t-42.5 -133t-91.5 -121.5l-91 68q61 57 88.5 115.5z" />
    <glyph glyph-name="uniAE78" unicode="&#xae78;" 
d="M808 812v-511h-119v203h-66v-198h-117v493h117v-194h66v207h119zM105.5 525q26.5 56 33.5 138h-92v98h206q0 -98 -11 -167t-42 -130t-90 -119l-90 67q59 57 85.5 113zM195 263h613v-337h-613v337zM317.5 497q26.5 68 32.5 166h-72v98h186q0 -106 -10 -182t-39 -145.5
t-85 -134.5l-99 63q60 67 86.5 135zM686 24v142h-369v-142h369z" />
    <glyph glyph-name="uniAE79" unicode="&#xae79;" 
d="M807 812v-486h-118v188h-65v-183h-116v464h116v-181h65v198h118zM111.5 534.5q27.5 55.5 34.5 136.5h-93v99h206q0 -98 -11.5 -167.5t-43 -130.5t-91.5 -118l-90 68q61 57 88.5 112.5zM195 290h123v-82h366v82h123v-365h-612v365zM324 512.5q24 64.5 29 158.5h-72v99h184
q0 -106 -8 -178t-35 -138.5t-81 -129.5l-99 59q58 65 82 129.5zM684 25v86h-366v-86h366z" />
    <glyph glyph-name="uniAE7B" unicode="&#xae7b;" 
d="M807 813v-582h-119v263h-65v-187h-116v489h116v-201h65v218h119zM108.5 503q25.5 60 31.5 147h-91v100h204q0 -101 -10 -172.5t-40 -136t-88 -124.5l-91 66q59 60 84.5 120zM309 63q65 35 98 82.5t33 98.5v27h124v-27q0 -51 33 -98.5t98 -82t156 -47.5l-48 -98
q-105 18 -182.5 63.5t-118.5 110.5q-42 -66 -119.5 -111t-183.5 -63l-47 98q92 12 157 47zM318 472.5q27 73.5 32 177.5h-74v100h187q0 -110 -10.5 -190.5t-40.5 -153t-88 -139.5l-96 60q63 72 90 145.5z" />
    <glyph glyph-name="uniAE7C" unicode="&#xae7c;" 
d="M807 812v-510h-119v199h-65v-191h-116v486h116v-194h65v210h119zM107 516q27 55 34 135h-93v100h206q0 -97 -11 -166t-41.5 -129t-89.5 -117l-90 67q58 55 85 110zM210 103q42 60 42 130v34h121v-34q0 -57 25 -109.5t76 -88.5q52 38 78 91t26 107v34h123v-34
q0 -74 42 -133t126 -86l-61 -90q-121 41 -170 155q-49 -118 -163 -164q-115 44 -162 160q-52 -110 -168 -152l-60 91q83 29 125 89zM318 492q26 65 32 159h-73v100h186q0 -104 -10 -178.5t-39 -142t-85 -131.5l-96 63q59 65 85 130z" />
    <glyph glyph-name="uniAE7D" unicode="&#xae7d;" 
d="M809 813v-541h-119v220h-64v-191h-117v495h117v-203h64v220h119zM109.5 503.5q26.5 56.5 33.5 139.5h-94v100h207q0 -98 -11 -168t-42 -131.5t-89 -119.5l-91 66q60 57 86.5 113.5zM228.5 179.5q38.5 39.5 109.5 60.5t165 21t165 -21t109.5 -60.5t38.5 -91.5
q0 -53 -38.5 -92t-109.5 -60t-165 -21t-165 21t-109.5 60t-38.5 92q0 52 38.5 91.5zM317.5 481.5q26.5 66.5 32.5 161.5h-73v100h186q0 -104 -10.5 -180t-40.5 -144t-87 -132l-94 63q60 65 86.5 131.5zM363.5 30q48.5 -20 139.5 -20q89 0 138 20t49 58t-48.5 58t-138.5 20
q-91 0 -139.5 -19.5t-48.5 -58.5q0 -38 48.5 -58z" />
    <glyph glyph-name="uniAE84" unicode="&#xae84;" 
d="M742 813v-224h118v-102h-118v-164h118v-103h-118v-304h-124v897h124zM136 373.5q35 103.5 41 246.5h-124v101h243q0 -136 -14 -239.5t-54.5 -197.5t-116.5 -179l-97 70q87 95 122 198.5zM385.5 341q34.5 118 40.5 279h-100v101h216q0 -146 -13 -258t-52 -217t-114 -198
l-98 69q86 106 120.5 224z" />
    <glyph glyph-name="uniAE85" unicode="&#xae85;" 
d="M735 812v-116h116v-102h-116v-90h116v-101h-116v-126h-124v535h124zM131 513q36 57 46 139h-121v100h240q0 -148 -43.5 -246.5t-154.5 -177.5l-78 76q75 52 111 109zM139 241h596v-327h-124v227h-472v100zM382.5 493.5q36.5 66.5 45.5 158.5h-99v100h218q0 -155 -42 -262
t-148 -196l-87 72q76 61 112.5 127.5z" />
    <glyph glyph-name="uniAE86" unicode="&#xae86;" 
d="M297 759q0 -147 -41 -245.5t-146 -178.5l-90 79q71 53 105.5 107t44.5 133h-116v105h243zM101 262h312v-346h-124v247h-188v99zM384.5 500.5q33.5 63.5 42.5 153.5h-97v105h223q0 -152 -38 -259t-130 -197l-101 71q67 63 100.5 126.5zM450 262h306v-346h-126v247h-180v99
zM634 813h122v-116h99v-104h-99v-95h99v-104h-99v-98h-122v517z" />
    <glyph glyph-name="uniAE8C" unicode="&#xae8c;" 
d="M736 813v-90h113v-97h-113v-71h113v-99h-113v-97h-125v454h125zM126.5 545.5q35.5 50.5 45.5 124.5h-120v99h240q0 -140 -43 -231.5t-149 -167.5l-79 78q70 47 105.5 97.5zM141 322h595v-240h-470v-59h500v-97h-623v246h469v55h-471v95zM381.5 530.5
q35.5 57.5 45.5 139.5h-103v99h222q0 -145 -42 -243.5t-146 -178.5l-85 72q73 54 108.5 111.5z" />
    <glyph glyph-name="uniAE8D" unicode="&#xae8d;" 
d="M756 313v-399h-130v300h-174v99h304zM126 550q35 47 46 116h-117v103h245q0 -137 -43.5 -227.5t-146.5 -164.5l-87 80q68 46 103 93zM100 313h316v-237h-190v-62q77 1 132.5 5t112.5 14l10 -94q-68 -13 -135.5 -17t-183.5 -4h-61v244h192v56h-193v95zM389.5 533.5
q31.5 53.5 40.5 132.5h-96v103h224q0 -142 -36.5 -238t-126.5 -177l-101 71q64 55 95.5 108.5zM634 813h122v-99h99v-98h-99v-82h99v-100h-99v-80h-122v459z" />
    <glyph glyph-name="uniAEBC" unicode="&#xaebc;" 
d="M776 813v-897h-125v463h-136q-20 -93 -56.5 -175t-96.5 -156l-96 69q84 107 118.5 224.5t40.5 278.5h-100v101h217q0 -148 -11 -242h120v334h125zM137.5 373.5q35.5 103.5 41.5 246.5h-125v101h243q0 -137 -14 -240t-54 -197t-116 -179l-98 70q87 95 122.5 198.5z" />
    <glyph glyph-name="uniAEBD" unicode="&#xaebd;" 
d="M775 241v-326h-125v226h-488v100h613zM134.5 513q35.5 59 45.5 143h-120v99h239q0 -149 -43 -249t-153 -183l-79 77q75 54 110.5 113zM386 493q36 68 45 163h-102v99h219q0 -91 -13 -165h115v222h125v-535h-125v214h-142q-44 -112 -147 -201l-86 72q75 63 111 131z" />
    <glyph glyph-name="uniAEBE" unicode="&#xaebe;" 
d="M775 812v-519h-125v202h-143q-43 -109 -145 -196l-86 70q75 63 110.5 130t44.5 161h-103v99h220q0 -92 -13 -164h115v217h125zM134 519q36 58 46 141h-120v99h239q0 -149 -43 -247.5t-152 -178.5l-80 75q74 53 110 111zM134 257h304v-342h-124v243h-180v99zM473 257h302
v-342h-123v243h-179v99z" />
    <glyph glyph-name="uniAEC0" unicode="&#xaec0;" 
d="M775 809v-653h-125v303h-138q-44 -117 -150 -206l-83 75q79 66 114.5 140t43.5 177h-100v100h217q0 -107 -14 -187h110v251h125zM141 491.5q36 63.5 45 153.5h-120v100h239q0 -155 -43.5 -260.5t-154.5 -190.5l-79 77q77 57 113 120.5zM174 215h125v-183h498v-100h-623
v283z" />
    <glyph glyph-name="uniAEC4" unicode="&#xaec4;" 
d="M258 546.5q-42 -89.5 -147 -163.5l-80 77q70 47 104.5 95t44.5 120h-119v99h239q0 -138 -42 -227.5zM173 318h601v-241h-477v-59h500v-97h-623v246h476v54h-477v97zM389 534.5q34 57.5 43 140.5h-102v99h221q0 -91 -12 -152h111v191h124v-458h-124v169h-141
q-43 -99 -141 -174l-85 72q72 55 106 112.5z" />
    <glyph glyph-name="uniAECC" unicode="&#xaecc;" 
d="M256 513.5q-43 -98.5 -153 -178.5l-79 76q75 53 110.5 109.5t45.5 139.5h-120v99h239q0 -147 -43 -245.5zM175 271h600v-345h-600v345zM387 500.5q35 66.5 44 159.5h-100v99h217q0 -94 -12 -158h114v211h125v-503h-125v192h-140q-43 -112 -144 -199l-87 71
q73 61 108 127.5zM653 24v150h-355v-150h355z" />
    <glyph glyph-name="uniAECD" unicode="&#xaecd;" 
d="M775 812v-481h-125v174h-138q-41 -106 -139 -190l-88 70q73 60 107.5 125.5t42.5 158.5h-100v98h217q0 -88 -12 -162h110v207h125zM139 530.5q36 56.5 46 138.5h-120v98h238q0 -98 -17.5 -171.5t-60 -134.5t-116.5 -116l-80 77q74 52 110 108.5zM183 291h123v-86h346v86
h123v-365h-592v365zM652 25v84h-346v-84h346z" />
    <glyph glyph-name="uniAECF" unicode="&#xaecf;" 
d="M774 813v-605h-125v274h-138q-43 -110 -142 -196l-89 70q75 62 110.5 130.5t43.5 164.5h-101v99h218q0 -93 -13 -168h111v231h125zM138 507q36 59 45 144h-119v99h237q0 -100 -17.5 -175t-59.5 -138t-116 -120l-81 77q75 54 111 113zM284.5 65q63.5 35 95.5 83t32 101v21
h124v-21q0 -53 31.5 -100.5t95 -83t154.5 -48.5l-49 -97q-103 17 -178.5 61.5t-116.5 110.5q-41 -66 -116.5 -111t-179.5 -63l-47 99q91 13 154.5 48z" />
    <glyph glyph-name="uniAED0" unicode="&#xaed0;" 
d="M255 513.5q-43 -98.5 -153 -178.5l-79 76q74 53 109.5 109.5t45.5 139.5h-119v99h239q0 -147 -43 -245.5zM190 104.5q42 60.5 42 131.5v35h121v-35q0 -58 25 -111.5t77 -89.5q52 39 77.5 93t25.5 108v35h124v-35q0 -76 41.5 -135.5t125.5 -86.5l-61 -90q-121 41 -170 155
q-23 -55 -63.5 -97.5t-97.5 -66.5q-116 43 -164 160q-52 -108 -167 -151l-61 90q83 30 125 90.5zM386 502q35 66 43 158h-100v99h218q0 -87 -12 -161h113v214h125v-509h-125v195h-141q-42 -106 -142 -193l-87 71q73 60 108 126z" />
    <glyph glyph-name="uniAED1" unicode="&#xaed1;" 
d="M775 812v-529h-125v209h-145q-44 -105 -143 -188l-86 71q75 60 110.5 126.5t43.5 158.5h-101v99h219q0 -96 -14 -167h116v220h125zM134 520q36 57 46 140h-120v99h239q0 -148 -43.5 -247t-153.5 -179l-79 77q75 53 111 110zM211.5 189q37.5 40 106.5 62t160 22t159.5 -22
t106 -62t37.5 -94q0 -55 -37.5 -95.5t-106 -62.5t-159.5 -22t-160 22t-106.5 62.5t-37.5 95.5q0 54 37.5 94zM344.5 33q46.5 -21 133.5 -21q86 0 133 21t47 62t-47 62t-133 21q-87 0 -133.5 -21t-46.5 -62t46.5 -62z" />
    <glyph glyph-name="uniAED3" unicode="&#xaed3;" 
d="M280 602q-18 -71 -60 -129t-116 -110l-79 76q73 48 108.5 101t45.5 130h-119v98h238q0 -95 -18 -166zM316 58q73 38 89 87h-246v91h252v84h127v-84h251v-91h-245q17 -47 89.5 -85t189.5 -49l-39 -92q-110 10 -189 46.5t-121 90.5q-42 -55 -121 -91t-190 -46l-39 92
q119 9 192 47zM386.5 522q34.5 61 43.5 148h-100v98h217q0 -89 -13 -158h115v202h125v-508h-125v207h-144q-42 -100 -138 -178l-88 69q73 59 107.5 120z" />
    <glyph glyph-name="uniAED5" unicode="&#xaed5;" 
d="M292 772q0 -137 -40 -227t-140 -167l-85 79q65 47 97.5 94.5t43.5 117.5h-113v103h237zM155 312h636v-92h-512v-58h503v-85h-503v-61h524v-90h-648v386zM374.5 532.5q30.5 54.5 39.5 136.5h-101v103h228q0 -75 -9 -138h130v178h124v-458h-124v178h-156
q-37 -102 -124 -184l-101 72q63 58 93.5 112.5z" />
    <glyph glyph-name="uniAED8" unicode="&#xaed8;" 
d="M222 375.5q-28 -144.5 -107 -268.5l-96 52q66 101 93 206t32 245h-96v100h202q0 -190 -28 -334.5zM315 337.5q26 116.5 29 272.5h-67v100h172q0 -147 -8 -235h77v318h115v-836h-115v418h-90q-30 -181 -114 -313l-95 53q70 106 96 222.5zM690 812h118v-897h-118v897z" />
    <glyph glyph-name="uniAED9" unicode="&#xaed9;" 
d="M805 813v-528h-118v528h118zM108 519q26 55 33 136h-88v99h201q0 -141 -29 -235t-110 -179l-89 65q56 59 82 114zM167 247h638v-332h-124v233h-514v99zM312.5 488.5q27.5 69.5 34.5 166.5h-71v99h183q0 -88 -7 -157h63v199h116v-506h-116v208h-82q-33 -115 -115 -205
l-95 60q62 66 89.5 135.5z" />
    <glyph glyph-name="uniAEDC" unicode="&#xaedc;" 
d="M302 217v-182h521v-100h-645v282h124zM108.5 493q26.5 62 32.5 151h-89v100h202q0 -101 -10.5 -174t-41 -138t-87.5 -127l-93 65q60 61 86.5 123zM313.5 465q27.5 74 32.5 179h-70v100h182q0 -108 -9 -180h67v231h116v-625h-116v294h-87q-31 -114 -111 -205l-96 62
q64 70 91.5 144zM687 812h118v-657h-118v657z" />
    <glyph glyph-name="uniAEE8" unicode="&#xaee8;" 
d="M805 812v-516h-118v516h118zM108.5 518q26.5 58 33.5 143h-89v99h200q0 -99 -10.5 -169.5t-41 -132.5t-87.5 -121l-91 64q59 59 85.5 117zM195 263h609v-337h-609v337zM313.5 494q27.5 69 33.5 167h-71v99h182q0 -102 -9 -169h67v204h116v-494h-116v191h-87
q-33 -109 -112 -195l-93 61q62 67 89.5 136zM682 24v142h-364v-142h364z" />
    <glyph glyph-name="uniAEEB" unicode="&#xaeeb;" 
d="M804 812v-588h-118v588h118zM107.5 508q26.5 59 33.5 145h-89v99h201q0 -99 -10.5 -170.5t-41 -134t-87.5 -121.5l-92 63q59 60 85.5 119zM300.5 69.5q64.5 33.5 97.5 80t33 96.5v24h128v-24q0 -50 33 -96.5t97.5 -80t155.5 -46.5l-48 -97q-106 17 -183.5 62t-118.5 111
q-41 -66 -118.5 -111t-183.5 -62l-48 97q91 13 155.5 46.5zM313.5 479.5q26.5 71.5 31.5 173.5h-70v99h182q0 -92 -7 -163h64v206h116v-493h-116v187h-82q-30 -117 -111 -211l-97 61q63 69 89.5 140.5z" />
    <glyph glyph-name="uniAEED" unicode="&#xaeed;" 
d="M804 812v-537h-117v537h117zM108.5 516q26.5 58 33.5 142h-88v99h200q0 -98 -11 -168.5t-41 -133t-87 -120.5l-92 63q59 60 85.5 118zM246.5 211q86.5 45 239.5 45t239.5 -45t86.5 -126t-86.5 -126t-239.5 -45q-152 0 -239 45t-87 126t86.5 126zM315 489.5
q26 69.5 32 168.5h-71v99h182q0 -99 -8 -167h66v206h116v-495h-116v189h-85q-29 -108 -108 -200l-94 61q60 69 86 138.5zM486 12q198 0 198 73q0 37 -50.5 56t-147.5 19q-197 0 -197 -75q0 -73 197 -73z" />
    <glyph glyph-name="uniAEF4" unicode="&#xaef4;" 
d="M776 813v-897h-125v335h-175q-40 -107 -111 -195l-99 66q83 106 118 223.5t41 273.5h-96v101h215q0 -66 -3 -129h110v222h125zM139 381.5q37 101.5 44 237.5h-124v101h242q0 -131 -15 -233.5t-55.5 -195.5t-114.5 -176l-96 72q82 93 119 194.5zM651 350v142h-118
q-10 -80 -26 -142h144z" />
    <glyph glyph-name="uniAEF8" unicode="&#xaef8;" 
d="M650 433v114h-120q-17 -86 -57 -157.5t-112 -135.5l-84 74q76 66 110 140t42 177h-96v100h213q0 -51 -3 -99h107v163h125v-655h-125v180h-132v99h132zM140 492.5q36 63.5 45 152.5h-119v100h237q0 -155 -42 -260.5t-152 -190.5l-81 77q76 58 112 121.5zM174 215h125v-183
h498v-100h-623v283z" />
    <glyph glyph-name="uniAEFC" unicode="&#xaefc;" 
d="M650 525v85h-118q-16 -77 -55 -139.5t-109 -117.5l-86 72q70 53 104 110.5t43 139.5h-101v99h218q0 -25 -2 -71h106v110h124v-458h-124v77h-126v93h126zM134.5 556q34.5 48 45.5 119h-119v99h239q0 -137 -42 -225.5t-147 -163.5l-80 77q69 46 103.5 94zM173 318h601v-241
h-477v-59h500v-97h-623v246h476v54h-477v97z" />
    <glyph glyph-name="uniAF07" unicode="&#xaf07;" 
d="M649 464v100h-120q-17 -83 -56 -151.5t-106 -128.5l-89 69q74 64 108.5 133t42.5 165h-97v99h213q0 -45 -3 -87h107v149h125v-608h-125v159h-130v101h130zM138 507q36 59 45 144h-119v99h237q0 -100 -17.5 -175t-59.5 -138t-116 -120l-81 77q75 54 111 113zM284.5 61.5
q63.5 33.5 95.5 80.5t32 99v17h124v-17q0 -51 31.5 -97.5t95 -80.5t154.5 -47l-48 -97q-104 17 -179.5 60.5t-116.5 107.5q-41 -65 -116.5 -108.5t-179.5 -59.5l-47 96q91 13 154.5 46.5z" />
    <glyph glyph-name="uniAF08" unicode="&#xaf08;" 
d="M648 488v92h-122q-17 -81 -56.5 -148t-107.5 -127l-87 71q72 61 106.5 126.5t43.5 157.5h-96v99h212q0 -41 -3 -80h110v133h125v-509h-125v86h-130v99h130zM132.5 520.5q35.5 56.5 45.5 139.5h-119v99h239q0 -147 -43 -245.5t-153 -178.5l-79 76q74 53 109.5 109.5z
M190 104.5q42 60.5 42 131.5v35h121v-35q0 -58 25 -111.5t77 -89.5q52 39 77.5 93t25.5 108v35h124v-35q0 -76 41.5 -135.5t125.5 -86.5l-61 -90q-121 41 -170 155q-23 -55 -63.5 -97.5t-97.5 -66.5q-116 43 -164 160q-52 -108 -167 -151l-61 90q83 30 125 90.5z" />
    <glyph glyph-name="uniAF09" unicode="&#xaf09;" 
d="M775 812v-529h-125v110h-130v101h130v86h-118q-18 -82 -58.5 -149t-111.5 -127l-86 71q75 60 110.5 126.5t43.5 158.5h-101v99h219q0 -40 -3 -78h105v131h125zM134 520q36 57 46 140h-120v99h239q0 -148 -43.5 -247t-153.5 -179l-79 77q75 53 111 110zM211.5 189
q37.5 40 106.5 62t160 22t159.5 -22t106 -62t37.5 -94q0 -55 -37.5 -95.5t-106 -62.5t-159.5 -22t-160 22t-106.5 62.5t-37.5 95.5q0 54 37.5 94zM344.5 33q46.5 -21 133.5 -21q86 0 133 21t47 62t-47 62t-133 21q-87 0 -133.5 -21t-46.5 -62t46.5 -62z" />
    <glyph glyph-name="uniAF0D" unicode="&#xaf0d;" 
d="M777 300v-91h-471v-51h459v-88h-459v-53h486v-91h-611v374h596zM137 536.5q35 55.5 45 135.5h-117v98h235q0 -97 -17 -169.5t-58.5 -132.5t-115.5 -114l-80 76q73 51 108 106.5zM380 517q35 64 44 155h-94v98h210q0 -28 -2 -76h112v118h125v-476h-125v74h-133v97h133v90
h-125q-17 -82 -56.5 -148t-109.5 -124l-89 69q75 59 110 123z" />
    <glyph glyph-name="uniAF10" unicode="&#xaf10;" 
d="M222 375.5q-28 -144.5 -107 -268.5l-96 52q66 101 93 206t32 245h-96v100h202q0 -190 -28 -334.5zM315 337.5q26 116.5 29 272.5h-67v100h172q0 -87 -2 -130h72v213h115v-836h-115v296h-119q-33 -107 -86 -191l-95 53q70 106 96 222.5zM519 353v128h-78q-7 -76 -17 -128
h95zM690 812h118v-897h-118v897z" />
    <glyph glyph-name="uniAF2C" unicode="&#xaf2c;" 
d="M377 731v-45q0 -97 -10.5 -190.5t-51.5 -230.5l-123 21q57 176 61 346h-163v99h287zM30 135h360v271h123v-271h329v-100h-812v100zM442 731h317v-58q0 -101 -5 -191t-25 -213l-123 14q29 170 31 349h-195v99z" />
    <glyph glyph-name="uniAF2D" unicode="&#xaf2d;" 
d="M761 775v-54q0 -69 -4.5 -128.5t-22.5 -131.5l-121 13q25 102 27 203h-198v98h319zM33 403h357v158h123v-158h327v-99h-807v99zM97 775h278v-38q0 -67 -8 -132t-38 -145l-120 16q36 100 44 201h-156v98zM119 231h621v-311h-125v212h-496v99z" />
    <glyph glyph-name="uniAF30" unicode="&#xaf30;" 
d="M761 770v-57q0 -72 -4.5 -133.5t-22.5 -138.5l-121 14q25 105 27 217h-198v98h319zM33 379h357v163h123v-163h327v-98h-807v98zM97 770h278v-43q0 -71 -8.5 -137.5t-40.5 -150.5l-119 19q40 108 46 214h-156v98zM135 215h124v-183h496v-100h-620v283z" />
    <glyph glyph-name="uniAF32" unicode="&#xaf32;" 
d="M537 257v60h121v-60h144v-90h-410v90h145zM33 445h357v138h123v-138h327v-99h-807v99zM97 780h278v-47q0 -63 -8 -120.5t-38 -126.5l-121 20q40 96 45 176h-156v98zM119 265h121v-224q81 5 157 26l14 -99q-59 -17 -116 -23t-125 -6h-51v326zM480.5 116q45.5 32 116.5 32
t116.5 -32t45.5 -84t-45.5 -84t-116.5 -32t-116.5 32t-45.5 84t45.5 84zM442 780h319v-49q0 -63 -4.5 -118.5t-21.5 -123.5l-121 14q23 92 25 179h-197v98zM556 5.5q16 -9.5 41 -9.5t41 9.5t16 26.5t-16 26t-41 9t-41 -9t-16 -26t16 -26.5z" />
    <glyph glyph-name="uniAF33" unicode="&#xaf33;" 
d="M761 775v-52q0 -67 -4.5 -125t-22.5 -130l-121 13q23 94 27 196h-198v98h319zM33 415h357v154h123v-154h327v-99h-807v99zM97 775h278v-37q0 -65 -8 -129t-38 -142l-120 17q37 103 43 193h-155v98zM127 234h614v-99h-490v-110h502v-98h-626v307z" />
    <glyph glyph-name="uniAF34" unicode="&#xaf34;" 
d="M761 788v-48q0 -60 -4.5 -114t-21.5 -120l-121 13q23 92 25 170h-197v99h319zM33 466h356v127h122v-127h329v-98h-807v98zM97 788h278v-45q0 -62 -8 -118t-38 -123l-121 19q38 91 44 168h-155v99zM135 316h601v-239h-477v-58h507v-97h-629v245h477v53h-479v96z" />
    <glyph glyph-name="uniAF3C" unicode="&#xaf3c;" 
d="M760 778v-54q0 -69 -4.5 -128t-22.5 -132l-121 13q26 102 28 203h-198v98h318zM33 416h357v150h123v-150h327v-99h-807v99zM97 778h278v-38q0 -66 -8 -131t-38 -145l-120 16q36 101 44 200h-156v98zM130 244h610v-318h-610v318zM617 24v123h-365v-123h365z" />
    <glyph glyph-name="uniAF3D" unicode="&#xaf3d;" 
d="M760 782v-55q0 -68 -4.5 -127t-22.5 -132l-121 14q26 100 28 201h-198v99h318zM33 425h357v143h123v-143h327v-99h-807v99zM97 782h278v-39q0 -67 -8 -131.5t-38 -144.5l-120 18q37 102 43 198h-155v99zM133 276h123v-77h359v77h123v-350h-605v350zM615 25v79h-359v-79
h359z" />
    <glyph glyph-name="uniAF3F" unicode="&#xaf3f;" 
d="M760 772v-53q0 -70 -4.5 -129.5t-22.5 -132.5l-121 12q26 102 28 205h-198v98h318zM33 404h357v156h123v-156h327v-100h-807v100zM243.5 60q65.5 32 98 77t32.5 95v26h123v-26q0 -50 32.5 -95t98.5 -77t161 -44l-45 -97q-109 16 -187 58t-121 105q-43 -63 -121.5 -105
t-186.5 -58l-44 97q94 12 159.5 44zM97 772h278v-38q0 -67 -8 -132t-38 -146l-120 17q36 99 44 201h-156v98z" />
    <glyph glyph-name="uniAF41" unicode="&#xaf41;" 
d="M664 211.5q83 -44.5 83 -125.5t-83 -126t-229 -45t-229.5 45t-83.5 126t83.5 125.5t229.5 44.5t229 -44.5zM33 407h357v155h123v-155h327v-100h-807v100zM97 776h278v-39q0 -66 -8 -130.5t-38 -145.5l-120 17q36 100 44 199h-156v99zM296.5 30.5q47.5 -18.5 138.5 -18.5
q90 0 137.5 18.5t47.5 55.5q0 74 -185 74q-186 0 -186 -74q0 -37 47.5 -55.5zM442 776h318v-55q0 -69 -4.5 -128t-22.5 -131l-121 13q26 101 28 202h-198v99z" />
    <glyph glyph-name="uniAF42" unicode="&#xaf42;" 
d="M760 778v-53q0 -67 -4.5 -126t-22.5 -131l-121 13q24 96 28 199h-198v98h318zM33 424h357v148h123v-148h327v-99h-807v99zM262 67q68 39 94 93h-231v97h624v-97h-234q26 -55 94.5 -93.5t175.5 -51.5l-46 -96q-107 16 -184.5 57.5t-118.5 104.5q-41 -63 -118 -104.5
t-184 -57.5l-46 96q106 13 174 52zM97 778h278v-37q0 -66 -8 -130t-38 -144l-120 16q37 106 43 197h-155v98z" />
    <glyph glyph-name="uniAF43" unicode="&#xaf43;" 
d="M761 783v-51q0 -63 -4.5 -118.5t-21.5 -123.5l-121 13q23 94 25 181h-197v99h319zM33 450h357v129h123v-129h327v-99h-807v99zM282.5 62.5q70.5 39.5 86.5 90.5h-237v96h241v75h125v-75h242v-96h-238q16 -51 87 -90.5t187 -50.5l-41 -93q-105 12 -182 48t-117 90
q-40 -54 -117 -90t-182 -48l-41 93q116 11 186.5 50.5zM97 783h278v-47q0 -64 -8 -121.5t-38 -127.5l-121 19q39 96 45 178h-156v99z" />
    <glyph glyph-name="uniAF45" unicode="&#xaf45;" 
d="M761 788v-48q0 -61 -4.5 -115.5t-21.5 -120.5l-121 15q23 92 25 170h-197v99h319zM33 460h356v128h122v-128h329v-99h-807v99zM97 788h278v-45q0 -62 -8 -118t-38 -124l-121 19q38 92 44 169h-155v99zM130 297h617v-89h-493v-52h472v-87h-472v-53h500v-91h-624v372z" />
    <glyph glyph-name="uniAF48" unicode="&#xaf48;" 
d="M259 717v-57q0 -88 -8 -166.5t-40 -183.5l-113 24q26 83 35.5 150.5t10.5 131.5h-98v101h213zM259 196v239h113v-234q130 9 208 21l7 -92q-125 -23 -262 -30.5t-287 -7.5l-11 101q148 0 232 3zM303 717h253v-71q0 -87 -4 -159.5t-19 -162.5l-114 16q21 133 21 276h-137
v101zM623 812h124v-363h110v-102h-110v-432h-124v897z" />
    <glyph glyph-name="uniAF49" unicode="&#xaf49;" 
d="M260 756v-58q0 -69 -6.5 -127.5t-30.5 -129.5l-115 17q19 57 26.5 104t9.5 95h-90v99h206zM254 384v163h112v-159q105 4 211 17l8 -88q-123 -21 -255.5 -27.5t-292.5 -6.5l-10 98q146 0 227 3zM131 221h620v-303h-125v204h-495v99zM302 756h243v-59q0 -68 -4.5 -124.5
t-22.5 -124.5l-117 13q24 93 26 196h-125v99zM626 812h125v-234h101v-102h-101v-219h-125v555z" />
    <glyph glyph-name="uniAF50" unicode="&#xaf50;" 
d="M260 768v-51q0 -62 -6 -115.5t-29 -117.5l-115 16q31 89 33 170h-89v98h206zM254 438v137h112v-133q135 7 218 18l8 -85q-126 -21 -260 -27.5t-296 -6.5l-10 95q147 0 228 2zM136 295h615v-226h-489v-54h516v-93h-641v233h488v50h-489v90zM302 768h243v-54
q0 -60 -4.5 -112.5t-20.5 -114.5l-117 15q20 76 24 168h-125v98zM626 813h125v-197h101v-101h-101v-185h-125v483z" />
    <glyph glyph-name="uniAF5C" unicode="&#xaf5c;" 
d="M260 761v-57q0 -69 -6 -126.5t-30 -127.5l-115 16q18 57 25.5 103t9.5 93h-90v99h206zM254 394v157h112v-153q131 7 211 18l8 -86q-123 -22 -253 -28t-295 -6l-10 96q146 0 227 2zM182.5 100.5q39.5 55.5 39.5 124.5v20h121v-20q0 -55 25 -104.5t76 -83.5
q52 34 78.5 84.5t26.5 103.5v20h122v-20q0 -70 40 -125.5t121 -80.5l-60 -91q-116 39 -164 144q-50 -111 -163 -153q-114 42 -162 153q-49 -104 -162 -144l-59 91q81 26 120.5 81.5zM302 761h243v-59q0 -67 -4 -122.5t-19 -123.5l-117 13q20 93 22 193h-125v99zM626 812h125
v-217h101v-102h-101v-214h-125v533z" />
    <glyph glyph-name="uniAF5D" unicode="&#xaf5d;" 
d="M675 206q82 -43 82 -121t-82 -122t-227 -44t-227 44t-82 122t82 121t227 43t227 -43zM254 394v160h112v-155q112 6 211 21l8 -88q-123 -23 -256 -30.5t-292 -8.5l-10 98q145 0 227 3zM54 761h206v-57q0 -69 -6 -126.5t-30 -127.5l-115 16q18 57 25.5 103t9.5 93h-90v99z
M311 31q47 -18 137 -18q185 0 185 72q0 71 -185 71q-184 0 -184 -71q0 -36 47 -54zM302 761h243v-58q0 -67 -4.5 -122.5t-22.5 -123.5l-117 13q24 95 26 192h-125v99zM626 812h125v-226h101v-101h-101v-224h-125v551z" />
    <glyph glyph-name="uniAF64" unicode="&#xaf64;" 
d="M309 436v-212q95 5 169 15l8 -88q-162 -32 -452 -32l-15 99q118 0 187 2v216h103zM37 713h182v-53q0 -83 -6.5 -153t-34.5 -163l-107 16q37 125 41 252h-75v101zM257 713h209v-72q0 -83 -3 -150t-16 -148l-106 15q12 70 15.5 129.5t3.5 124.5h-103v101zM513 797h116v-335
h64v351h118v-897h-118v446h-64v-406h-116v841z" />
    <glyph glyph-name="uniAF65" unicode="&#xaf65;" 
d="M316 549v-153q85 4 167 14l8 -88q-98 -18 -219.5 -25t-236.5 -7l-14 98q86 0 191 3v158q-10 -51 -29 -98l-99 27q32 95 36 178h-77v100h181v-48q0 -49 -2 -83t-10 -76h104zM185 230h625v-315h-125v215h-500v100zM259 756h210v-59q0 -67 -3 -122t-16 -122l-104 11
q17 88 19 192h-106v100zM518 793h116v-207h57v226h119v-548h-119v223h-57v-219h-116v525z" />
    <glyph glyph-name="uniAF78" unicode="&#xaf78;" 
d="M211 392v155q-10 -48 -28 -96l-100 27q32 95 36 178h-77v100h181v-47q0 -49 -2 -83.5t-10 -76.5h104v-152q85 4 167 14l8 -88q-97 -18 -219 -25t-237 -7l-14 98q86 0 191 3zM202 83q42 56 42 125v20h121v-20q0 -55 25 -105t77 -84q52 35 78 85.5t26 103.5v20h122v-20
q0 -71 41.5 -126.5t125.5 -80.5l-59 -90q-122 41 -171 147q-49 -113 -163 -156q-114 42 -162 154q-52 -105 -168 -145l-61 90q84 26 126 82zM258 756h210v-58q0 -67 -3 -122.5t-16 -122.5l-104 11q17 89 19 192h-106v100zM517 794h116v-208h57v226h119v-553h-119v228h-57
v-220h-116v527z" />
    <glyph glyph-name="uniAF79" unicode="&#xaf79;" 
d="M809 812v-557h-118v231h-57v-201h-116v509h116v-208h57v226h118zM212 394v156h104v-151q91 6 166 18l9 -88q-168 -36 -456 -36l-14 98q85 0 191 3zM43 757h181v-47q0 -69 -7 -128t-34 -130l-99 28q32 95 36 178h-77v99zM258 206q85 44 235 44q151 0 236 -44t85 -124
q0 -79 -85 -123t-236 -44q-150 0 -235 44t-85 123q0 80 85 124zM259 757h210v-58q0 -67 -3 -122t-16 -122l-104 10q17 90 19 193h-106v99zM493 9q194 0 194 73q0 75 -194 75q-193 0 -193 -75q0 -73 193 -73z" />
    <glyph glyph-name="uniAF80" unicode="&#xaf80;" 
d="M269 717v-63q0 -90 -8 -167.5t-38 -179.5l-112 23q25 83 34 150.5t10 135.5h-99v101h213zM279 196v247h113v-243q109 6 221 20l7 -91q-131 -22 -272 -29.5t-300 -7.5l-11 101q156 0 242 3zM318 717h258v-72q0 -88 -4 -161t-20 -164l-112 17q23 133 23 279h-145v101z
M657 812h125v-897h-125v897z" />
    <glyph glyph-name="uniAF84" unicode="&#xaf84;" 
d="M391 533v-166q105 4 213 17l8 -88q-127 -22 -265.5 -29t-300.5 -7l-9 99q113 0 240 3v171h114zM67 744h208v-58q0 -70 -6.5 -128t-31.5 -128l-114 15q21 58 29 105t10 95h-95v99zM169 198h125v-166h509v-100h-634v266zM321 744h254v-59q0 -68 -4 -124.5t-20 -124.5
l-112 13q21 95 23 196h-141v99zM655 812h124v-662h-124v662z" />
    <glyph glyph-name="uniAF88" unicode="&#xaf88;" 
d="M274 771v-52q0 -63 -6 -117t-29 -119l-113 15q31 91 33 175h-94v98h209zM275 437v146h114v-141q114 5 216 18l8 -85q-131 -21 -271 -28t-296 -7l-15 95q158 0 244 2zM163 297h616v-228h-490v-53h515v-94h-640v234h491v50h-492v91zM320 771h253v-54q0 -62 -4 -114.5
t-20 -116.5l-112 14q20 84 22 173h-139v98zM655 813h124v-483h-124v483z" />
    <glyph glyph-name="uniAF90" unicode="&#xaf90;" 
d="M779 812v-535h-124v535h124zM277 398v161h114v-157q120 6 216 19l7 -88q-128 -23 -266.5 -30t-300.5 -7l-10 99q155 0 240 3zM67 756h209v-56q0 -66 -6 -122t-29 -123l-113 15q18 54 25 98t9 89h-95v99zM169 236h610v-310h-610v310zM657 24v113h-365v-113h365zM321 756
h254v-57q0 -64 -4.5 -118.5t-20.5 -120.5l-111 13q21 89 23 184h-141v99z" />
    <glyph glyph-name="uniAF91" unicode="&#xaf91;" 
d="M293 267v-78h363v78h123v-341h-609v341h123zM277 411v155h114v-151q133 7 216 18l7 -88q-128 -22 -264 -29t-303 -8l-10 100q155 0 240 3zM67 761h209v-55q0 -66 -6 -122t-29 -123l-113 14q30 92 34 188h-95v98zM656 23v73h-363v-73h363zM321 761h254v-56
q0 -64 -4.5 -119t-20.5 -120l-111 13q21 89 23 184h-141v98zM655 812h124v-516h-124v516z" />
    <glyph glyph-name="uniAF95" unicode="&#xaf95;" 
d="M701 206.5q82 -44.5 82 -124.5q0 -79 -82.5 -123t-226.5 -44q-146 0 -228 44t-82 123q0 81 82 125t228 44q145 0 227 -44.5zM277 392v163h114v-158q120 6 216 19l7 -88q-128 -23 -264 -30t-303 -8l-10 99q113 0 240 3zM67 753h209v-56q0 -66 -6 -122t-30 -124l-112 16
q30 90 34 186h-95v100zM474 10q184 0 184 72q0 75 -184 75q-186 0 -186 -75q0 -72 186 -72zM321 753h254v-57q0 -65 -4.5 -119t-20.5 -119l-111 13q21 88 23 182h-141v100zM655 813h124v-552h-124v552z" />
    <glyph glyph-name="uniAF9C" unicode="&#xaf9c;" 
d="M353 731v-51q0 -77 -6 -138t-31 -146h92v-261h78v261h121v-261h235v-100h-812v100h258v175l-16 -42l-119 35q43 97 59 175t19 153h-151v100h273zM426 731h343v-59q0 -98 -6 -190t-30 -219l-122 14q21 104 28 187.5t8 166.5h-221v100z" />
    <glyph glyph-name="uniAFB8" unicode="&#xafb8;" 
d="M229 394q35 132 37 265h-171v99h294v-55q0 -78 -6 -148t-28 -161h246q16 76 22 138.5t7 126.5h-181v99h303v-61q0 -79 -4.5 -147t-21.5 -156h116v-101h-348v-376h-124v376h-340v101h199z" />
    <glyph glyph-name="uniAFB9" unicode="&#xafb9;" 
d="M398 778v-49q0 -68 -6 -129t-28 -139h232q29 110 31 217h-174v100h294v-56q0 -69 -4.5 -128t-21.5 -133h122v-100h-347v-126h240v-318h-124v219h-486v99h247v126h-343v100h210q35 111 37 217h-174v100h295z" />
    <glyph glyph-name="uniAFBC" unicode="&#xafbc;" 
d="M238 432q37 120 39 234h-174v99h295v-49q0 -72 -6 -136.5t-30 -147.5h231q32 119 34 234h-174v99h294v-55q0 -72 -5 -135t-24 -143h125v-99h-329v-195h-124v195h-360v99h208zM135 223h124v-191h494v-100h-618v291z" />
    <glyph glyph-name="uniAFC0" unicode="&#xafc0;" 
d="M245 501q18 53 24.5 96t8.5 89h-175v99h295v-58q0 -62 -4.5 -113.5t-20.5 -112.5h225q26 96 28 185h-173v99h294v-50q0 -61 -4 -114.5t-20 -119.5h120v-99h-346v-77h244v-245h-492v-61h516v-97h-640v248h492v60h-493v95h250v77h-344v99h215z" />
    <glyph glyph-name="uniAFC7" unicode="&#xafc7;" 
d="M245 502q18 53 24.5 96t8.5 89h-175v99h295v-58q0 -62 -4.5 -113.5t-21.5 -112.5h226q26 96 28 185h-173v99h294v-50q0 -61 -4 -114.5t-20 -119.5h119v-100h-350v-110h-92v-218h-177v-57q78 0 122 2.5t86 11.5l11 -90q-53 -10 -107.5 -12.5t-175.5 -2.5h-55v233h177v52
h-178v90h264v101h-337v100h215zM427 261h131v73h121v-73h132v-89h-384v89zM504.5 119.5q44.5 32.5 113.5 32.5t114 -32.5t45 -85.5t-45 -85.5t-114 -32.5t-113.5 32.5t-44.5 85.5t44.5 85.5zM579.5 5.5q14.5 -9.5 38.5 -9.5t38.5 9.5t14.5 28.5q0 18 -14.5 27.5t-38.5 9.5
t-38.5 -9.5t-14.5 -27.5q0 -19 14.5 -28.5z" />
    <glyph glyph-name="uniAFC8" unicode="&#xafc8;" 
d="M399 773v-47q0 -66 -5 -124t-25 -132h230q26 102 28 205h-174v98h294v-54q0 -66 -4 -122.5t-20 -126.5h120v-98h-347v-118h244v-328h-610v328h243v118h-343v98h215q30 108 32 205h-174v98h296zM617 24v133h-365v-133h365z" />
    <glyph glyph-name="uniAFC9" unicode="&#xafc9;" 
d="M399 778v-46q0 -63 -5.5 -120.5t-25.5 -130.5h231q24 95 28 199h-174v98h294v-52q0 -64 -4 -119.5t-20 -125.5h120v-99h-349v-132h-123v132h-340v99h212q30 97 34 199h-174v98h296zM125 296h123v-91h370v91h124v-370h-617v370zM618 25v83h-370v-83h370z" />
    <glyph glyph-name="uniAFCB" unicode="&#xafcb;" 
d="M244 463q31 111 33 209h-174v98h296v-48q0 -66 -5.5 -125.5t-25.5 -133.5h230q27 102 29 209h-174v98h294v-55q0 -67 -4 -123.5t-20 -128.5h120v-100h-347v-119h-124v119h-341v100h213zM240 49.5q65 27.5 97.5 65t32.5 75.5v21h127v-21q0 -40 32 -77t97 -64t159 -37
l-41 -93q-110 12 -189.5 49t-121.5 94q-42 -57 -121 -94.5t-188 -48.5l-41 93q92 10 157 37.5z" />
    <glyph glyph-name="uniAFCD" unicode="&#xafcd;" 
d="M399 770v-48q0 -66 -5.5 -125.5t-25.5 -133.5h231q26 103 28 208h-174v99h294v-54q0 -68 -4 -125t-20 -128h120v-99h-347v-99q119 -10 184.5 -54.5t65.5 -116.5q0 -82 -83 -128.5t-228 -46.5q-146 0 -229 46.5t-83 128.5q0 72 65.5 116.5t184.5 54.5v99h-343v99h214
q31 110 33 208h-174v99h296zM435 17q187 0 187 77q0 75 -187 75q-188 0 -188 -75q0 -77 188 -77z" />
    <glyph glyph-name="uniAFCE" unicode="&#xafce;" 
d="M246 474q29 103 31 202h-174v100h296v-49q0 -65 -5 -123t-24 -130h230q25 100 27 202h-174v100h294v-55q0 -66 -4 -122t-19 -125h119v-98h-346v-111h252v-98h-236q24 -57 93 -97t179 -54l-47 -96q-107 16 -184 57.5t-118 104.5q-41 -62 -118 -103.5t-183 -57.5l-47 96
q109 13 178 53t93 97h-234v98h249v111h-344v98h216z" />
    <glyph glyph-name="uniAFD4" unicode="&#xafd4;" 
d="M790 812v-897h-124v232h-187v97h187v568h124zM149 394q18 70 24.5 127t7.5 118h-112v100h231v-65q0 -75 -5 -137.5t-23 -139.5q75 2 150 6q16 67 21.5 121t6.5 115h-108v100h227v-68q0 -72 -3.5 -130t-18.5 -128q46 4 68 7l8 -91q-103 -16 -237 -26v-370h-124v364
q-100 -5 -227 -5l-15 101z" />
    <glyph glyph-name="uniAFD8" unicode="&#xafd8;" 
d="M308 759v-60q0 -67 -4 -122t-21 -122q54 1 162 5q15 85 17 198h-115v102h238v-62q0 -64 -2.5 -116.5t-13.5 -114.5q36 2 54 4l6 -91q-122 -16 -254 -22v-195h-108v-147h556v-100h-683v274h107v163q-69 -1 -204 -1l-15 102h130q28 99 30 203h-113v102h233zM493 308h191
v505h120v-691h-120v98h-191v88z" />
    <glyph glyph-name="uniAFDC" unicode="&#xafdc;" 
d="M784 813v-493h-124v30h-169v85h169v378h124zM155 541q21 68 25 140h-109v97h229v-48q0 -50 -3.5 -92.5t-17.5 -93.5l45 2q60 2 90 4q19 64 23 131h-102v97h220v-47q0 -46 -3 -86t-14 -87l70 6l8 -85q-114 -17 -251 -25v-135h-124v129q-64 -2 -199 -4l-14 96zM161 289h623
v-223h-498v-53h524v-91h-648v228h498v50h-499v89z" />
    <glyph glyph-name="uniAFE8" unicode="&#xafe8;" 
d="M783 813v-544h-123v39h-169v87h169v418h123zM153 504q24 79 28 166h-111v98h230v-53q0 -57 -4 -104t-20 -104q90 4 135 7q22 79 24 156h-100v98h219v-51q0 -52 -3.5 -96t-15.5 -97l72 9l9 -86q-112 -19 -253 -29v-144h-124v137q-60 -2 -197 -4l-15 96zM194.5 101
q42.5 57 42.5 128v13h120v-13q0 -56 25 -107t77 -86q52 36 78 87.5t26 105.5v13h123v-13q0 -73 41.5 -129.5t126.5 -82.5l-58 -90q-123 40 -173 150q-49 -114 -163 -159q-113 43 -163 157q-50 -108 -171 -148l-58 90q84 27 126.5 84z" />
    <glyph glyph-name="uniAFE9" unicode="&#xafe9;" 
d="M784 812v-562h-124v49h-169v90h169v423h124zM154 503q25 83 27 168h-109v99h228v-53q0 -57 -4 -105t-20 -105q69 2 136 6q23 84 25 158h-102v99h221v-51q0 -53 -3.5 -98t-16.5 -98l70 8l9 -86q-114 -18 -250 -28v-161h-124v155q-67 -3 -199 -5l-14 96zM242 198
q83 42 232 42t232 -42t83 -120t-83.5 -120.5t-231.5 -42.5q-149 0 -232 42.5t-83 120.5t83 120zM474 8q188 0 188 70q0 69 -188 69t-188 -69q0 -70 188 -70z" />
    <glyph glyph-name="uniAFF0" unicode="&#xaff0;" 
d="M814 813v-897h-119v897h119zM101 409q30 105 32 217h-81v99h190v-58q0 -68 -4.5 -126.5t-22.5 -129.5l100 5q25 100 27 210h-72v99h181v-61q0 -65 -3.5 -119t-18.5 -119l53 6l9 -86q-75 -15 -177 -25v-336h-118v329q-83 -4 -168 -4l-14 98zM376 262h142v535h117v-839
h-117v208h-142v96z" />
    <glyph glyph-name="uniAFF1" unicode="&#xaff1;" 
d="M806 812v-562h-119v562h119zM110 497q19 75 21 156h-78v99h182v-58q0 -53 -3 -97.5t-15 -96.5q36 1 108 5q18 67 20 148h-81v99h185v-64q0 -50 -2.5 -89.5t-11.5 -84.5l45 6l10 -85q-78 -16 -167 -24v-156h-118v149q-87 -4 -174 -4l-13 97h92zM145 217h661v-300h-125v201
h-536v99zM383 383h134v414h116v-544h-116v45h-134v85z" />
    <glyph glyph-name="uniAFF4" unicode="&#xaff4;" 
d="M805 812v-676h-118v676h118zM106 471q22 88 24 174h-77v99h182v-49q0 -57 -4 -108t-18 -113q72 2 108 5q19 76 23 166h-80v99h184v-55q0 -55 -3 -100.5t-15 -100.5l50 6l10 -85q-70 -14 -167 -23v-153h-119v146q-85 -4 -173 -4l-13 96h88zM164 193h124v-161h540v-100
h-664v261zM382 346h135v450h116v-643h-116v104h-135v89z" />
    <glyph glyph-name="uniAFF8" unicode="&#xaff8;" 
d="M805 812v-500h-118v500h118zM111 539q17 65 19 131h-77v97h182v-50q0 -48 -2.5 -88t-13.5 -87q38 1 107 5q16 60 18 123h-80v97h184v-57q0 -45 -2 -80t-10 -75l44 5l9 -83q-61 -12 -166 -21v-142h-119v134q-85 -4 -173 -4l-13 94zM159 284h646v-220h-522v-51h545v-91
h-667v226h522v46h-524v90zM382 434h135v364h116v-481h-116v31h-135v86z" />
    <glyph glyph-name="uniB000" unicode="&#xb000;" 
d="M806 812v-551h-119v551h119zM109 504q20 81 22 158h-78v98h182v-55q0 -55 -3 -100t-15 -98q37 1 108 5q18 74 20 150h-81v98h185v-55q0 -52 -2.5 -93.5t-12.5 -90.5l46 6l10 -84q-78 -16 -167 -24v-156h-118v148q-97 -3 -174 -3l-13 96h91zM157 229h649v-303h-649v303z
M684 24v106h-405v-106h405zM383 389h134v407h116v-530h-116v37h-134v86z" />
    <glyph glyph-name="uniB001" unicode="&#xb001;" 
d="M806 812v-535h-119v535h119zM110 512q19 75 21 155h-78v98h182v-56q0 -54 -3 -98.5t-15 -96.5l109 5q17 67 19 148h-81v98h185v-64q0 -51 -2.5 -89.5t-11.5 -82.5l45 6l10 -85q-70 -14 -167 -23v-146h-118v138q-97 -3 -174 -3l-13 96h92zM155 248h124v-67h404v67h123
v-322h-651v322zM683 23v65h-404v-65h404zM383 404h134v392h116v-516h-116v37h-134v87z" />
    <glyph glyph-name="uniB004" unicode="&#xb004;" 
d="M362 232v-17q0 -53 25.5 -101.5t76.5 -82.5q51 34 77 83.5t26 100.5v17h121v-17q0 -69 43 -123t129 -78l-58 -90q-127 39 -176 145q-23 -52 -63.5 -92t-98.5 -62q-59 21 -99 60.5t-62 91.5q-54 -106 -174 -143l-58 90q84 26 127 80.5t43 120.5v17h121zM109 504
q19 77 21 158h-77v98h181v-55q0 -55 -3 -100t-15 -98q37 1 108 5q18 74 20 150h-81v98h185v-55q0 -52 -2.5 -93.5t-12.5 -90.5l47 6l9 -84q-76 -16 -166 -24v-156h-119v148q-64 -3 -174 -3l-12 96h91zM382 389h134v408h116v-531h-116v37h-134v86zM686 812h119v-551h-119v551
z" />
    <glyph glyph-name="uniB00C" unicode="&#xb00c;" 
d="M792 813v-898h-124v898h124zM154 392q20 73 26.5 132.5t7.5 122.5h-113v100h234v-66q0 -77 -5 -141.5t-24 -144.5l145 6q17 70 23 126.5t7 119.5h-107v100h228v-67q0 -75 -4 -135t-20 -134l67 7l8 -91q-104 -15 -232 -25v-351h-124v345q-101 -5 -230 -5l-15 100z" />
    <glyph glyph-name="uniB010" unicode="&#xb010;" 
d="M784 812v-669h-125v669h125zM157 435q17 62 23.5 111.5t7.5 99.5h-104v100h224v-64q0 -67 -4.5 -122t-22.5 -121q68 2 138 6q16 57 21.5 103.5t6.5 97.5h-107v100h228v-64q0 -65 -3.5 -115.5t-18.5 -110.5l65 8l9 -87q-103 -18 -224 -28v-165h-124v157q-123 -6 -228 -6
l-15 99zM140 218h124v-186h541v-100h-665v286z" />
    <glyph glyph-name="uniB014" unicode="&#xb014;" 
d="M308 765v-57q0 -57 -3.5 -103.5t-17.5 -101.5q68 2 135 6q18 72 22 157h-100v99h221v-54q0 -53 -3 -97t-14 -96l63 7l6 -84q-94 -16 -227 -27v-99h394v-237h-492v-61h522v-95h-647v244h491v55h-492v94h99v92q-105 -4 -221 -4l-15 96q86 0 133 1q23 83 25 166h-104v99h225
zM659 812h125v-465h-125v465z" />
    <glyph glyph-name="uniB01C" unicode="&#xb01c;" 
d="M784 813v-530h-125v530h125zM161 467q15 53 20.5 97.5t6.5 90.5h-103v99h224v-61q0 -61 -4 -111.5t-19 -111.5q93 4 136 7q23 84 25 178h-106v99h227v-63q0 -58 -3 -104t-16 -100l64 8l8 -88q-106 -18 -230 -28v-131h393v-321h-618v321h100v123q-105 -4 -220 -4l-16 99z
M662 25v126h-373v-126h373z" />
    <glyph glyph-name="uniB01D" unicode="&#xb01d;" 
d="M784 812v-497h-125v497h125zM161 476q25 91 27 185h-103v99h224v-60q0 -62 -4 -112t-19 -110q67 1 136 6q23 83 25 177h-106v99h227v-62q0 -57 -3 -103.5t-16 -100.5q41 4 64 7l8 -90q-104 -17 -227 -25v-134h-123v127q-107 -4 -225 -4l-16 100zM147 279h123v-87h391v87
h123v-353h-637v353zM661 24v75h-391v-75h391z" />
    <glyph glyph-name="uniB028" unicode="&#xb028;" 
d="M230 397q34 131 36 262h-171v99h294v-55q0 -78 -5.5 -147t-27.5 -159h246q26 125 28 262h-181v99h303v-61q0 -78 -4.5 -145.5t-21.5 -154.5h116v-101h-191v-381h-125v381h-184v-381h-125v381h-187v101h200z" />
    <glyph glyph-name="uniB030" unicode="&#xb030;" 
d="M230 322v85h-202v98h209q17 89 19 180h-155v101h289v-54q0 -60 -3 -112t-14 -115h231q13 97 15 180h-168v101h301v-39q0 -133 -15 -242h103v-98h-203v-85h107v-239h-494v-62h510v-99h-638v248h495v56h-496v96h109zM510 322v85h-152v-85h152z" />
    <glyph glyph-name="uniB03C" unicode="&#xb03c;" 
d="M392 782v-61q0 -68 -3.5 -125.5t-18.5 -127.5h232q16 102 20 214h-168v100h301v-45q0 -66 -3.5 -128t-15.5 -141h101v-96h-199v-137h-125v137h-161v-138h-124v138h-200v96h206q23 103 25 214h-156v100h289zM173.5 80q43.5 47 43.5 102v16h121v-16q0 -45 23.5 -84.5
t69.5 -67.5q46 29 70 69.5t24 82.5v16h123v-16q0 -59 43 -105t127 -65l-58 -91q-121 33 -173 128q-47 -98 -155 -135q-110 35 -156 132q-52 -92 -170 -125l-58 91q82 21 125.5 68z" />
    <glyph glyph-name="uniB044" unicode="&#xb044;" 
d="M390 731v-52q0 -106 -11 -206.5t-55 -251.5l-121 20q36 116 49 209t15 181h-177v100h300zM30 142h812v-101h-812v101zM446 731h313v-66q0 -111 -6 -208.5t-31 -235.5l-124 14q23 115 30.5 207.5t8.5 188.5h-191v100z" />
    <glyph glyph-name="uniB045" unicode="&#xb045;" 
d="M403 775v-51q0 -72 -6.5 -137t-30.5 -147h230q30 115 32 236h-173v99h294v-57q0 -73 -5 -136t-24 -142h123v-99h-813v99h210q37 118 41 236h-174v99h296zM118 250h627v-333h-125v235h-502v98z" />
    <glyph glyph-name="uniB048" unicode="&#xb048;" 
d="M237 409q39 134 43 256h-173v99h296v-40q0 -77 -7 -147.5t-34 -167.5h231q33 133 35 256h-172v99h294v-41q0 -77 -5.5 -148t-27.5 -166h126v-99h-813v99h207zM130 235h124v-200h512v-100h-636v300z" />
    <glyph glyph-name="uniB04A" unicode="&#xb04a;" 
d="M249 472q18 59 24.5 108.5t7.5 100.5h-174v100h296v-61q0 -69 -4.5 -125t-22.5 -123h225q26 103 28 209h-173v100h295v-55q0 -68 -4 -125.5t-21 -128.5h117v-98h-813v98h219zM119 280h121v-239q80 5 157 26l14 -98q-59 -17 -116 -23.5t-125 -6.5h-51v341zM391 275h146v63
h122v-63h143v-90h-411v90zM481 126q45 34 117 34q70 0 115.5 -34t45.5 -88q0 -56 -45 -89.5t-116 -33.5q-72 0 -117 33.5t-45 89.5q0 54 45 88zM556 8q16 -10 42 -10q25 0 40.5 10t15.5 30q0 19 -15.5 29t-40.5 10q-26 0 -42 -10t-16 -29q0 -20 16 -30z" />
    <glyph glyph-name="uniB04C" unicode="&#xb04c;" 
d="M242 494q18 56 25 100.5t9 92.5h-176v99h297v-58q0 -64 -5 -117.5t-23 -116.5h225q28 99 30 193h-175v99h296v-51q0 -63 -4.5 -118t-21.5 -123h124v-99h-813v99h212zM124 333h617v-244h-492v-66h516v-97h-640v252h492v60h-493v95z" />
    <glyph glyph-name="uniB04E" unicode="&#xb04e;" 
d="M242 470q20 63 27.5 113t8.5 100h-176v99h298v-60q0 -68 -5.5 -125.5t-25.5 -126.5h226q27 101 31 213h-175v99h296v-52q0 -67 -5 -126.5t-23 -133.5h124v-98h-813v98h212zM113 306h293v-226h-176v-63q69 0 109 2.5t80 10.5l9 -89q-49 -10 -98 -12.5t-163 -2.5h-52v237
h176v53h-178v90zM455 306h296v-380h-296v380zM647 16v199h-88v-199h88z" />
    <glyph glyph-name="uniB053" unicode="&#xb053;" 
d="M247 478q19 61 26.5 110t8.5 98h-175v100h296v-61q0 -67 -5 -123.5t-24 -123.5h225q26 98 30 208h-173v100h294v-53q0 -66 -4.5 -124.5t-22.5 -130.5h120v-98h-813v98h217zM103 311h297v-231h-177v-62q80 1 123 3.5t85 11.5l11 -92q-53 -10 -107.5 -12.5t-174.5 -2.5h-56
v238h177v55h-178v92zM427 276h131v69h121v-69h132v-89h-384v89zM505.5 129q44.5 34 113.5 34t114 -34t45 -89q0 -56 -45 -90t-114 -34t-113.5 34t-44.5 90q0 55 44.5 89zM580.5 9.5q14.5 -10.5 38.5 -10.5t38.5 10.5t14.5 30.5q0 39 -53 39t-53 -39q0 -20 14.5 -30.5z" />
    <glyph glyph-name="uniB054" unicode="&#xb054;" 
d="M244 456q33 112 37 224h-174v99h296v-51q0 -70 -5.5 -132t-27.5 -140h229q27 111 29 224h-173v99h294v-58q0 -70 -4.5 -129.5t-21.5 -135.5h120v-100h-813v100h214zM127 261h617v-331h-617v331zM622 28v136h-373v-136h373z" />
    <glyph glyph-name="uniB055" unicode="&#xb055;" 
d="M247 472q31 106 33 211h-173v100h296v-51q0 -67 -5.5 -126t-25.5 -134h229q25 105 27 211h-173v100h294v-57q0 -68 -4 -125.5t-19 -128.5h117v-98h-813v98h217zM127 308h123v-97h370v97h123v-382h-616v382zM620 26v89h-370v-89h370z" />
    <glyph glyph-name="uniB057" unicode="&#xb057;" 
d="M239 434q37 128 41 240h-173v100h296v-40q0 -73 -6.5 -141t-31.5 -159h232q29 128 31 240h-172v100h294v-42q0 -75 -4.5 -141.5t-24.5 -156.5h122v-99h-813v99h209zM243.5 59q65.5 32 98 77t32.5 95v29h123v-29q0 -50 32.5 -95t98.5 -77t161 -44l-47 -96
q-107 15 -185.5 57t-120.5 105q-43 -63 -121.5 -105t-185.5 -57l-45 96q94 12 159.5 44z" />
    <glyph glyph-name="uniB059" unicode="&#xb059;" 
d="M241 440q36 116 40 234h-174v99h296v-50q0 -72 -6 -136.5t-30 -146.5h230q29 114 31 234h-173v99h294v-56q0 -73 -5 -136t-23 -141h122v-99h-813v99h211zM160.5 190q38.5 41 109 62.5t165.5 21.5q94 0 164.5 -21.5t109 -62.5t38.5 -96t-38.5 -95.5t-109 -62t-164.5 -21.5
q-95 0 -165.5 21.5t-109 62t-38.5 95.5t38.5 96zM297 34.5q49 -20.5 138 -20.5q88 0 137 20.5t49 59.5q0 40 -48.5 60t-137.5 20t-138 -20t-49 -60q0 -39 49 -59.5z" />
    <glyph glyph-name="uniB05D" unicode="&#xb05d;" 
d="M245 482q31 103 35 202h-173v98h296v-46q0 -64 -5.5 -122t-26.5 -132h228q27 99 29 202h-173v98h294v-60q0 -67 -4 -121t-21 -119h119v-99h-813v99h215zM130 320h617v-92h-493v-59h472v-89h-472v-61h500v-93h-624v394z" />
    <glyph glyph-name="uniB07C" unicode="&#xb07c;" 
d="M776 813v-897h-124v897h124zM148.5 380q37.5 102 44.5 240h-125v101h244q0 -132 -15.5 -235t-57 -196.5t-117.5 -176.5l-95 72q84 93 121.5 195zM401 346.5q35 117.5 41 273.5h-99v101h218q0 -215 -37 -374.5t-140 -290.5l-101 66q83 107 118 224.5z" />
    <glyph glyph-name="uniB07D" unicode="&#xb07d;" 
d="M775 241v-326h-125v226h-488v100h613zM143 511.5q36 57.5 46 140.5h-121v100h239q0 -100 -17.5 -174.5t-59.5 -137t-116 -118.5l-81 78q74 54 110 111.5zM402.5 491.5q33.5 66.5 41.5 160.5h-106v100h224q0 -156 -38 -263t-138 -196l-90 70q73 62 106.5 128.5zM650 812
h125v-535h-125v535z" />
    <glyph glyph-name="uniB080" unicode="&#xb080;" 
d="M775 809v-647h-125v647h125zM144.5 485.5q36.5 64.5 44.5 155.5h-122v99h241q0 -156 -42 -262.5t-152 -192.5l-82 77q76 59 112.5 123.5zM172 214h124v-182h502v-100h-626v282zM404 463q34 74 41 178h-105v99h223q0 -111 -15 -195t-56 -158t-116 -139l-84 75
q78 66 112 140z" />
    <glyph glyph-name="uniB084" unicode="&#xb084;" 
d="M262.5 537q-44.5 -92 -152.5 -168l-78 79q71 48 107 98t47 124h-121v99h242q0 -140 -44.5 -232zM173 322h601v-240h-477v-59h506v-97h-628v246h477v54h-479v96zM397.5 529.5q34.5 57.5 43.5 140.5h-104v99h223q0 -98 -16 -171.5t-56 -135t-112 -116.5l-86 73
q73 53 107.5 110.5zM650 813h124v-454h-124v454z" />
    <glyph glyph-name="uniB08C" unicode="&#xb08c;" 
d="M263.5 513q-42.5 -99 -151.5 -180l-80 77q74 54 110 111t46 140h-120v99h238q0 -148 -42.5 -247zM175 263h600v-337h-600v337zM401 502q35 66 44 159h-108v99h225q0 -154 -40 -260t-142 -195l-88 70q74 61 109 127zM653 24v142h-356v-142h356zM650 812h125v-510h-125v510
z" />
    <glyph glyph-name="uniB08D" unicode="&#xb08d;" 
d="M775 812v-482h-125v482h125zM146.5 528q36.5 58 46.5 141h-120v98h238q0 -149 -44 -247.5t-155 -178.5l-78 77q76 52 112.5 110zM180 290h123v-88h349v88h123v-365h-595v365zM403 508.5q35 66.5 44 160.5h-104v98h220q0 -156 -39 -262.5t-142 -193.5l-89 70
q75 61 110 127.5zM652 25v81h-349v-81h349z" />
    <glyph glyph-name="uniB08F" unicode="&#xb08f;" 
d="M773 813v-603h-124v603h124zM143 506.5q36 58.5 45 143.5h-120v99h238q0 -99 -17.5 -174t-60 -138t-116.5 -119l-80 76q75 54 111 112.5zM291 60q64 33 96 79.5t32 98.5v18h129v-18q0 -52 32 -98.5t96 -79.5t158 -45l-48 -98q-108 18 -185 62t-118 109q-41 -65 -118 -109
t-185 -62l-46 98q93 12 157 45zM399.5 487q34.5 68 43.5 163h-104v99h220q0 -156 -39 -264t-139 -198l-89 70q73 62 107.5 130z" />
    <glyph glyph-name="uniB091" unicode="&#xb091;" 
d="M775 812v-525h-125v525h125zM145.5 521q36.5 57 46.5 140h-120v99h238q0 -148 -43.5 -247t-153.5 -179l-79 77q75 53 111.5 110zM241 218q84 47 229 47q95 0 165.5 -21t109 -61t38.5 -94t-38.5 -93.5t-109 -60.5t-165.5 -21t-166 21t-109 60.5t-38 93.5q0 82 84 129z
M331.5 30.5q48.5 -19.5 138.5 -19.5t139 19.5t49 58.5q0 40 -48.5 59.5t-139.5 19.5q-187 0 -187 -79q0 -39 48.5 -58.5zM402.5 501.5q34.5 66.5 42.5 159.5h-103v99h221q0 -154 -39.5 -260.5t-140.5 -194.5l-89 69q74 61 108.5 127.5z" />
    <glyph glyph-name="uniB098" unicode="&#xb098;" 
d="M731 814v-342h127v-102h-127v-454h-125v898h125zM58 727h124v-488q191 5 364 39l13 -103q-192 -39 -424 -39h-77v591z" />
    <glyph glyph-name="uniB099" unicode="&#xb099;" 
d="M735 813v-209h120v-103h-120v-205h-125v517h125zM67 762h124v-317q185 3 347 34l15 -99q-188 -37 -411 -37h-75v419zM143 255h592v-340h-125v241h-467v99z" />
    <glyph glyph-name="uniB09A" unicode="&#xb09a;" 
d="M735 813v-202h120v-102h-120v-197h-125v501h125zM67 763h124v-300q185 3 342 36l15 -102q-186 -37 -407 -37h-74v403zM126 271h284v-356h-123v257h-161v99zM449 271h286v-356h-124v257h-162v99z" />
    <glyph glyph-name="uniB09C" unicode="&#xb09c;" 
d="M191 752v-335q182 3 349 36l14 -100q-186 -38 -411 -38h-76v437h124zM160 228h124v-196h480v-100h-604v296zM610 812h125v-252h120v-105h-120v-287h-125v644z" />
    <glyph glyph-name="uniB09F" unicode="&#xb09f;" 
d="M735 813v-194h120v-102h-120v-202h-125v498h125zM67 764h124v-308q177 3 345 35l14 -100q-180 -37 -408 -37h-75v410zM153 271h587v-99h-462v-147h476v-99h-601v345z" />
    <glyph glyph-name="uniB0A0" unicode="&#xb0a0;" 
d="M735 813v-169h120v-102h-120v-173h-125v444h125zM67 773h124v-276q179 3 345 36l14 -100q-179 -38 -408 -38h-75v378zM145 332h590v-246h-464v-62h490v-98h-614v252h463v56h-465v98z" />
    <glyph glyph-name="uniB0A1" unicode="&#xb0a1;" 
d="M735 812v-183h119v-100h-119v-182h-125v465h125zM67 773h124v-287q177 3 345 35l14 -100q-191 -38 -408 -38h-75v390zM111 308h300v-231h-179v-59q95 1 143 4.5t91 14.5l12 -92q-51 -13 -108.5 -16t-198.5 -3h-58v238h177v51h-179v93zM448 308h287v-390h-123v292h-164v98
z" />
    <glyph glyph-name="uniB0A2" unicode="&#xb0a2;" 
d="M735 812v-182h120v-101h-120v-182h-125v465h125zM67 773h124v-284q177 3 345 35l14 -102q-180 -37 -408 -37h-75v388zM102 307h291v-228h-169v-59q59 1 100 4t84 10l11 -92q-55 -10 -108 -13t-154 -3h-53v239h169v51h-171v91zM439 307h296v-381h-296v381zM628 16v201h-82
v-201h82z" />
    <glyph glyph-name="uniB0A8" unicode="&#xb0a8;" 
d="M735 812v-190h120v-102h-120v-213h-125v505h125zM67 770h124v-314q183 5 347 36l15 -100q-181 -37 -411 -37h-75v415zM153 265h582v-339h-582v339zM613 24v144h-337v-144h337z" />
    <glyph glyph-name="uniB0A9" unicode="&#xb0a9;" 
d="M735 812v-184h120v-102h-120v-184h-125v470h125zM67 774h124v-303q188 3 347 36l15 -101q-194 -37 -411 -37h-75v405zM149 298h124v-91h338v91h124v-372h-586v372zM611 25v85h-338v-85h338z" />
    <glyph glyph-name="uniB0AB" unicode="&#xb0ab;" 
d="M735 813v-229h120v-101h-120v-259h-125v589h125zM67 750h124v-316q183 5 347 36l15 -99q-191 -39 -411 -39h-75v418zM261.5 63q63.5 34 95.5 81.5t32 99.5v26h123v-26q0 -52 32 -99.5t95.5 -81t154.5 -46.5l-47 -97q-104 17 -179.5 60.5t-116.5 107.5
q-41 -65 -116.5 -108.5t-179.5 -60.5l-48 97q91 13 154.5 47z" />
    <glyph glyph-name="uniB0AC" unicode="&#xb0ac;" 
d="M735 813v-194h121v-101h-121v-201h-124v496h124zM180.5 106q41.5 60 41.5 131v44h121v-44q0 -58 25 -111.5t77 -89.5q52 39 77.5 93t25.5 108v44h124v-44q0 -76 41 -135t125 -87l-62 -90q-119 43 -168 156q-23 -56 -63.5 -98.5t-98.5 -66.5q-117 45 -163 162
q-50 -110 -165 -153l-62 90q83 31 124.5 91zM67 759h125v-296q190 5 346 36l15 -100q-191 -38 -411 -38h-75v398z" />
    <glyph glyph-name="uniB0AD" unicode="&#xb0ad;" 
d="M735 813v-208h120v-102h-120v-215h-125v525h125zM67 761h124v-314q185 3 347 34l15 -99q-193 -38 -411 -38h-75v417zM175 191.5q38 40.5 107 62.5t160 22t159.5 -22t106 -62.5t37.5 -95.5t-37.5 -96t-106 -63.5t-159.5 -22.5t-160 22.5t-107 63.5t-38 96t38 95.5z
M308 34.5q47 -21.5 134 -21.5q86 0 133 21.5t47 61.5q0 41 -47 61.5t-133 20.5q-87 0 -134 -20.5t-47 -61.5q0 -40 47 -61.5z" />
    <glyph glyph-name="uniB0AE" unicode="&#xb0ae;" 
d="M735 814v-199h120v-101h-120v-193h-125v493h125zM67 769h124v-301q188 3 347 36l15 -101q-188 -37 -411 -37h-75v403zM249 51.5q58 25.5 90.5 60t39.5 72.5h-232v98h599v-98h-231q7 -37 40 -72t91.5 -60.5t137.5 -35.5l-46 -94q-103 14 -177 54.5t-113 99.5
q-39 -59 -113.5 -99t-177.5 -54l-47 94q81 9 139 34.5z" />
    <glyph glyph-name="uniB0AF" unicode="&#xb0af;" 
d="M735 813v-186h120v-102h-120v-198h-125v486h125zM67 765h124v-271q177 3 345 35l14 -100q-185 -38 -408 -38h-75v374zM298 67q70 43 81 99h-240v97h243v88h126v-88h239v-97h-236q11 -56 81 -99t191 -55l-41 -94q-105 13 -180.5 49.5t-115.5 91.5q-41 -55 -116.5 -91.5
t-180.5 -49.5l-42 94q121 12 191 55z" />
    <glyph glyph-name="uniB0B1" unicode="&#xb0b1;" 
d="M735 813v-184h120v-102h-120v-184h-125v470h125zM67 767h124v-286q177 3 345 35l14 -102q-191 -38 -408 -38h-75v391zM149 306h590v-91h-464v-53h454v-88h-454v-56h483v-92h-609v380z" />
    <glyph glyph-name="uniB0B3" unicode="&#xb0b3;" 
d="M735 813v-169h120v-101h-120v-190h-125v460h125zM67 771h124v-254q179 3 345 36l14 -101q-188 -36 -408 -36h-75v355zM130 307h252v76h124v-76h253v-94h-629v94zM256.5 150q68.5 36 187.5 36q118 0 186 -36t68 -99q0 -64 -68 -100t-186 -36q-119 0 -187.5 36t-68.5 100
q0 63 68.5 99zM444 4q124 0 124 47q0 46 -124 46q-125 0 -125 -46q0 -47 125 -47z" />
    <glyph glyph-name="uniB0B4" unicode="&#xb0b4;" 
d="M798 813v-897h-118v449h-85v-406h-116v837h116v-331h85v348h118zM67 712h124v-469q129 4 237 25l12 -106q-138 -26 -311 -26h-62v576z" />
    <glyph glyph-name="uniB0B5" unicode="&#xb0b5;" 
d="M794 813v-521h-118v209h-79v-205h-116v500h116v-194h79v211h118zM67 753h124v-301q136 2 236 24l13 -99q-75 -16 -148.5 -21.5t-163.5 -5.5h-61v403zM179 253h615v-338h-124v239h-491v99z" />
    <glyph glyph-name="uniB0B8" unicode="&#xb0b8;" 
d="M793 812v-662h-117v311h-80v-285h-115v620h115v-235h80v251h117zM67 737h124v-323q128 2 236 24l12 -98q-75 -16 -148 -22t-163 -6h-61v425zM189 235h124v-200h504v-100h-628v300z" />
    <glyph glyph-name="uniB0BB" unicode="&#xb0bb;" 
d="M801 257v-99h-496v-129h502v-103h-629v331h623zM68 751h125v-299q69 1 123.5 6.5t109.5 18.5l13 -102q-66 -16 -134.5 -21.5t-175.5 -5.5h-61v403zM483 796h117v-194h77v210h121v-519h-121v207h-77v-205h-117v501z" />
    <glyph glyph-name="uniB0BC" unicode="&#xb0bc;" 
d="M793 812v-454h-117v176h-80v-174h-116v436h116v-164h80v180h117zM67 764h124v-275q126 2 234 24l11 -100q-75 -15 -145 -19.5t-164 -4.5h-60v375zM186 324h607v-241h-480v-60h511v-97h-636v247h482v55h-484v96z" />
    <glyph glyph-name="uniB0C4" unicode="&#xb0c4;" 
d="M794 812v-504h-118v195h-80v-190h-116v483h116v-192h80v208h118zM67 755h124v-296q131 2 235 22l14 -99q-75 -15 -146.5 -19.5t-165.5 -4.5h-61v397zM186 270h608v-344h-608v344zM672 24v148h-364v-148h364z" />
    <glyph glyph-name="uniB0C5" unicode="&#xb0c5;" 
d="M794 812v-486h-118v187h-80v-178h-115v461h115v-184h80v200h118zM67 756h125v-285q69 2 123.5 6.5t110.5 16.5l14 -100q-75 -14 -146.5 -18.5t-165.5 -4.5h-61v385zM188 287h123v-85h361v85h122v-361h-606v361zM672 26v80h-361v-80h361z" />
    <glyph glyph-name="uniB0C7" unicode="&#xb0c7;" 
d="M793 812v-579h-118v257h-79v-182h-116v488h116v-206h79v222h118zM67 733h124v-314q132 5 232 31l13 -94q-71 -19 -142.5 -26.5t-167.5 -7.5h-59v411zM296 62.5q65 34.5 98 81.5t33 97v26h124v-26q0 -50 33 -97t97.5 -81.5t155.5 -47.5l-46 -96q-106 16 -183.5 60.5
t-119.5 110.5q-41 -66 -118.5 -110.5t-183.5 -60.5l-47 96q92 13 157 47.5z" />
    <glyph glyph-name="uniB0C8" unicode="&#xb0c8;" 
d="M793 813v-509h-118v202h-82v-194h-115v484h115v-191h82v208h118zM66 749h125v-294q125 2 233 23l12 -100q-75 -16 -147 -21.5t-162 -5.5h-61v398zM203.5 102q42.5 60 42.5 130v42h120v-42q0 -57 25.5 -109.5t76.5 -88.5q52 38 78 91.5t26 106.5v42h123v-42q0 -74 42 -133
t126 -86l-61 -91q-119 41 -170 154q-51 -116 -163 -162q-115 43 -162 159q-52 -108 -168 -151l-60 91q82 29 124.5 89z" />
    <glyph glyph-name="uniB0C9" unicode="&#xb0c9;" 
d="M794 813v-536h-118v217h-82v-188h-115v490h115v-201h82v218h118zM67 743h125v-304q130 3 236 24l13 -101q-76 -15 -149 -20.5t-164 -5.5h-61v407zM221 185q38 40 108 61.5t163 21.5q92 0 161.5 -21.5t107.5 -61.5t38 -94q0 -53 -38 -93t-107.5 -61.5t-161.5 -21.5
q-93 0 -163 21.5t-108 61.5t-38 93q0 54 38 94zM356 32.5q48 -20.5 136 -20.5q87 0 134.5 20.5t47.5 58.5q0 40 -47 60t-135 20q-89 0 -136.5 -20t-47.5 -60q0 -38 48 -58.5z" />
    <glyph glyph-name="uniB0D0" unicode="&#xb0d0;" 
d="M731 814v-212h120v-102h-120v-160h120v-101h-120v-323h-125v898h125zM58 727h124v-488q198 5 364 39l13 -105q-192 -39 -423 -39h-78v593z" />
    <glyph glyph-name="uniB0D1" unicode="&#xb0d1;" 
d="M735 813v-110h117v-102h-117v-91h117v-102h-117v-112h-125v517h125zM67 762h124v-317q185 3 347 34l15 -99q-188 -37 -411 -37h-75v419zM143 255h592v-340h-125v241h-467v99z" />
    <glyph glyph-name="uniB0D4" unicode="&#xb0d4;" 
d="M192 752v-335q181 3 348 36l14 -100q-186 -38 -411 -38h-76v437h125zM160 228h124v-196h480v-100h-604v296zM610 812h125v-146h117v-100h-117v-116h117v-103h-117v-179h-125v644z" />
    <glyph glyph-name="uniB0D7" unicode="&#xb0d7;" 
d="M737 259v-99h-467v-132h476v-102h-603v333h594zM64 768h124v-300q99 2 183 9.5t167 25.5l16 -104q-98 -21 -197 -29t-218 -8h-75v406zM605 812h128v-114h121v-105h-121v-95h121v-104h-121v-98h-128v516z" />
    <glyph glyph-name="uniB0D8" unicode="&#xb0d8;" 
d="M735 813v-91h119v-98h-119v-69h119v-99h-119v-87h-125v444h125zM67 773h124v-276q179 3 345 36l14 -100q-179 -38 -408 -38h-75v378zM145 332h590v-246h-464v-62h490v-98h-614v252h463v56h-465v98z" />
    <glyph glyph-name="uniB0E0" unicode="&#xb0e0;" 
d="M735 812v-109h118v-101h-118v-87h118v-101h-118v-107h-125v505h125zM67 770h124v-314q183 5 347 36l15 -100q-181 -37 -411 -37h-75v415zM153 265h582v-339h-582v339zM613 24v144h-337v-144h337z" />
    <glyph glyph-name="uniB0E1" unicode="&#xb0e1;" 
d="M272 278v-79h332v79h128v-353h-589v353h129zM65 771h123v-298q192 3 347 36l19 -103q-186 -39 -414 -39h-75v404zM604 25v79h-332v-79h332zM605 812h128v-110h121v-103h-121v-91h121v-102h-121v-94h-128v500z" />
    <glyph glyph-name="uniB0E3" unicode="&#xb0e3;" 
d="M735 813v-127h118v-102h-118v-103h118v-101h-118v-156h-125v589h125zM67 750h124v-316q183 5 347 36l15 -99q-191 -39 -411 -39h-75v418zM261.5 63q63.5 34 95.5 81.5t32 99.5v26h123v-26q0 -52 32 -99.5t95.5 -81t154.5 -46.5l-47 -97q-104 17 -179.5 60.5t-116.5 107.5
q-41 -65 -116.5 -108.5t-179.5 -60.5l-48 97q91 13 154.5 47z" />
    <glyph glyph-name="uniB0E5" unicode="&#xb0e5;" 
d="M735 813v-116h118v-102h-118v-89h118v-102h-118v-116h-125v525h125zM67 761h124v-314q185 3 347 34l15 -99q-193 -38 -411 -38h-75v417zM175 191.5q38 40.5 107 62.5t160 22t159.5 -22t106 -62.5t37.5 -95.5t-37.5 -96t-106 -63.5t-159.5 -22.5t-160 22.5t-107 63.5
t-38 96t38 95.5zM308 34.5q47 -21.5 134 -21.5q86 0 133.5 21.5t47.5 61.5q0 41 -47.5 61.5t-133.5 20.5q-87 0 -134 -20.5t-47 -61.5q0 -40 47 -61.5z" />
    <glyph glyph-name="uniB0EC" unicode="&#xb0ec;" 
d="M193 712v-468q71 2 128 7.5t115 17.5l12 -113q-72 -15 -142.5 -20t-174.5 -5h-64v581h126zM485 798h115v-187h84v202h119v-898h-119v317h-84v-275h-115v841zM684 337v167h-84v-167h84z" />
    <glyph glyph-name="uniB108" unicode="&#xb108;" 
d="M782 813v-899h-124v519h-244v101h244v279h124zM78 717h123v-489q192 3 352 36l13 -102q-184 -37 -413 -37h-75v592z" />
    <glyph glyph-name="uniB109" unicode="&#xb109;" 
d="M205 764v-333q181 3 344 35l13 -103q-98 -20 -197 -27.5t-210 -7.5h-74v436h124zM171 244h609v-329h-125v231h-484v98zM435 659h220v154h125v-529h-125v275h-220v100z" />
    <glyph glyph-name="uniB10B" unicode="&#xb10b;" 
d="M203 766v-316q185 3 342 34l15 -102q-99 -20 -197.5 -28t-208.5 -8h-74v420h123zM126 270h300v-349h-123v249h-177v100zM434 674h220v139h125v-499h-125v259h-220v101zM547.5 91q36.5 55 36.5 125v65h124v-65q0 -71 36 -125.5t110 -80.5l-61 -96q-101 37 -148 132
q-45 -95 -147 -132l-63 96q76 26 112.5 81z" />
    <glyph glyph-name="uniB10C" unicode="&#xb10c;" 
d="M780 812v-642h-125v365h-221v100h221v177h125zM80 751h124v-352q184 3 342 34l16 -102q-99 -20 -197.5 -28t-209.5 -8h-75v456zM190 221h124v-189h486v-100h-610v289z" />
    <glyph glyph-name="uniB10F" unicode="&#xb10f;" 
d="M783 260v-100h-490v-132h496v-103h-621v335h615zM71 767h125v-338q185 4 331 28l13 -95q-100 -16 -195.5 -22t-202.5 -6h-71v433zM429 657h223v155h127v-515h-127v257h-223v103z" />
    <glyph glyph-name="uniB110" unicode="&#xb110;" 
d="M204 775v-293q190 3 343 33l16 -101q-183 -34 -408 -34h-75v395h124zM189 325h591v-243h-465v-58h487v-98h-611v248h465v52h-467v99zM435 686h220v127h125v-453h-125v226h-220v100z" />
    <glyph glyph-name="uniB112" unicode="&#xb112;" 
d="M205 774v-309q194 4 343 32l15 -100q-181 -34 -408 -34h-74v411h124zM135 302h300v-228h-179v-57q60 1 103 4.5t88 11.5l12 -93q-56 -10 -108 -12.5t-162 -2.5h-53v236h179v50h-180v91zM435 678h220v135h125v-474h-125v240h-220v99zM479 302h301v-378h-301v378zM671 14
v198h-86v-198h86z" />
    <glyph glyph-name="uniB113" unicode="&#xb113;" 
d="M205 773v-302q194 4 343 32l15 -101q-100 -19 -198.5 -26t-209.5 -7h-74v404h124zM135 303h300v-228h-179v-58q60 1 103 4.5t88 11.5l12 -93q-56 -10 -108 -12.5t-162 -2.5h-53v237h179v50h-180v91zM435 684h220v129h125v-470h-125v242h-220v99zM479 312h111v-97h79v97
h111v-387h-301v387zM669 20v102h-79v-102h79z" />
    <glyph glyph-name="uniB118" unicode="&#xb118;" 
d="M780 262v-336h-594v336h594zM81 764h124v-326q181 3 344 35l13 -103q-98 -20 -197 -27.5t-210 -7.5h-74v429zM658 24v141h-350v-141h350zM435 661h220v152h125v-513h-125v261h-220v100z" />
    <glyph glyph-name="uniB119" unicode="&#xb119;" 
d="M205 768v-308q187 3 344 34l13 -103q-180 -36 -407 -36h-74v413h124zM184 289h123v-88h350v88h123v-363h-596v363zM657 26v80h-350v-80h350zM435 671h220v142h125v-489h-125v247h-220v100z" />
    <glyph glyph-name="uniB11B" unicode="&#xb11b;" 
d="M204 762v-340q187 3 344 35l14 -103q-181 -36 -407 -36h-75v444h124zM288.5 62.5q63.5 33.5 96 80t32.5 97.5v28h123v-28q0 -51 32 -97t95.5 -80t155.5 -47l-49 -97q-104 17 -179.5 60.5t-116.5 107.5q-41 -64 -117 -107.5t-180 -60.5l-47 97q91 13 154.5 46.5zM432 647
h223v166h125v-599h-125v333h-223v100z" />
    <glyph glyph-name="uniB11C" unicode="&#xb11c;" 
d="M203 762v-316q184 3 342 34l15 -102q-99 -20 -197.5 -27.5t-208.5 -7.5h-75v419h124zM202.5 108.5q42.5 60.5 42.5 131.5v40h120v-40q0 -58 25 -111.5t77 -89.5q52 38 78 92.5t26 108.5v40h123v-40q0 -76 41 -135.5t127 -86.5l-63 -90q-119 41 -169 155
q-49 -117 -162 -165q-115 45 -163 161q-52 -108 -166 -151l-61 90q82 30 124.5 90.5zM432 662h221v151h124v-508h-124v258h-221v99z" />
    <glyph glyph-name="uniB11D" unicode="&#xb11d;" 
d="M205 755v-316q192 3 344 33l13 -102q-98 -20 -197 -27.5t-210 -7.5h-74v420h124zM253 223q82 47 224 47t224 -47t82 -131q0 -83 -82 -130.5t-224 -47.5t-224 47.5t-82 130.5q0 84 82 131zM341 31.5q47 -20.5 136 -20.5t135.5 20.5t46.5 60.5q0 82 -182 82
q-89 0 -136 -20.5t-47 -61.5q0 -40 47 -60.5zM435 659h220v154h125v-530h-125v276h-220v100z" />
    <glyph glyph-name="uniB122" unicode="&#xb122;" 
d="M195 767v-338q185 4 332 28l13 -95q-100 -16 -195.5 -22t-202.5 -6h-71v433h124zM149 20h127v151h-117v99h628v-99h-117v-151h127v-99h-648v99zM546 20v151h-148v-151h148zM429 657h225v155h126v-515h-126v257h-225v103z" />
    <glyph glyph-name="uniB123" unicode="&#xb123;" 
d="M205 768v-260q195 4 342 32l16 -99q-187 -35 -408 -35h-75v362h125zM151 303h260v75h125v-75h258v-95h-643v95zM286 148q68 35 187 35t187.5 -35t68.5 -98q0 -64 -68.5 -100t-187.5 -36t-187 36t-68 100q0 63 68 98zM473 3q132 0 132 47q0 45 -132 45t-132 -45
q0 -47 132 -47zM431 699h224v114h125v-465h-125v252h-224v99z" />
    <glyph glyph-name="uniB124" unicode="&#xb124;" 
d="M189 726v-488q131 2 243 24l16 -103q-77 -16 -151.5 -22t-167.5 -6h-63v595h123zM315 528h179v268h116v-839h-116v470h-179v101zM684 813h119v-897h-119v897z" />
    <glyph glyph-name="uniB125" unicode="&#xb125;" 
d="M801 813v-529h-119v529h119zM73 749h123v-325q134 3 239 25l14 -98q-76 -17 -149 -23t-166 -6h-61v427zM184 244h617v-329h-125v229h-492v100zM340 641h159v155h116v-505h-116v250h-159v100z" />
    <glyph glyph-name="uniB128" unicode="&#xb128;" 
d="M800 812v-658h-118v658h118zM73 739h123v-344q127 2 239 23l16 -99q-78 -15 -151 -20t-166 -5h-61v445zM201 229h125v-197h498v-101h-623v298zM339 616h160v179h116v-620h-116v342h-160v99z" />
    <glyph glyph-name="uniB12B" unicode="&#xb12b;" 
d="M804 257v-99h-499v-130h502v-102h-629v331h626zM68 756h125v-315q134 3 238 21l10 -102q-73 -12 -145 -16.5t-167 -4.5h-61v417zM343 650h160v146h117v-501h-117v254h-160v101zM677 812h119v-517h-119v517z" />
    <glyph glyph-name="uniB12C" unicode="&#xb12c;" 
d="M800 812v-459h-118v459h118zM73 763h123v-281q127 2 241 23l14 -99q-77 -15 -151 -20t-166 -5h-61v382zM193 321h607v-240h-481v-59h511v-96h-636v245h482v54h-483v96zM339 674h160v122h116v-438h-116v219h-160v97z" />
    <glyph glyph-name="uniB134" unicode="&#xb134;" 
d="M801 266v-340h-604v340h604zM73 758h123v-311q135 3 238 23l12 -100q-76 -14 -148.5 -19t-163.5 -5h-61v412zM678 24v145h-358v-145h358zM339 653h160v142h116v-486h-116v245h-160v99zM682 812h119v-510h-119v510z" />
    <glyph glyph-name="uniB135" unicode="&#xb135;" 
d="M801 812v-492h-119v492h119zM73 759h123v-306q137 3 240 26l16 -98q-76 -17 -149.5 -23t-168.5 -6h-61v407zM198 286h124v-88h355v88h124v-360h-603v360zM677 26v77h-355v-77h355zM339 660h160v135h116v-467h-116v233h-160v99z" />
    <glyph glyph-name="uniB137" unicode="&#xb137;" 
d="M499 621v175h116v-508h-116v235h-160v98h160zM73 733h123v-328q126 5 235 29l11 -99q-74 -18 -146.5 -24.5t-162.5 -6.5h-60v429zM296.5 58q64.5 32 97.5 76.5t33 92.5v24h123v-24q0 -48 33 -92.5t97.5 -76.5t156.5 -43l-45 -96q-106 15 -184 57.5t-120 105.5
q-42 -63 -119.5 -105.5t-183.5 -57.5l-45 96q92 11 156.5 43zM682 812h118v-605h-118v605z" />
    <glyph glyph-name="uniB138" unicode="&#xb138;" 
d="M800 812v-516h-119v516h119zM72 756h123v-315q131 3 236 25l14 -99q-75 -15 -147 -20.5t-165 -5.5h-61v415zM203.5 107q42.5 60 42.5 130v31h120v-31q0 -57 25 -109.5t77 -88.5q52 37 78 90.5t26 107.5v31h123v-31q0 -75 42 -134t126 -85l-61 -91q-121 42 -171 154
q-23 -55 -63.5 -97t-98.5 -65q-116 44 -162 159q-52 -108 -168 -151l-60 91q82 29 124.5 89zM338 647h160v149h116v-490h-116v242h-160v99z" />
    <glyph glyph-name="uniB139" unicode="&#xb139;" 
d="M801 812v-542h-119v542h119zM73 747h123v-328q125 2 237 23l13 -99q-76 -15 -148.5 -20t-163.5 -5h-61v429zM226 181.5q38 39.5 108 60.5t162 21t161.5 -21t108 -60.5t38.5 -91.5q0 -53 -38.5 -92.5t-108 -60.5t-161.5 -21t-162 21t-108 60.5t-38 92.5q0 52 38 91.5z
M360 32.5q48 -19.5 136 -19.5q87 0 135 19.5t48 57.5t-48 57.5t-135 19.5q-88 0 -136 -19.5t-48 -57.5t48 -57.5zM339 632h160v164h116v-497h-116v234h-160v99z" />
    <glyph glyph-name="uniB140" unicode="&#xb140;" 
d="M782 813v-899h-124v409h-240v99h240v102h-240v100h240v189h124zM78 720h123v-509q98 2 175.5 8.5t153.5 20.5l12 -101q-88 -18 -177.5 -24.5t-214.5 -6.5h-72v612z" />
    <glyph glyph-name="uniB141" unicode="&#xb141;" 
d="M205 764v-361q93 2 165.5 7.5t145.5 19.5l16 -100q-87 -18 -174.5 -24t-206.5 -6h-70v464h124zM168 238h612v-323h-125v223h-487v100zM439 563h216v64h-216v93h216v93h125v-536h-125v191h-216v95z" />
    <glyph glyph-name="uniB144" unicode="&#xb144;" 
d="M780 812v-659h-125v293h-220v98h220v69h-220v98h220v101h125zM80 755h124v-384q178 3 321 28l12 -100q-92 -17 -183 -23.5t-203 -6.5h-71v486zM190 211h124v-179h486v-100h-610v279z" />
    <glyph glyph-name="uniB147" unicode="&#xb147;" 
d="M786 259v-99h-492v-132h498v-103h-626v334h620zM71 767h125v-352q174 2 317 22l10 -94q-93 -15 -180.5 -19.5t-202.5 -4.5h-69v448zM430 567h222v67h-222v91h222v87h127v-515h-127v178h-222v92z" />
    <glyph glyph-name="uniB148" unicode="&#xb148;" 
d="M204 780v-323q105 1 175 5.5t140 17.5l13 -100q-82 -14 -164.5 -18.5t-216.5 -4.5h-71v423h124zM189 313h591v-236h-465v-54h484v-97h-608v240h465v51h-467v96zM439 604h216v51h-216v93h216v65h125v-467h-125v163h-216v95z" />
    <glyph glyph-name="uniB150" unicode="&#xb150;" 
d="M207 773v-363q88 2 161 8t147 19l14 -98q-87 -17 -173.5 -23t-202.5 -6h-69v463h123zM188 251h592v-325h-592v325zM657 24v130h-347v-130h347zM439 573h216v64h-216v94h216v82h125v-525h-125v191h-216v94z" />
    <glyph glyph-name="uniB151" unicode="&#xb151;" 
d="M314 282v-83h343v83h123v-356h-588v356h122zM84 779h123v-348q94 1 168 6t149 18l10 -99q-87 -15 -173 -20t-207 -5h-70v448zM657 25v79h-343v-79h343zM439 586h216v57h-216v94h216v76h125v-494h-125v173h-216v94z" />
    <glyph glyph-name="uniB154" unicode="&#xb154;" 
d="M206 767v-349q89 1 162.5 6.5t148.5 18.5l10 -98q-88 -16 -174.5 -21.5t-201.5 -5.5h-69v449h124zM202.5 108.5q42.5 60.5 42.5 131.5v28h120v-28q0 -58 25 -111.5t77 -89.5q52 38 78 92.5t26 108.5v28h123v-28q0 -76 41 -135.5t127 -86.5l-63 -90q-119 41 -169 155
q-23 -55 -63.5 -97.5t-98.5 -66.5q-115 45 -163 160q-52 -108 -166 -151l-61 90q82 30 124.5 90.5zM438 579h215v61h-215v94h215v79h124v-517h-124v188h-215v95z" />
    <glyph glyph-name="uniB155" unicode="&#xb155;" 
d="M207 766v-352q102 1 178.5 7t152.5 21l15 -99q-88 -18 -177.5 -24t-219.5 -6h-72v453h123zM253 216.5q82 46.5 224 46.5t224 -46.5t82 -127.5q0 -82 -82 -128.5t-224 -46.5t-224 46.5t-82 128.5q0 81 82 127.5zM477 12q182 0 182 77t-182 77q-183 0 -183 -77t183 -77z
M439 575h216v60h-216v95h216v83h125v-539h-125v207h-216v94z" />
    <glyph glyph-name="uniB158" unicode="&#xb158;" 
d="M207 767v-341q95 2 165.5 7.5t140.5 19.5l14 -99q-82 -16 -166.5 -21.5t-207.5 -5.5h-69v440h123zM655 115v57h-486v98h611v-355h-125v113l-491 -26l-12 95zM439 585h216v57h-216v94h216v77h125v-504h-125v180h-216v96z" />
    <glyph glyph-name="uniB15C" unicode="&#xb15c;" 
d="M189 713v-479q130 3 238 24l13 -104q-74 -16 -145 -21t-167 -5h-62v585h123zM336 437h158v90h-158v101h158v168h116v-839h-116v380h-158v100zM684 813h119v-897h-119v897z" />
    <glyph glyph-name="uniB160" unicode="&#xb160;" 
d="M800 812v-667h-118v667h118zM73 736h123v-370q73 2 124.5 6t104.5 15l15 -99q-66 -14 -132.5 -18.5t-173.5 -4.5h-61v471zM201 208h125v-176h498v-100h-623v276zM349 525h150v65h-150v96h150v109h116v-630h-116v264h-150v96z" />
    <glyph glyph-name="uniB171" unicode="&#xb171;" 
d="M801 813v-555h-119v555h119zM73 751h123v-352q74 2 125.5 6.5t103.5 15.5l16 -99q-67 -14 -133.5 -18.5t-173.5 -4.5h-61v452zM270 206q82 44 226 44t226 -44t82 -124q0 -79 -82.5 -123.5t-225.5 -44.5q-144 0 -226 44.5t-82 123.5q0 80 82 124zM496 8q183 0 183 74
q0 75 -183 75q-184 0 -184 -75q0 -74 184 -74zM349 556h150v60h-150v95h150v85h116v-508h-116v172h-150v96z" />
    <glyph glyph-name="uniB178" unicode="&#xb178;" 
d="M248 744v-319h508v-99h-258v-209h345v-99h-812v99h344v209h-252v418h125z" />
    <glyph glyph-name="uniB179" unicode="&#xb179;" 
d="M256 799v-209h496v-101h-254v-96h344v-98h-810v98h343v96h-243v310h124zM123 224h621v-309h-125v209h-496v100z" />
    <glyph glyph-name="uniB17C" unicode="&#xb17c;" 
d="M257 788v-219h494v-99h-252v-109h343v-99h-810v99h344v109h-243v318h124zM128 205h123v-173h507v-100h-630v273z" />
    <glyph glyph-name="uniB180" unicode="&#xb180;" 
d="M255 802v-169h494v-98h-250v-72h344v-98h-812v98h345v72h-244v267h123zM123 312h623v-233h-497v-59h524v-94h-648v240h497v52h-499v94z" />
    <glyph glyph-name="uniB181" unicode="&#xb181;" 
d="M425 303v-232h-185v-59q77 1 131 5t109 13l10 -93q-68 -12 -134.5 -15.5t-183.5 -3.5h-61v237h186v54h-187v94h315zM28 447h341v66h-240v284h127v-185h492v-99h-252v-66h344v-97h-812v97zM461 303h297v-388h-127v291h-170v97z" />
    <glyph glyph-name="uniB182" unicode="&#xb182;" 
d="M256 800v-185h493v-97h-250v-75h344v-99h-812v99h345v75h-244v282h124zM114 292h293v-220h-176v-56q71 1 111.5 3.5t80.5 10.5l8 -90q-49 -10 -100.5 -12.5t-162.5 -2.5h-53v230h177v49h-178v88zM454 292h297v-367h-297v367zM646 16v186h-88v-186h88z" />
    </font>
</defs>
</svg>
